<?xml version="1.0" encoding="UTF-8" standalone="no"?>
<svg
   xmlns:dc="http://purl.org/dc/elements/1.1/"
   xmlns:cc="http://creativecommons.org/ns#"
   xmlns:rdf="http://www.w3.org/1999/02/22-rdf-syntax-ns#"
   xmlns:svg="http://www.w3.org/2000/svg"
   xmlns="http://www.w3.org/2000/svg"
   xmlns:sodipodi="http://sodipodi.sourceforge.net/DTD/sodipodi-0.dtd"
   xmlns:inkscape="http://www.inkscape.org/namespaces/inkscape"
   version="1.1"
   id="svg2"
   xml:space="preserve"
   width="1000"
   height="666.66669"
   viewBox="0 0 1000 666.66669"
   sodipodi:docname="6212132.eps"><metadata
     id="metadata8"><rdf:RDF><cc:Work
         rdf:about=""><dc:format>image/svg+xml</dc:format><dc:type
           rdf:resource="http://purl.org/dc/dcmitype/StillImage" /></cc:Work></rdf:RDF></metadata><defs
     id="defs6"><clipPath
       clipPathUnits="userSpaceOnUse"
       id="clipPath40"><path
         d="m 983.23,2961.29 c -50.359,-219.99 -115.64,-831.7 108.71,-1066.92 224.35,-235.2 394.43,-267.78 777.98,-275 383.57,-7.23 575.35,-28.91 857.59,-10.83 282.25,18.06 723.69,28.03 770.74,665.79 84.98,1151.96 -780.26,1683.47 -1475.02,1621.96 -694.75,-61.51 -945,-520 -1040,-935 z"
         id="path38" /></clipPath><clipPath
       clipPathUnits="userSpaceOnUse"
       id="clipPath114"><path
         d="m 4729.15,4451.94 c -349.34,-73.64 -896.18,-225.69 -871.02,-892.14 25.16,-666.46 281.4,-1009.96 709.23,-1143.25 427.84,-133.29 1477.62,-270.18 1700.51,172.91 222.9,443.1 149.42,1075.71 34.38,1338.69 -115.04,262.99 -393.89,772.35 -1573.1,523.79 z"
         id="path112" /></clipPath></defs><sodipodi:namedview
     pagecolor="#ffffff"
     bordercolor="#666666"
     borderopacity="1"
     objecttolerance="10"
     gridtolerance="10"
     guidetolerance="10"
     inkscape:pageopacity="0"
     inkscape:pageshadow="2"
     inkscape:window-width="640"
     inkscape:window-height="480"
     id="namedview4" /><g
     id="g10"
     inkscape:groupmode="layer"
     inkscape:label="ink_ext_XXXXXX"
     transform="matrix(1.3333333,0,0,-1.3333333,0,666.66667)"><g
       id="g12"
       transform="scale(0.1)"><path
         d="m 6508.95,1603.52 c -19.41,-8.32 -37.68,-23.01 -44.64,-36.93 -8.06,-10.88 -9.87,-27.45 -4.77,-40.17 2.77,-6.92 8.68,-15.59 21.11,-17.66 21.33,-4.19 30.38,18.43 33.33,28.37 6.34,21.34 4.55,47.8 -5.03,66.39 z m -23.04,-105.32 c -2.3,0 -4.65,0.25 -7.05,0.73 -13.13,2.18 -23.34,10.63 -28.6,23.77 -6.41,16 -4.12,36.21 5.57,49.13 7.5,15.13 26.87,31.03 47.67,40.27 -4.24,5.43 -9.42,9.65 -15.52,12.09 -14.04,5.61 -39.48,6.72 -58.95,-2.31 -10.12,-4.69 -16.68,-11.3 -19.45,-19.63 -0.88,-2.62 -3.69,-4.05 -6.33,-3.17 -2.62,0.88 -4.03,3.71 -3.16,6.33 3.63,10.89 12.19,19.73 24.74,25.55 19.3,8.96 48.07,10.05 66.86,2.51 8.76,-3.5 15.91,-9.7 21.45,-17.61 3.6,1.19 7.18,2.17 10.72,2.87 21.24,7.11 39.59,6.69 53.91,-1.43 15.41,-8.72 26.16,-26.34 31.95,-52.39 0.59,-2.69 -1.11,-5.36 -3.8,-5.96 -2.71,-0.59 -5.37,1.1 -5.97,3.79 -5.15,23.17 -14.27,38.6 -27.1,45.86 -11.8,6.68 -27.41,6.83 -46.43,0.48 -2.66,-0.53 -5.35,-1.23 -8.05,-2.07 10.41,-21.03 12.09,-49.54 5.19,-72.73 -6.85,-23.07 -20.64,-36.07 -37.65,-36.08"
         style="fill:#100f0d;fill-opacity:1;fill-rule:nonzero;stroke:none"
         id="path16" /><path
         d="m 2301.31,1354.28 c -3.26,0 -6.68,-0.73 -10.11,-2.19 -20.34,-8.67 -28,-25.54 -30.85,-38.16 -2.43,-10.83 -2.32,-22.87 -0.04,-34.34 4.61,0.08 9.27,0.64 13.92,1.7 22.49,5.45 43.42,23.06 47.58,40.07 2.24,11.96 -0.75,22.76 -8.05,28.62 -3.55,2.85 -7.84,4.3 -12.45,4.3 z m 33.07,-144.95 c -24.53,0 -47.39,9.72 -64.8,27.69 -7.73,8.72 -13.58,20.3 -17.12,32.84 -12.94,1.13 -25.37,5.58 -36.34,13.18 -19.13,13.24 -32.04,34.91 -35.41,59.43 -3.81,30.4 6.67,49.1 23.09,74.18 1.52,2.31 4.62,2.95 6.93,1.44 2.31,-1.52 2.95,-4.61 1.44,-6.93 -15.61,-23.82 -25,-39.82 -21.54,-67.38 2.98,-21.7 14.35,-40.87 31.18,-52.52 8.61,-5.96 18.24,-9.69 28.31,-11.07 -2.11,12.11 -2.07,24.61 0.48,35.93 4.82,21.37 17.5,37 36.68,45.17 11.61,4.95 23.85,3.63 32.74,-3.52 10.22,-8.2 14.55,-22.6 11.57,-38.52 -5.13,-20.94 -28.77,-41.32 -55.07,-47.7 -4.56,-1.03 -9.14,-1.66 -13.67,-1.88 3.15,-9.89 7.93,-18.94 14.06,-25.86 16.34,-16.85 38.38,-25.48 61.71,-24.38 24.61,1.26 47.47,13.05 62.72,32.37 1.71,2.16 4.86,2.53 7.02,0.83 2.17,-1.71 2.54,-4.86 0.83,-7.02 -17.04,-21.59 -42.57,-34.76 -70.06,-36.16 -1.59,-0.08 -3.18,-0.12 -4.75,-0.12"
         style="fill:#100f0d;fill-opacity:1;fill-rule:nonzero;stroke:none"
         id="path18" /><path
         d="m 2486.88,4209.93 c -0.18,-0.34 -0.36,-0.68 -0.54,-1.02 -12.24,-23.75 -7.5,-48.35 13.33,-69.27 15.19,-15.25 29.53,-20.82 39.31,-15.31 10.24,5.77 14.74,23.07 10.48,40.24 -2.53,10.19 -14.46,43.18 -62.58,45.36 z M 2375,4075 c -2.75,0 -4.99,2.23 -5,4.98 -0.19,42.66 16.29,85.4 43,111.51 18.88,18.45 42.39,28.28 68.22,28.54 20.24,31.76 62.5,51.31 99.6,45.16 21.75,-3.61 40.8,-15.51 59.22,-27.01 34.07,-21.29 63.49,-39.67 101.33,0.26 1.9,2.01 5.06,2.09 7.07,0.19 2,-1.9 2.09,-5.07 0.19,-7.07 -43.45,-45.87 -79.25,-23.51 -113.89,-1.86 -17.58,10.98 -35.77,22.35 -55.56,25.63 -30.91,5.1 -66.97,-10.49 -86.14,-35.82 39.94,-3.96 60.33,-29.18 66.12,-52.52 5.4,-21.74 -1.03,-43.34 -15.26,-51.37 -8.22,-4.64 -25.83,-8.61 -51.31,16.96 -22.75,22.84 -28.8,50.78 -16.91,77.24 -21.15,-1.44 -39.85,-9.99 -55.69,-25.48 -24.84,-24.29 -40.16,-64.26 -39.99,-104.32 0.01,-2.76 -2.22,-5.01 -4.98,-5.02 -0.01,0 -0.02,0 -0.02,0"
         style="fill:#100f0d;fill-opacity:1;fill-rule:nonzero;stroke:none"
         id="path20" /><path
         d="m 6487.26,2807.2 c -20,0 -38.9,-8.61 -50.57,-23.02 -11.54,-14.26 -15.29,-32.85 -10.84,-53.75 6.09,-28.62 29.49,-47.12 59.6,-47.12 8.75,0 17.56,1.59 26.18,4.72 14.78,5.38 28.58,19.15 36.01,35.95 6.32,14.29 7.18,28.55 2.43,40.18 -11.39,26.93 -34.88,43.04 -62.81,43.04 z m -1.81,-133.89 c -35.02,0 -62.26,21.61 -69.39,55.04 -6.44,30.25 3.44,50.48 12.86,62.12 13.54,16.74 35.35,26.73 58.34,26.73 32.08,0 59.01,-18.39 72.05,-49.2 5.82,-14.22 4.91,-31.27 -2.52,-48.07 -8.5,-19.2 -24.5,-35.02 -41.74,-41.29 -9.72,-3.54 -19.68,-5.33 -29.6,-5.33"
         style="fill:#f8a218;fill-opacity:1;fill-rule:nonzero;stroke:none"
         id="path22" /><path
         d="m 1482.25,1440.54 c -20,0 -38.9,-8.61 -50.56,-23.02 -11.55,-14.27 -15.3,-32.85 -10.85,-53.74 6.1,-28.63 29.5,-47.14 59.6,-47.14 8.76,0 17.57,1.59 26.19,4.73 14.77,5.37 28.57,19.14 36,35.92 6.33,14.3 7.19,28.58 2.43,40.21 -11.39,26.92 -34.88,43.04 -62.81,43.04 z m -1.81,-133.9 c -35.02,0 -62.26,21.61 -69.38,55.05 -6.45,30.25 3.43,50.48 12.86,62.12 13.54,16.74 35.35,26.73 58.33,26.73 32.08,0 59.01,-18.39 72.05,-49.19 5.82,-14.24 4.92,-31.29 -2.52,-48.1 -8.5,-19.2 -24.49,-35.01 -41.74,-41.28 -9.72,-3.53 -19.67,-5.33 -29.6,-5.33"
         style="fill:#55c2e1;fill-opacity:1;fill-rule:nonzero;stroke:none"
         id="path24" /><path
         d="m 6422.81,2347.34 c -9.24,0 -18.14,-2.73 -25.75,-7.9 l -147.58,-100.25 c -10.13,-6.88 -16.99,-17.35 -19.31,-29.49 -2.32,-12.13 0.2,-24.4 7.09,-34.53 l 100.23,-147.56 c 8.56,-12.62 22.86,-20.15 38.25,-20.15 9.25,0 18.17,2.74 25.79,7.92 l 147.54,100.21 c 21.03,14.28 26.52,43.01 12.25,64.05 l -100.24,147.54 c -8.56,12.62 -22.88,20.16 -38.27,20.16 z m -47.07,-349.88 c -18.71,0 -36.1,9.17 -46.53,24.52 l -100.24,147.56 c -8.37,12.35 -11.44,27.28 -8.62,42.04 2.81,14.76 11.16,27.5 23.51,35.89 l 147.58,100.25 c 9.27,6.29 20.12,9.62 31.37,9.62 18.71,0 36.12,-9.17 46.56,-24.54 l 100.23,-147.55 c 17.35,-25.59 10.67,-60.55 -14.9,-77.94 L 6407.16,2007.1 c -9.3,-6.31 -20.16,-9.64 -31.42,-9.64"
         style="fill:#55c2e1;fill-opacity:1;fill-rule:nonzero;stroke:none"
         id="path26" /><path
         d="m 1947.93,989.309 c -8.76,0 -16.02,-3.008 -20.97,-8.707 -6.41,-7.403 -8.85,-19.204 -6.86,-33.262 l 29,-204.871 c 3.01,-21.239 13.98,-33.93 29.35,-33.93 8.5,0 17.92,3.859 27.23,11.16 l 162.91,127.571 c 13.11,10.269 19.47,22.109 17.87,33.332 -1.59,11.218 -10.98,20.828 -26.45,27.058 l -191.91,77.281 c -7.19,2.899 -13.97,4.368 -20.17,4.368 z m 30.52,-290.77 c -20.5,0 -35.53,16.301 -39.25,42.52 l -29,204.882 c -2.44,17.207 0.75,31.457 9.21,41.207 11.31,13.032 30.88,15.752 52.43,7.071 l 191.91,-77.289 c 18.92,-7.61 30.5,-20.032 32.62,-34.93 2.11,-14.898 -5.56,-30.039 -21.62,-42.609 L 2011.84,711.832 c -11.08,-8.691 -22.63,-13.293 -33.39,-13.293"
         style="fill:#f8a218;fill-opacity:1;fill-rule:nonzero;stroke:none"
         id="path28" /><path
         d="m 3528.72,4414.14 c -7.57,0 -16.15,-2.78 -24.82,-8.03 l -177.01,-107.15 c -14.25,-8.63 -21.97,-19.62 -21.73,-30.95 0.24,-11.33 8.41,-21.99 23.01,-30.03 l 181.32,-99.69 c 17.06,-9.37 33,-9.2 42.46,0.46 6.63,6.77 9.99,17.54 9.71,31.15 l -4.33,206.84 c -0.47,23.07 -11.44,37.4 -28.61,37.4 z m 4.53,-292.85 c -9.02,0 -18.64,2.77 -28.58,8.24 l -181.31,99.69 c -17.87,9.82 -27.89,23.53 -28.2,38.58 -0.32,15.05 9.11,29.15 26.55,39.71 l 177.01,107.16 c 10.38,6.28 20.47,9.47 30,9.47 22.86,0 38.02,-18.52 38.61,-47.19 l 4.33,-206.85 c 0.34,-16.35 -4.01,-29.61 -12.56,-38.35 -6.71,-6.84 -15.64,-10.46 -25.85,-10.46"
         style="fill:#fbc363;fill-opacity:1;fill-rule:nonzero;stroke:none"
         id="path30" /><path
         d="m 4479.58,2937.13 c -433.83,0 -852.52,-218.19 -1178.95,-614.4 -450.48,-546.74 -545.02,-820.74 -595.82,-967.94 -2.64,-7.64 -5.16,-14.97 -7.62,-21.99 -64.34,-183.87 -61.27,-342.331 9.15,-470.968 83.58,-152.703 261.91,-262.32 530.06,-325.832 237.4,-56.219 595.52,-87.199 1008.41,-87.211 0.04,0 0.13,0 0.17,0 651.5,0 1443.68,80.492 1745.03,260.332 162.94,97.238 247.65,344.279 221.06,644.719 -43.05,486.66 -398.56,1170.38 -1258.78,1495.7 -153.7,58.13 -312.74,87.59 -472.71,87.59 z M 4244.98,438.789 c -0.08,0 -0.09,0 -0.17,0 -413.64,0.012 -772.58,31.082 -1010.72,87.481 -271.01,64.191 -451.53,175.472 -536.52,330.761 -71.83,131.231 -75.14,292.409 -9.82,479.069 2.46,7.02 4.97,14.32 7.61,21.95 51,147.8 145.92,422.91 597.55,971.05 328.37,398.55 749.8,618.03 1186.67,618.03 161.18,0 321.42,-29.68 476.24,-88.23 385.97,-145.97 708.73,-380.62 933.39,-678.59 189.06,-250.76 306.91,-543.96 331.83,-825.58 26.92,-304.3 -59.64,-554.968 -225.91,-654.199 C 5692.17,519.73 4897.83,438.789 4244.98,438.789"
         style="fill:#100f0d;fill-opacity:1;fill-rule:nonzero;stroke:none"
         id="path32" /><g
         id="g34"><g
           id="g36"
           clip-path="url(#clipPath40)"><path
             d="m 2280.62,3349.01 c 19.89,-32.56 36.15,-90.47 45.22,-153.79 6.35,-44.31 18.1,-48.85 61.51,-68.75 43.43,-19.9 53.39,-57.89 29.87,-79.6 -33.51,-30.92 -33.47,-14.03 -37.99,-48.85 -3.03,-23.23 3.27,-41.77 -27.98,-31.77 -12.27,3.93 -37.64,19.03 -41.25,16.25 -10.82,-8.36 -7.5,-40 33.75,-63.75 15.04,-8.66 27.5,-7.5 14.21,-76.33 -11.58,-59.94 -84.13,-69.2 -156.05,-55.62 -71.92,13.56 -56.99,-40.72 -85.48,-118.06 -28.5,-77.35 -32.57,-120.77 6.77,-153.34 39.36,-32.57 70.57,-188.61 66.5,-226.61 -4.07,-37.99 -139.77,-116.69 -255.11,10.86 -62.41,86.84 -132.98,253.75 -132.98,253.75 0,0 73.27,101.77 71.92,200.83 -1.35,99.05 -43.42,472.22 93.63,578.06 137.05,105.83 299.88,42.94 313.46,16.72"
             style="fill:#ffffff;fill-opacity:1;fill-rule:nonzero;stroke:none"
             id="path42" /><path
             d="m 1807.3,2552.8 c 9.16,-21.31 74.16,-170.65 131.35,-250.23 50.66,-55.98 102.77,-67.81 137.51,-67.81 60.35,0 106.51,35.4 108.57,54.57 3.93,36.71 -27.58,191.48 -64.72,222.22 -43.04,35.63 -36.12,83.34 -8.28,158.92 7.59,20.57 12.03,39.44 15.97,56.09 9.21,39.08 15.88,67.32 54.53,67.32 6.13,0 12.88,-0.71 20.61,-2.17 18.92,-3.57 36.96,-5.38 53.6,-5.38 39.05,0 87.51,9.9 96.61,57.04 11.36,58.84 3.84,62.78 -7.55,68.74 -1.38,0.73 -2.8,1.47 -4.25,2.31 -24.68,14.21 -40.18,33.87 -41.45,52.58 -0.57,8.42 2.03,15.5 7.14,19.46 4.34,3.36 11.89,0.08 27.88,-7.57 6.6,-3.16 13.42,-6.42 17.95,-7.88 5.26,-1.68 9.49,-2.53 12.56,-2.53 5.92,0 7.02,2.44 7.88,17.39 0.22,3.99 0.48,8.3 1.06,12.79 3.01,23.17 4.2,25.67 15.88,33.34 4.93,3.23 12.38,8.12 23.67,18.55 8.43,7.78 12.11,18.09 10.37,29.05 -2.63,16.54 -17.18,32.37 -38.92,42.33 l -2.54,1.16 c -41.31,18.92 -55.23,25.28 -61.84,71.43 -9.39,65.56 -25.63,120.92 -44.54,151.89 -6.35,12.22 -59.68,40.16 -135.04,40.16 -43.65,0 -108.76,-10.11 -171.1,-58.24 -115.92,-89.53 -101.13,-378.99 -94.02,-518.1 1.15,-22.57 2.14,-42.07 2.34,-55.93 1.26,-92.48 -60.05,-185.36 -71.23,-201.5 z m 268.86,-328.04 c -36.77,0 -91.81,12.41 -145.28,71.54 -62.37,86.74 -133.17,253.48 -133.87,255.15 -0.68,1.61 -0.48,3.45 0.54,4.87 0.73,1 72.29,101.62 70.98,197.84 -0.19,13.68 -1.18,33.09 -2.33,55.56 -7.2,140.81 -22.17,433.8 97.9,526.52 64.57,49.86 132,60.33 177.21,60.33 73.45,0 134.19,-26.8 143.74,-45.26 19.43,-31.77 36.16,-88.52 45.74,-155.38 5.84,-40.73 15.48,-45.15 56.1,-63.74 l 2.55,-1.17 c 25.15,-11.53 41.42,-29.7 44.62,-49.85 2.29,-14.37 -2.49,-27.85 -13.45,-37.97 -11.9,-10.99 -19.77,-16.14 -24.97,-19.56 -8.63,-5.67 -8.79,-5.77 -11.46,-26.27 -0.55,-4.24 -0.78,-8.31 -0.99,-12.07 -0.9,-15.78 -2.37,-33.78 -33.46,-23.81 -5.19,1.66 -12.33,5.07 -19.23,8.38 -6.02,2.88 -14.84,7.1 -18.31,7.85 -1.81,-2.08 -2.71,-5.72 -2.41,-10.04 0.81,-11.87 10.81,-29.82 36.47,-44.6 1.32,-0.76 2.63,-1.44 3.89,-2.11 16.29,-8.53 24.91,-16.43 12.73,-79.5 -8.11,-42.01 -45.91,-65.14 -106.43,-65.14 -17.26,0 -35.92,1.87 -55.45,5.55 -7.02,1.33 -13.33,2 -18.76,2 -29.5,0 -35.05,-18.28 -44.8,-59.62 -4,-16.92 -8.52,-36.1 -16.31,-57.25 -30.27,-82.16 -28.94,-119.44 5.27,-147.76 41.03,-33.95 72.58,-190.87 68.28,-231 -2.74,-25.56 -53.71,-63.49 -118.51,-63.49"
             style="fill:#100f0d;fill-opacity:1;fill-rule:nonzero;stroke:none"
             id="path44" /><path
             d="m 1869.92,1619.37 c 25.33,-10.87 264.15,-23.52 264.15,-23.52 0,0 104.94,334.69 61.53,718.26 -86.85,-75.99 -184.56,-57.88 -282.25,21.72 61.5,-188.17 32.57,-575.33 -43.43,-716.46"
             style="fill:#100f0d;fill-opacity:1;fill-rule:nonzero;stroke:none"
             id="path46" /><path
             d="m 2237.36,3104.3 c 5.29,-16.93 17.4,-28.22 27.04,-25.22 9.65,3.02 13.18,19.19 7.9,36.13 -5.28,16.92 -17.4,28.21 -27.02,25.18 -9.65,-3.01 -13.21,-19.16 -7.92,-36.09"
             style="fill:#100f0d;fill-opacity:1;fill-rule:nonzero;stroke:none"
             id="path48" /><path
             d="m 2253.61,3132.29 c -0.46,0 -0.94,0.06 -1.41,0.2 -2.65,0.78 -4.16,3.56 -3.38,6.21 l 9.05,30.76 c 0.78,2.64 3.56,4.18 6.21,3.38 2.65,-0.77 4.16,-3.56 3.38,-6.2 l -9.05,-30.77 c -0.64,-2.17 -2.63,-3.58 -4.8,-3.58"
             style="fill:#100f0d;fill-opacity:1;fill-rule:nonzero;stroke:none"
             id="path50" /><path
             d="m 2012.85,2111.48 c -27.93,206 -120.03,342.29 -201.49,468.56 -12.5,19.37 -24.06,16.61 -29.38,15.55 -38.95,-7.73 -82.42,-26.01 -71.28,-49.88 2.37,-5.05 5.99,-10.24 10.51,-16.01 -16.9,-3.41 -37.13,-7.65 -61.16,-12.94 -90.48,-19.89 -146.46,-55.68 -202.55,-111.76 -56.09,-56.08 -342.9,-403.85 -422.5,-492.5 104.94,-202.65 285,-232.5 285,-232.5 0,0 164.55,165.53 267.67,292.18 -3.63,-25.32 -16.27,-260.54 -52.46,-352.81 63.91,-37.08 241.56,-35.31 340.36,-31.08 16.22,-14.88 79.39,-1.49 79.39,-1.49 0,0 86.83,311.19 57.89,524.68"
             style="fill:#55c2e1;fill-opacity:1;fill-rule:nonzero;stroke:none"
             id="path52" /><path
             d="m 1707.98,3292.93 c -47.49,-17.64 -100.41,-61.06 -128.91,-246.96 -13.78,-89.9 -47.14,-186.42 -40.86,-278.1 5.88,-85.81 80.2,-109.21 155.96,-124.36 66.74,-13.35 326.14,-75.2 342.5,36.49 19.08,130.3 -186.3,195.73 -156.84,316.67 5.99,24.58 30.68,55.13 56.1,60.82 32.44,7.25 42.08,-20.47 67.31,-37.48 30.73,-20.72 49.13,-8.61 67.59,22.49 17.45,29.39 10.91,76.48 8.15,109.48 -3.62,43.24 -8.76,58.86 28.76,71.24 50.72,16.72 94.15,51.08 45.33,109.06 65.13,-77.34 97.69,-65.13 150.61,-31.21 52.92,33.93 55.64,65.14 35.28,123.48 -20.36,58.35 -82.77,147.91 -192.68,134.34 -109.91,-13.57 -99.06,-43.42 -230.68,-70.56 -131.63,-27.14 -215.76,-66.49 -207.62,-195.4"
             style="fill:#100f0d;fill-opacity:1;fill-rule:nonzero;stroke:none"
             id="path54" /><path
             d="m 2199.2,3191.59 c -0.56,0 -1.12,0.09 -1.68,0.29 -2.6,0.93 -3.96,3.79 -3.03,6.39 3.55,9.95 23.62,60.07 70.18,69.7 2.7,0.55 5.35,-1.18 5.91,-3.88 0.56,-2.7 -1.18,-5.35 -3.89,-5.91 -41.31,-8.54 -59.55,-54.2 -62.78,-63.27 -0.73,-2.04 -2.66,-3.32 -4.71,-3.32"
             style="fill:#100f0d;fill-opacity:1;fill-rule:nonzero;stroke:none"
             id="path56" /><path
             d="m 1871.73,1592.66 c -0.1,0 -0.21,0 -0.31,0.01 -2.76,0.17 -4.85,2.54 -4.68,5.3 0.27,4.34 1.19,16.19 2.53,33.43 7.83,100.58 28.65,367.79 21.01,428.81 -7.99,63.88 9.32,79.89 35.54,104.12 3.27,3.02 6.71,6.21 10.29,9.65 -12.9,8.23 -46.78,29.75 -72.42,45.41 -26.78,16.36 -32.67,38.58 -48.42,97.96 -4.7,17.72 -10.03,37.81 -17.1,62.33 -21.49,74.63 -52.1,111.8 -72.36,136.4 -4.97,6.03 -9.26,11.24 -12.84,16.24 -1.6,2.25 -1.09,5.38 1.16,6.98 2.26,1.61 5.38,1.09 6.98,-1.16 3.38,-4.72 7.57,-9.81 12.42,-15.7 20.78,-25.24 52.19,-63.38 74.25,-139.99 7.1,-24.63 12.67,-45.64 17.15,-62.54 15,-56.55 20.62,-77.71 43.98,-91.98 32.24,-19.71 77.43,-48.61 77.89,-48.91 1.27,-0.81 2.11,-2.16 2.27,-3.67 0.16,-1.5 -0.36,-3 -1.43,-4.07 -5.3,-5.29 -10.33,-9.95 -15.04,-14.3 -25.63,-23.69 -39.75,-36.74 -32.39,-95.52 7.75,-62.04 -13.11,-329.98 -20.97,-430.84 -1.33,-17.16 -2.25,-28.95 -2.52,-33.28 -0.17,-2.64 -2.36,-4.68 -4.99,-4.68"
             style="fill:#ffffff;fill-opacity:1;fill-rule:nonzero;stroke:none"
             id="path58" /><path
             d="m 2570.1,2247.19 -38,-112.17 c 0,0 -90.46,164.63 -148.36,237 -54.11,67.64 -131.9,109.98 -193.53,132.96 -41.59,68.82 -100.34,78.76 -100.34,78.76 0,0 -4.66,-16.3 3.95,-36.91 8.6,-20.6 101.75,-182.04 80.05,-438.96 -21.7,-256.91 -95.89,-512.02 -95.89,-512.02 h 56.09 c 0,0 0.43,1.42 1.23,4.04 42.2,-5.43 128.12,-14.08 130.84,5 3.62,25.33 52.48,227.97 81.42,291.3 86.84,-161.01 167.42,-193.87 284,-144.9 83.34,35 152.03,314.96 161.08,425.33 1.8,1.82 -222.54,70.57 -222.54,70.57"
             style="fill:#55c2e1;fill-opacity:1;fill-rule:nonzero;stroke:none"
             id="path60" /><path
             d="m 2134.07,1590.85 c -0.48,0 -0.97,0.07 -1.46,0.21 -2.64,0.81 -4.13,3.61 -3.32,6.25 1.12,3.67 112.3,367.9 128.37,437.49 16.51,71.59 15.98,80.18 5.22,101.22 -13.54,26.43 -25.16,49.64 -25.16,49.64 -1.15,2.32 -0.35,5.13 1.85,6.5 12.21,7.54 42.75,31.58 37.56,51.98 -11.55,45.31 -55.55,195.46 -87.72,252.53 l -1.04,1.83 c -1.37,2.39 -0.53,5.45 1.86,6.82 2.4,1.38 5.45,0.53 6.83,-1.86 l 1.07,-1.89 c 32.65,-57.93 77.06,-209.31 88.69,-254.97 6.83,-26.8 -26.51,-52.42 -38.16,-60.43 3.87,-7.72 12.95,-25.75 23.11,-45.6 12.58,-24.56 12.09,-36.67 -4.37,-108.01 -16.14,-69.94 -127.42,-434.49 -128.55,-438.18 -0.65,-2.14 -2.63,-3.53 -4.78,-3.53"
             style="fill:#ffffff;fill-opacity:1;fill-rule:nonzero;stroke:none"
             id="path62" /><path
             d="m 2347.55,1891.19 c -0.69,0 -1.4,0.15 -2.07,0.45 -2.51,1.15 -3.61,4.12 -2.47,6.63 81.34,178.03 51.02,242.11 32.91,280.4 -3.15,6.66 -5.88,12.42 -7.77,18.09 -0.86,2.61 0.55,5.45 3.17,6.33 2.64,0.87 5.46,-0.56 6.33,-3.17 1.69,-5.1 4.29,-10.6 7.31,-16.97 18.85,-39.86 50.42,-106.57 -32.86,-288.84 -0.84,-1.83 -2.65,-2.92 -4.55,-2.92"
             style="fill:#100f0d;fill-opacity:1;fill-rule:nonzero;stroke:none"
             id="path64" /><path
             d="m 2561.52,2062.17 c -1.87,0 -3.66,1.04 -4.52,2.84 -0.2,0.42 -20.17,42.23 -38.1,85.26 -1.06,2.55 0.14,5.48 2.69,6.55 2.55,1.01 5.48,-0.14 6.54,-2.7 17.83,-42.8 37.7,-84.38 37.9,-84.79 1.19,-2.49 0.13,-5.48 -2.36,-6.67 -0.7,-0.34 -1.43,-0.49 -2.15,-0.49"
             style="fill:#100f0d;fill-opacity:1;fill-rule:nonzero;stroke:none"
             id="path66" /><path
             d="m 2584.57,2290.16 c 20.35,63.77 50.21,236.1 56.99,299.88 6.78,63.77 -31.21,153.33 13.57,210.32 44.78,56.99 73.28,85.49 85.49,113.99 12.21,28.49 40.71,32.56 55.63,4.07 14.93,-28.5 -8.14,-78.71 -42.06,-113.99 82.77,52.92 89.55,33.93 115.33,74.63 25.79,40.72 76,145.2 108.57,142.48 27.13,36.64 58.34,16.29 63.77,-33.92 16.28,1.35 31.21,-36.64 20.36,-93.63 39.34,-23.07 35.27,-107.19 -20.36,-170.97 -55.64,-63.78 -161.48,-101.77 -184.55,-153.34 -23.06,-51.56 -61.06,-354.16 -61.06,-354.16 l -211.68,74.64"
             style="fill:#ffffff;fill-opacity:1;fill-rule:nonzero;stroke:none"
             id="path68" /><path
             d="m 2590.77,2293.27 201.3,-70.98 c 5.67,44.47 39.14,301.26 60.68,349.43 12.97,28.99 50.3,53.5 89.82,79.45 34.5,22.65 70.16,46.07 95.52,75.13 32.95,37.78 50.19,87.06 43.92,125.56 -2.92,17.89 -10.63,30.97 -22.32,37.82 -1.83,1.07 -2.78,3.17 -2.39,5.25 7.93,41.63 1.83,71.92 -7.73,83.47 -1.61,1.94 -4.1,4.25 -6.87,4.25 -2.55,0 -5.54,1.89 -5.82,4.43 -3.11,28.8 -15.18,48.15 -30.02,48.15 -8.12,0 -16.68,-5.76 -24.76,-16.66 -1.03,-1.39 -2.68,-2.19 -4.43,-2.01 0,0 -0.01,0 -0.02,0 -23.41,0 -59.95,-64.07 -84.13,-106.47 -7.28,-12.77 -14.15,-24.83 -19.77,-33.7 -15.56,-24.56 -24.96,-28.7 -45.56,-37.78 -15.27,-6.72 -36.19,-15.93 -71.31,-38.39 -2.13,-1.35 -4.96,-0.9 -6.56,1.04 -1.6,1.96 -1.49,4.81 0.27,6.64 30.72,31.96 55.62,80.74 41.23,108.2 -5.66,10.81 -13.53,16.76 -22.16,16.76 -9.81,0 -18.95,-7.65 -24.45,-20.48 -8.75,-20.42 -25,-40.13 -49.6,-69.97 -10.71,-12.98 -22.85,-27.7 -36.55,-45.14 -28.02,-35.66 -22.05,-85.47 -16.29,-133.65 3.17,-26.49 6.17,-51.5 3.76,-74.11 -6.41,-60.25 -35.16,-228.14 -55.76,-296.24 z m 205.48,-82.75 c -0.56,0 -1.12,0.1 -1.67,0.28 l -211.67,74.64 c -2.55,0.9 -3.93,3.66 -3.11,6.24 20.51,64.25 50.26,237.56 56.79,298.89 2.28,21.49 -0.64,45.95 -3.74,71.86 -6.01,50.2 -12.23,102.11 18.35,141.02 13.77,17.53 25.95,32.3 36.69,45.32 24.06,29.18 39.95,48.45 48.13,67.54 7.12,16.63 19.7,26.55 33.64,26.55 12.35,0 23.66,-8.06 31.02,-22.12 13.35,-25.48 -0.26,-64.04 -23.57,-96.54 21.36,12.25 36.24,18.8 47.06,23.57 19.79,8.72 27.2,11.98 41.13,33.97 5.5,8.68 12.31,20.64 19.53,33.3 34.28,60.11 64.81,110.02 90.8,111.52 12.11,15.37 23.59,18.67 31.23,18.67 19.71,0 34.97,-20.66 39.47,-53.02 3.24,-0.79 7.12,-2.82 10.94,-7.43 10.01,-12.09 18.56,-42.37 10.47,-88.38 12.66,-8.74 20.97,-23.5 24.14,-42.93 6.73,-41.32 -11.43,-93.81 -46.25,-133.74 -26.26,-30.1 -62.51,-53.9 -97.57,-76.92 -38.27,-25.12 -74.41,-48.85 -86.18,-75.17 -22.5,-50.3 -60.29,-349.73 -60.67,-352.75 -0.19,-1.49 -1.04,-2.83 -2.33,-3.63 -0.8,-0.49 -1.71,-0.74 -2.63,-0.74"
             style="fill:#100f0d;fill-opacity:1;fill-rule:nonzero;stroke:none"
             id="path70" /><path
             d="m 2803.03,2711.23 c -2.26,0 -4.31,1.54 -4.86,3.84 -6.86,28.81 -32.64,75.79 -46.75,85.2 -2.3,1.54 -2.92,4.64 -1.39,6.94 1.53,2.3 4.63,2.92 6.93,1.38 17.57,-11.71 44.02,-62.13 50.94,-91.2 0.64,-2.69 -1.02,-5.38 -3.71,-6.02 -0.38,-0.1 -0.77,-0.14 -1.16,-0.14"
             style="fill:#100f0d;fill-opacity:1;fill-rule:nonzero;stroke:none"
             id="path72" /><path
             d="m 2968.59,2738.37 c -1.84,0 -3.6,1.01 -4.48,2.76 -5.05,10.11 -65.13,82.14 -88.03,89.77 -2.61,0.87 -4.03,3.7 -3.16,6.33 0.88,2.61 3.69,4.03 6.33,3.16 26.26,-8.76 88.32,-83.82 93.81,-94.78 1.23,-2.48 0.23,-5.48 -2.24,-6.71 -0.72,-0.36 -1.48,-0.53 -2.23,-0.53"
             style="fill:#100f0d;fill-opacity:1;fill-rule:nonzero;stroke:none"
             id="path74" /><path
             d="m 2956.37,2731.58 c -1.89,0 -3.7,1.08 -4.54,2.91 -1.16,2.5 -0.07,5.48 2.44,6.63 15.71,7.25 50.27,51.56 59.6,102.21 4.78,25.96 12.77,42.09 24.41,49.3 10.77,6.68 22.69,4.39 30.73,2.1 2.66,-0.76 4.19,-3.53 3.44,-6.18 -0.77,-2.65 -3.53,-4.16 -6.19,-3.44 -10,2.87 -17,2.56 -22.71,-0.98 -8.98,-5.57 -15.66,-19.91 -19.84,-42.62 -9.61,-52.14 -45.64,-100.42 -65.25,-109.47 -0.68,-0.31 -1.39,-0.46 -2.09,-0.46"
             style="fill:#100f0d;fill-opacity:1;fill-rule:nonzero;stroke:none"
             id="path76" /><path
             d="m 2938.73,2776.37 c -1.4,0 -2.78,0.58 -3.77,1.72 -1.82,2.08 -1.6,5.24 0.49,7.05 29.58,25.72 41.7,63.22 52.65,119.3 10.07,51.62 29.7,80.35 58.32,85.38 2.7,0.51 5.31,-1.32 5.79,-4.05 0.48,-2.72 -1.34,-5.31 -4.06,-5.79 -24.13,-4.25 -41.03,-30.31 -50.23,-77.45 -11.37,-58.22 -24.16,-97.33 -55.91,-124.94 -0.95,-0.82 -2.11,-1.22 -3.28,-1.22"
             style="fill:#100f0d;fill-opacity:1;fill-rule:nonzero;stroke:none"
             id="path78" /><path
             d="m 2907.51,2811.64 c -0.99,0 -1.99,0.29 -2.87,0.91 -2.26,1.59 -2.8,4.71 -1.21,6.97 14.72,20.92 33.21,80.73 48.05,128.79 11.11,35.94 20.7,66.98 27.64,79.7 1.32,2.43 4.36,3.32 6.78,1.99 2.43,-1.32 3.32,-4.36 2,-6.78 -6.46,-11.84 -16.37,-43.91 -26.86,-77.86 -15.84,-51.27 -33.8,-109.38 -49.43,-131.6 -0.98,-1.38 -2.52,-2.12 -4.1,-2.12"
             style="fill:#100f0d;fill-opacity:1;fill-rule:nonzero;stroke:none"
             id="path80" /><path
             d="m 1576.81,1956.32 c -1.14,0 -2.29,0.39 -3.23,1.19 -2.11,1.79 -2.36,4.94 -0.57,7.05 30.49,35.86 91.83,100.85 92.45,101.5 1.89,2 5.05,2.1 7.06,0.2 2.01,-1.89 2.1,-5.06 0.2,-7.07 -0.61,-0.65 -61.77,-65.44 -92.09,-101.11 -0.99,-1.17 -2.4,-1.76 -3.82,-1.76"
             style="fill:#100f0d;fill-opacity:1;fill-rule:nonzero;stroke:none"
             id="path82" /><path
             d="m 2575.73,2306.29 c -20,-37.5 -31.57,-98.32 -27.5,-103.75 4.07,-5.43 152.5,-17.5 253.75,-90 23.07,-10.85 30.44,96.04 26.84,108.41 -9.5,32.57 -240.87,98.91 -253.09,85.34"
             style="fill:#100f0d;fill-opacity:1;fill-rule:nonzero;stroke:none"
             id="path84" /><path
             d="m 2011.04,2115.53 c -1.17,0 -2.34,0.4 -3.29,1.23 -0.46,0.39 -46.05,39.97 -67.25,54.1 -2.3,1.53 -2.92,4.64 -1.39,6.93 1.53,2.3 4.62,2.92 6.93,1.39 21.74,-14.48 66.39,-53.23 68.28,-54.88 2.08,-1.81 2.3,-4.96 0.49,-7.05 -0.99,-1.14 -2.38,-1.72 -3.77,-1.72"
             style="fill:#ffffff;fill-opacity:1;fill-rule:nonzero;stroke:none"
             id="path86" /><path
             d="m 2175.84,2135.87 c -1.28,0 -2.56,0.49 -3.54,1.46 -1.95,1.96 -1.95,5.12 0,7.07 19.11,19.11 43.53,33.76 59.68,43.46 4.02,2.4 7.45,4.46 10.07,6.16 2.32,1.51 5.42,0.85 6.92,-1.46 1.5,-2.32 0.84,-5.41 -1.47,-6.92 -2.7,-1.75 -6.24,-3.87 -10.37,-6.35 -15.74,-9.45 -39.52,-23.72 -57.75,-41.96 -0.98,-0.97 -2.26,-1.46 -3.54,-1.46"
             style="fill:#ffffff;fill-opacity:1;fill-rule:nonzero;stroke:none"
             id="path88" /><path
             d="m 2030.51,2846.53 c -5.28,49.33 -44.17,99.9 -90.34,70.4 -40.15,-25.64 -52.37,-94.67 -15.62,-127.39 15.64,-13.93 40.96,-20.44 62.12,-16.3 35.54,6.97 47.42,39.85 43.84,73.29"
             style="fill:#f8a218;fill-opacity:1;fill-rule:nonzero;stroke:none"
             id="path90" /></g></g><path
         d="m 2132.42,3896.07 c -36.47,0 -73.05,-1.6 -108.75,-4.76 -557,-49.32 -905.42,-362.6 -1035.565,-931.13 -57.203,-249.89 -106.207,-838.35 107.455,-1062.36 228.7,-239.76 402.8,-266.45 774.45,-273.45 128.33,-2.43 236.09,-6.49 331.16,-10.08 110.53,-4.17 205.98,-7.78 303.37,-7.78 0,0 0.01,0 0.02,0 77.18,0 147.92,2.23 222.63,7.02 l 23.09,1.45 c 277.77,17.3 697.52,43.45 742.99,659.72 35.34,479.11 -92.57,890.16 -369.89,1188.7 -251.68,270.93 -622.13,432.67 -990.96,432.67 z m 372.14,-2299.56 c -0.01,0 -0.01,0 -0.02,0 -97.58,0 -193.12,3.61 -303.75,7.79 -95.02,3.58 -202.73,7.65 -330.96,10.07 -374.62,7.06 -550.19,34.04 -781.5,276.56 -216.471,226.94 -167.568,819.88 -109.971,1071.48 131.221,573.24 482.621,889.12 1044.431,938.86 35.98,3.18 72.87,4.8 109.63,4.8 371.56,0 744.75,-162.94 998.28,-435.86 194.74,-209.64 417.46,-587.35 372.54,-1196.25 -46.11,-624.97 -471.11,-651.44 -752.33,-668.96 l -23.08,-1.46 c -74.92,-4.79 -145.88,-7.03 -223.27,-7.03"
         style="fill:#100f0d;fill-opacity:1;fill-rule:nonzero;stroke:none"
         id="path92" /><path
         d="m 2643.53,3655.69 c 67.76,17.68 284.35,58.94 397.81,82.51 113.45,23.59 237.22,39.79 253.43,32.42 16.2,-7.37 -163.56,-234.27 -247.54,-324.15 -27.99,-19.15 -66.3,16.21 -66.3,16.21 -79.56,-82.51 -169.45,-113.45 -184.17,-116.4 -14.74,-2.94 -22.11,88.4 -23.59,142.93 -1.47,54.51 8.21,65.13 -36.82,86.92 -139.98,67.79 -92.82,79.56 -92.82,79.56"
         style="fill:#55c2e1;fill-opacity:1;fill-rule:nonzero;stroke:none"
         id="path94" /><path
         d="m 2796.75,3341.28 c -2.19,0 -4.21,1.46 -4.82,3.68 -0.72,2.67 0.85,5.42 3.51,6.14 7.39,2.69 34.28,46.24 53.91,78.04 21.1,34.18 41.03,66.46 52.91,78.33 22.36,22.37 228.46,163.06 315.95,222.27 L 2789.77,3559.7 c -2.56,-1.01 -5.47,0.24 -6.5,2.8 -1.01,2.57 0.24,5.47 2.8,6.49 l 471.49,187.12 c 2.47,1 5.31,-0.16 6.41,-2.6 1.09,-2.45 0.06,-5.32 -2.33,-6.52 -14.56,-7.72 -328.92,-223.2 -352.31,-246.59 -11.05,-11.05 -31.6,-44.33 -51.47,-76.51 -34.13,-55.29 -50.11,-79.79 -59.78,-82.43 -0.45,-0.12 -0.89,-0.18 -1.33,-0.18"
         style="fill:#100f0d;fill-opacity:1;fill-rule:nonzero;stroke:none"
         id="path96" /><path
         d="m 2989.76,3451.78 c -1.02,0 -2.05,0.31 -2.94,0.96 l -2.16,1.58 c -30.21,22.08 -67.81,49.64 -76.63,45.14 -2.47,-1.22 -5.47,-0.23 -6.71,2.24 -1.24,2.47 -0.24,5.47 2.23,6.71 13.61,6.79 40.57,-12.06 87.02,-46.02 l 2.14,-1.57 c 2.24,-1.64 2.72,-4.77 1.09,-6.99 -0.98,-1.34 -2.5,-2.05 -4.04,-2.05"
         style="fill:#100f0d;fill-opacity:1;fill-rule:nonzero;stroke:none"
         id="path98" /><path
         d="m 3374.29,2645.46 c -56.66,-5.19 -88.84,-40.39 -83.16,-140.55 5.67,-100.18 -17.02,-203.58 22.68,-242.33 39.7,-38.79 139.85,-38.81 232.48,-40.41 92.62,-1.6 212.57,1.11 248.09,1.62 83.63,1.21 113.39,15.74 124.74,81.19 6.68,38.52 -9.35,255.83 -9.92,278.68 -1.43,56.95 -38.28,64.23 -119.08,67.86 -77.47,3.49 -362.9,-1.21 -415.83,-6.06"
         style="fill:#f8a218;fill-opacity:1;fill-rule:nonzero;stroke:none"
         id="path100" /><path
         d="m 3601.81,2380.26 c -0.37,0 -0.75,0.01 -1.12,0.01 -39.86,0.6 -72.28,34.14 -96.07,63.3 -43.95,53.92 -142.84,164.45 -166.87,185 -2.1,1.79 -2.35,4.95 -0.55,7.05 1.78,2.1 4.94,2.33 7.04,0.55 24.35,-20.81 123.96,-132.1 168.14,-186.27 22.41,-27.48 52.72,-59.09 88.46,-59.63 25.57,-0.16 52.29,15.35 79.49,46.73 74.87,86.38 185.98,195.19 187.09,196.28 1.99,1.93 5.16,1.89 7.07,-0.08 1.94,-1.97 1.9,-5.14 -0.08,-7.07 -1.11,-1.09 -111.92,-109.61 -186.52,-195.67 -29.25,-33.76 -57.43,-50.2 -86.08,-50.2"
         style="fill:#100f0d;fill-opacity:1;fill-rule:nonzero;stroke:none"
         id="path102" /><path
         d="m 3313.81,2257.58 c -1.84,0 -3.6,1.01 -4.48,2.77 -1.23,2.47 -0.22,5.47 2.25,6.7 13,6.48 79.3,69.05 127.7,114.74 40.1,37.85 63.05,59.43 68.49,62.75 2.36,1.45 5.43,0.7 6.87,-1.66 1.44,-2.35 0.7,-5.43 -1.66,-6.87 -4.8,-2.94 -34.93,-31.38 -66.84,-61.5 -65.59,-61.91 -116.82,-109.8 -130.1,-116.4 -0.72,-0.37 -1.48,-0.53 -2.23,-0.53"
         style="fill:#100f0d;fill-opacity:1;fill-rule:nonzero;stroke:none"
         id="path104" /><path
         d="m 3878.98,2241.41 c -1.7,0 -3.37,0.88 -4.31,2.47 -3.19,5.42 -40.43,45.77 -76.45,84.79 -47.55,51.51 -96.71,104.76 -104.15,116.57 -1.47,2.34 -0.77,5.43 1.56,6.9 2.36,1.48 5.43,0.75 6.9,-1.56 6.95,-11.04 58,-66.34 103.04,-115.13 45.88,-49.7 74.18,-80.46 77.73,-86.51 1.4,-2.39 0.6,-5.44 -1.79,-6.85 -0.79,-0.46 -1.66,-0.68 -2.53,-0.68"
         style="fill:#100f0d;fill-opacity:1;fill-rule:nonzero;stroke:none"
         id="path106" /><g
         id="g108"><g
           id="g110"
           clip-path="url(#clipPath114)"><path
             d="m 5674.16,3908.33 c -27.5,116.67 -280.84,266.66 -389.17,224.99 -108.33,-41.66 30,-89.99 30,-89.99 -166.66,30 -246.66,10.01 -263.33,-31.67 -16.67,-41.66 53.33,-58.33 53.33,-58.33 C 4991.66,3950 4865,3861.66 4883.33,3800 c 18.33,-61.67 93.33,-39.17 93.33,-39.17 -106.67,-85.83 -89.27,-173.12 22.03,-162.81 C 4881.66,3510 4865.01,3348.33 4910,3290 c 44.99,-58.34 88.67,29.96 88.67,29.96 -47.01,-129.96 22.98,-214.96 89.65,-106.63 -14.99,-148.33 116.67,-168.33 158.34,-95 40,-141.67 135,-120 151.67,-50 51.67,-65 153.33,-43.33 173.33,26.67 56.67,-66.67 106.67,-5.83 101.67,45.83 58.33,-68.33 150,-76.66 168.33,47.5 83.33,-61.67 125,-60 102.5,87.5 139.17,-50.83 212.5,104.17 52.5,237.5 106.67,-28.33 95,81.67 -57.5,147.5 107.5,2.5 120.83,75.84 67.5,130 -53.33,54.17 -143.33,159.17 -332.5,117.5"
             style="fill:#100f0d;fill-opacity:1;fill-rule:nonzero;stroke:none"
             id="path116" /><path
             d="m 5144.45,3623.64 c -16.28,-97.69 12.67,-126.66 41.61,-195.41 28.96,-68.75 -11.52,-141.2 65.6,-227.05 71.91,-80.06 180.47,-75.09 180.47,-75.09 l 30.75,-124.84 265.97,68.76 -57.89,250.58 c 0,0 54.27,29.84 37.99,136.6 -16.28,106.75 -18.09,370.89 -276.82,331.09 -258.73,-39.79 -264.15,-86.83 -287.68,-164.64"
             style="fill:#ffffff;fill-opacity:1;fill-rule:nonzero;stroke:none"
             id="path118" /><path
             d="m 5432.13,3131.09 c 2.28,0 4.31,-1.56 4.85,-3.8 l 29.54,-119.93 256.36,66.27 -56.8,245.83 c -0.49,2.18 0.51,4.43 2.46,5.51 0.5,0.27 50.96,29.91 35.46,131.47 -1.67,10.95 -3.19,23.57 -4.85,37.34 -13.22,109.79 -35.36,293.55 -216.98,293.55 -15.49,0 -32.07,-1.34 -49.28,-3.99 -246.87,-37.97 -259.83,-81.4 -281.32,-153.35 l -2.33,-7.79 c -12.7,-76.45 3,-109.53 24.72,-155.3 5.42,-11.41 11.02,-23.2 16.71,-36.73 11.15,-26.46 12.3,-52.8 13.52,-80.69 1.98,-45.45 4.03,-92.46 51.19,-144.96 62.83,-69.94 155.11,-73.48 172.97,-73.48 4.81,0 3.63,0.05 3.78,0.05 z m 30.75,-134.84 c -0.9,0 -1.78,0.24 -2.56,0.71 -1.15,0.68 -1.97,1.79 -2.29,3.09 l -29.81,120.99 c -18.89,0.01 -114.75,3.86 -180.28,76.8 -49.55,55.17 -51.78,106.19 -53.74,151.21 -1.18,26.96 -2.3,52.43 -12.74,77.24 -5.61,13.32 -11.16,25.01 -16.53,36.32 -21.66,45.64 -38.77,81.68 -25.41,161.85 l 2.47,8.39 c 22.61,75.73 36.25,121.44 289.38,160.37 17.71,2.73 34.8,4.11 50.8,4.11 190.49,0 213.29,-189.27 226.91,-302.35 1.64,-13.66 3.15,-26.17 4.81,-37.04 14.48,-94.92 -25.25,-131.05 -37.28,-139.63 l 57.11,-247.17 c 0.61,-2.64 -1,-5.29 -3.62,-5.97 l -265.97,-68.76 c -0.41,-0.11 -0.83,-0.16 -1.25,-0.16"
             style="fill:#100f0d;fill-opacity:1;fill-rule:nonzero;stroke:none"
             id="path120" /><path
             d="m 5770.37,3548.37 c -9.03,54.52 -20.11,106.09 -48.29,154.67 -17.38,29.95 -33.07,60.78 -62.45,80.74 -82.53,56.09 -193.67,52.73 -287.59,33.25 -74.59,-15.48 -157.62,-41.91 -215.42,-93.33 -19.21,-17.08 -97,-94.63 -46.62,-117.03 29.5,-13.13 62.01,14.72 84.26,33.51 1,-2.83 2.59,-5.87 4.9,-9.35 15,-22.5 52.5,-25 77.5,-20 65,10 127.5,52.5 175,100 -10,-15 -22.5,-35 -17.5,-55 10,-22.5 32.5,-25 52.5,-25 42.5,2.5 82.5,37.5 112.5,65 -25,-47.5 -52.5,-95 -55,-150 -2.5,-25 0,-52.5 10,-75 12.5,-30 40,-30 65,-12.5 -12.5,-40 -20,-77.5 -2.5,-117.5 10.43,-23.84 43.33,-64.17 89.17,-55.83 36.61,6.65 43.39,92.52 56.66,122.5 24.77,55.94 17.96,79.97 7.88,140.87"
             style="fill:#100f0d;fill-opacity:1;fill-rule:nonzero;stroke:none"
             id="path122" /><path
             d="m 5094.33,3588.71 c -22.39,0 -44.04,7.96 -50.07,30.66 -3.52,13.19 -1.43,29.17 1.7,39.74 6.06,20.58 24.76,49.71 41.68,64.93 2.03,1.85 5.19,1.69 7.06,-0.37 1.84,-2.05 1.68,-5.22 -0.38,-7.06 -15.48,-13.94 -33.24,-41.57 -38.77,-60.34 -2.75,-9.26 -4.61,-23.14 -1.62,-34.33 7.51,-28.21 47.35,-23.3 55.27,-22.01 23.71,3.82 41.29,9.25 55.32,17.1 2.4,1.33 5.46,0.48 6.81,-1.93 1.35,-2.41 0.49,-5.46 -1.93,-6.8 -15.08,-8.44 -33.71,-14.23 -58.62,-18.24 -5.38,-0.87 -10.94,-1.35 -16.45,-1.35"
             style="fill:#ffffff;fill-opacity:1;fill-rule:nonzero;stroke:none"
             id="path124" /><path
             d="m 5358.22,3295.02 c -0.09,0 -0.18,0 -0.27,0.01 -32.9,1.82 -53.46,9.42 -62.86,23.25 -11.68,17.18 -4.22,39.6 3.01,61.28 1.4,4.23 2.81,8.45 4.05,12.58 11.08,36.96 -14.3,81.57 -42.57,107.38 -22.31,20.37 -50.76,24.2 -69.04,18.97 -10.38,-2.97 -17.51,-8.82 -19.55,-16.07 -0.76,-2.65 -3.47,-4.2 -6.18,-3.46 -2.65,0.76 -4.19,3.52 -3.45,6.18 3.01,10.66 12.63,19.03 26.43,22.97 20.97,6 53.38,1.76 78.53,-21.21 31.53,-28.78 57.79,-76.31 45.4,-117.63 -1.26,-4.23 -2.7,-8.54 -4.14,-12.87 -6.45,-19.37 -13.12,-39.41 -4.22,-52.49 7.42,-10.93 25.98,-17.28 55.14,-18.9 2.76,-0.15 4.87,-2.51 4.71,-5.27 -0.14,-2.66 -2.35,-4.72 -4.99,-4.72"
             style="fill:#100f0d;fill-opacity:1;fill-rule:nonzero;stroke:none"
             id="path126" /><path
             d="m 5342.92,3516.04 c -1.09,0 -2.19,0.36 -3.11,1.08 -2.16,1.72 -2.52,4.87 -0.81,7.03 17.46,22.05 68.03,67.67 160.15,15.22 2.4,-1.36 3.24,-4.41 1.88,-6.82 -1.37,-2.39 -4.43,-3.23 -6.82,-1.87 -82.31,46.85 -127.65,12.13 -147.37,-12.74 -0.99,-1.25 -2.45,-1.9 -3.92,-1.9"
             style="fill:#100f0d;fill-opacity:1;fill-rule:nonzero;stroke:none"
             id="path128" /><path
             d="m 5460.39,3438.75 c 8.37,-15.63 7.97,-32.18 -0.94,-36.95 -8.89,-4.79 -22.93,4.01 -31.32,19.65 -8.39,15.6 -7.94,32.15 0.93,36.91 8.92,4.78 22.93,-3.99 31.33,-19.61"
             style="fill:#100f0d;fill-opacity:1;fill-rule:nonzero;stroke:none"
             id="path130" /><path
             d="m 5435.2,3450.92 c -0.81,0 -1.61,0.19 -2.36,0.58 l -28.31,15.08 c -2.43,1.3 -3.36,4.33 -2.06,6.76 1.31,2.45 4.35,3.34 6.77,2.07 l 28.31,-15.08 c 2.43,-1.3 3.36,-4.32 2.06,-6.76 -0.9,-1.69 -2.63,-2.65 -4.41,-2.65"
             style="fill:#100f0d;fill-opacity:1;fill-rule:nonzero;stroke:none"
             id="path132" /><path
             d="m 5271.78,3422.46 c 8.36,-15.62 7.96,-32.17 -0.95,-36.95 -8.89,-4.78 -22.93,4.02 -31.31,19.66 -8.4,15.6 -7.96,32.15 0.93,36.91 8.92,4.78 22.93,-3.98 31.33,-19.62"
             style="fill:#100f0d;fill-opacity:1;fill-rule:nonzero;stroke:none"
             id="path134" /><path
             d="m 5246.58,3434.64 c -0.8,0 -1.6,0.19 -2.35,0.58 l -28.31,15.08 c -2.43,1.3 -3.36,4.33 -2.06,6.77 1.3,2.44 4.34,3.34 6.77,2.06 l 28.31,-15.08 c 2.43,-1.3 3.35,-4.32 2.06,-6.76 -0.9,-1.69 -2.63,-2.65 -4.42,-2.65"
             style="fill:#100f0d;fill-opacity:1;fill-rule:nonzero;stroke:none"
             id="path136" /><path
             d="m 5338.75,3268.68 c 15.99,-31.09 35.08,-48.72 53.07,-48.72 25.79,0 46.22,35.26 53.2,90.76 -62.68,-39.89 -83.66,-43.64 -106.27,-42.04 z m 53.07,-58.72 c -23.86,0 -47.3,22.15 -65.99,62.38 -0.76,1.63 -0.59,3.54 0.46,5.01 1.03,1.46 2.75,2.25 4.57,2.08 5.12,-0.51 10.41,-1.04 15.6,-1.04 19.3,0 42.16,7.59 101.94,46.39 1.61,1.05 3.66,1.07 5.31,0.09 1.64,-0.99 2.57,-2.83 2.39,-4.74 -6.25,-67.96 -30.88,-110.17 -64.28,-110.17"
             style="fill:#100f0d;fill-opacity:1;fill-rule:nonzero;stroke:none"
             id="path138" /><path
             d="m 5377.85,3213.82 c -0.43,0 -0.88,0.05 -1.32,0.17 -2.66,0.73 -4.23,3.48 -3.5,6.15 8.81,32.31 44.7,56.45 68.32,55.06 2.75,-0.18 4.85,-2.55 4.68,-5.31 -0.18,-2.75 -2.31,-4.85 -5.31,-4.68 -20.1,1.29 -50.62,-20.53 -58.04,-47.71 -0.61,-2.22 -2.63,-3.68 -4.83,-3.68"
             style="fill:#100f0d;fill-opacity:1;fill-rule:nonzero;stroke:none"
             id="path140" /><path
             d="m 4776.73,2363.96 c 47.49,46.12 274.1,346 362.3,453.21 88.2,107.2 189.97,109.91 328.38,111.27 -34.08,136.56 -25.03,139.58 -18.24,138.23 6.78,-1.36 136.08,-29.57 265,60 34.16,9.16 32.77,-127.68 65.34,-145.31 32.56,-17.65 249.67,27.14 356.88,-80.07 107.19,-107.19 181.82,-360.94 181.82,-360.94 -58.35,-93.63 -454.58,-388.07 -952.57,-252.39 -9.5,42.07 -77.35,107.21 -97.7,189.97 -84.13,-109.91 -143.84,-191.32 -143.84,-191.32 0,0 -267.31,17.64 -347.37,77.35"
             style="fill:#f8a218;fill-opacity:1;fill-rule:nonzero;stroke:none"
             id="path142" /><path
             d="m 5571.25,2887.31 c -54.52,0 -92.51,22.05 -107.45,37.67 -1.91,2 -1.84,5.16 0.16,7.07 1.99,1.91 5.15,1.83 7.07,-0.16 28.03,-29.31 143.06,-81.97 298.37,55.91 2.07,1.84 5.23,1.66 7.06,-0.42 1.84,-2.06 1.65,-5.22 -0.42,-7.06 -80.29,-71.29 -150.69,-93.01 -204.79,-93.01"
             style="fill:#100f0d;fill-opacity:1;fill-rule:nonzero;stroke:none"
             id="path144" /><path
             d="m 5542.5,2888.59 c -2.15,0 -4.13,1.39 -4.79,3.55 -1.8,5.95 -44.44,146.05 -48.93,165.9 -0.62,2.69 1.07,5.37 3.77,5.98 2.7,0.61 5.36,-1.08 5.98,-3.77 4.42,-19.49 48.31,-163.75 48.76,-165.2 0.8,-2.64 -0.69,-5.44 -3.33,-6.24 -0.49,-0.15 -0.98,-0.22 -1.46,-0.22"
             style="fill:#100f0d;fill-opacity:1;fill-rule:nonzero;stroke:none"
             id="path146" /><path
             d="m 5601.29,2889.5 c -2.13,0 -4.1,1.37 -4.78,3.51 l -52.46,167.35 c -0.82,2.63 0.65,5.44 3.28,6.27 2.63,0.8 5.44,-0.65 6.27,-3.28 L 5606.06,2896 c 0.82,-2.64 -0.64,-5.44 -3.28,-6.27 -0.49,-0.15 -0.99,-0.23 -1.49,-0.23"
             style="fill:#100f0d;fill-opacity:1;fill-rule:nonzero;stroke:none"
             id="path148" /><path
             d="m 5662.81,2907.6 c -2.1,0 -4.06,1.34 -4.75,3.44 l -52.47,160.12 c -0.86,2.62 0.57,5.45 3.2,6.31 2.57,0.86 5.44,-0.58 6.31,-3.2 l 52.47,-160.11 c 0.86,-2.63 -0.58,-5.45 -3.2,-6.31 -0.52,-0.17 -1.04,-0.25 -1.56,-0.25"
             style="fill:#100f0d;fill-opacity:1;fill-rule:nonzero;stroke:none"
             id="path150" /><path
             d="m 5718.91,2936.54 c -2.16,0 -4.15,1.41 -4.8,3.59 l -44.33,150.16 c -0.79,2.65 0.73,5.43 3.37,6.21 2.64,0.8 5.43,-0.72 6.22,-3.38 l 44.33,-150.16 c 0.78,-2.65 -0.73,-5.43 -3.38,-6.21 -0.47,-0.14 -0.94,-0.21 -1.41,-0.21"
             style="fill:#100f0d;fill-opacity:1;fill-rule:nonzero;stroke:none"
             id="path152" /><path
             d="m 5433.57,3120.16 c -0.53,0 -1.06,0.01 -1.58,0.02 -2.75,0.06 -4.94,2.36 -4.87,5.12 0.07,2.76 2.08,4.89 5.13,4.88 35.43,-1.24 130.65,29.87 191.39,104.9 1.74,2.15 4.89,2.47 7.03,0.74 2.15,-1.74 2.48,-4.89 0.75,-7.03 -62.04,-76.62 -159.73,-108.63 -197.85,-108.63"
             style="fill:#100f0d;fill-opacity:1;fill-rule:nonzero;stroke:none"
             id="path154" /><path
             d="m 5286.93,2422.72 c -1.92,0 -3.75,1.12 -4.58,2.99 -33.11,75.3 -35.69,150.41 -35.69,171.63 0,2.77 2.24,5 5,5 2.76,0 5,-2.23 5,-5 0,-14.76 1.68,-92.2 34.85,-167.6 1.12,-2.53 -0.04,-5.48 -2.56,-6.6 -0.66,-0.28 -1.34,-0.42 -2.02,-0.42"
             style="fill:#100f0d;fill-opacity:1;fill-rule:nonzero;stroke:none"
             id="path156" /><path
             d="m 6015.62,2327.74 c -2.17,0 -4.16,1.42 -4.8,3.6 -0.45,1.53 -44.98,153.92 -63.74,211.53 -0.85,2.62 0.59,5.44 3.2,6.3 2.68,0.84 5.45,-0.59 6.31,-3.21 18.81,-57.74 63.38,-210.28 63.82,-211.81 0.78,-2.66 -0.74,-5.43 -3.39,-6.2 -0.47,-0.14 -0.95,-0.21 -1.4,-0.21"
             style="fill:#100f0d;fill-opacity:1;fill-rule:nonzero;stroke:none"
             id="path158" /><path
             d="m 5687.76,3276.21 c -15.5,0 -33.4,5.14 -52.58,15.19 -2.45,1.28 -3.39,4.3 -2.11,6.75 1.29,2.46 4.33,3.38 6.75,2.11 22.83,-11.96 43.31,-16.43 59.09,-12.89 37.19,8.46 52.64,73.63 52.64,106.64 0,2.14 1.37,4.05 3.39,4.74 2.02,0.68 4.27,0 5.58,-1.69 17.01,-22.12 37.02,-32.43 62.98,-32.43 25.33,1.7 49.8,29.73 52.95,51.79 0.4,2.73 2.98,4.67 5.65,4.24 2.73,-0.39 4.64,-2.92 4.25,-5.66 -3.74,-26.24 -31.87,-58.32 -62.52,-60.36 -0.01,0 -0.03,0 -0.04,0 -25.02,0 -45.6,8.7 -62.79,26.54 -3.44,-40.93 -22.71,-95.12 -59.9,-103.56 -4.21,-0.94 -8.66,-1.41 -13.34,-1.41"
             style="fill:#ffffff;fill-opacity:1;fill-rule:nonzero;stroke:none"
             id="path160" /></g></g><path
         d="m 5301.54,4513.44 c -170.12,0 -362.36,-22.34 -571.35,-66.39 -441.8,-93.14 -890.31,-271.36 -867.06,-887.06 23.62,-625.62 254.46,-998.07 705.72,-1138.66 207.15,-64.54 563.54,-129.67 892.8,-129.68 0.04,0 0.08,0 0.11,0 296.87,0 676.89,52.06 801.65,300.06 125.59,249.67 147.29,537.25 143.38,734.54 -4.5,226.43 -46.31,456.3 -109.12,599.9 -70.27,160.62 -256.91,587.29 -996.13,587.29 z m 160.22,-2231.79 c -0.05,0 -0.06,0 -0.11,0 -352.93,0.01 -703.12,70.11 -895.77,130.13 -455.81,142 -688.95,517.46 -712.75,1147.83 -11.05,292.97 88.9,519.26 297.11,672.59 172.35,126.93 388.84,184.78 577.88,224.63 209.67,44.19 402.6,66.61 573.42,66.61 308.04,0 554.64,-72.71 732.97,-216.09 146.73,-117.97 222.61,-263.55 272.32,-377.19 63.31,-144.73 105.44,-376.06 109.96,-603.71 3.93,-198.42 -17.93,-487.73 -144.46,-739.23 -127.03,-252.53 -510.89,-305.57 -810.57,-305.57"
         style="fill:#100f0d;fill-opacity:1;fill-rule:nonzero;stroke:none"
         id="path162" /><path
         d="m 4300.35,4005.5 h -392 c -68.14,0 -120.21,-58.61 -116.05,-129.46 l 10.57,-180.1 c 3.84,-65.64 58.83,-117.12 122.59,-116.15 l 283.63,4.27 c 14.81,-44.01 25.65,-86.83 54.02,-84.74 20.3,1.99 28.99,44.93 34.77,86.35 59.49,3.69 108.48,54.39 110.71,116.9 l 6.38,176.3 c 2.51,69.33 -48.67,126.63 -114.62,126.63"
         style="fill:#ffffff;fill-opacity:1;fill-rule:nonzero;stroke:none"
         id="path164" /><path
         d="m 4209.09,3589.06 c 2.15,0 4.05,-1.36 4.74,-3.41 1.48,-4.39 2.92,-8.78 4.34,-13.11 12.35,-37.58 23.2,-69.89 44.56,-68.24 19.01,1.87 27.13,60.13 30.2,82.07 0.33,2.35 2.27,4.15 4.64,4.29 57.33,3.56 103.9,52.79 106.02,112.09 l 6.38,176.3 c 1.21,33.32 -10.8,65.61 -32.95,88.57 -20.45,21.2 -47.67,32.88 -76.67,32.88 h -392 c -30.34,0 -58.53,-12.17 -79.38,-34.27 -22.1,-23.45 -33.65,-56.22 -31.68,-89.9 l 10.57,-180.1 c 3.6,-61.45 55.55,-111.45 115.82,-111.45 l 1.7,0.01 283.63,4.27 c 0.03,0 0.05,0 0.08,0 z m 52.04,-94.82 c -27.78,0 -39.22,34.85 -52.46,75.18 -1.04,3.18 -2.09,6.38 -3.16,9.59 l -281.83,-4.23 c -66.58,0 -121.83,53.09 -125.8,120.86 l -10.57,180.1 c -2.13,36.42 10.4,71.91 34.39,97.35 22.75,24.13 53.52,37.41 86.65,37.41 h 392 c 31.73,0 61.52,-12.76 83.87,-35.94 24.02,-24.9 37.05,-59.85 35.75,-95.87 l -6.38,-176.3 c -2.25,-62.97 -50.8,-115.49 -111.32,-121.38 -6.36,-44.17 -15.67,-84.41 -38.68,-86.67 -0.9,-0.07 -1.69,-0.1 -2.46,-0.1"
         style="fill:#100f0d;fill-opacity:1;fill-rule:nonzero;stroke:none"
         id="path166" /><path
         d="m 3983.86,3787.14 c 0,-21.73 -17.21,-39.35 -38.43,-39.35 -21.23,0 -38.44,17.62 -38.44,39.35 0,21.74 17.21,39.35 38.44,39.35 21.22,0 38.43,-17.61 38.43,-39.35"
         style="fill:#55c2e1;fill-opacity:1;fill-rule:nonzero;stroke:none"
         id="path168" /><path
         d="m 4135.79,3787.14 c 0,-21.73 -17.21,-39.35 -38.44,-39.35 -21.22,0 -38.43,17.62 -38.43,39.35 0,21.74 17.21,39.35 38.43,39.35 21.23,0 38.44,-17.61 38.44,-39.35"
         style="fill:#55c2e1;fill-opacity:1;fill-rule:nonzero;stroke:none"
         id="path170" /><path
         d="m 4287.71,3787.14 c 0,-21.73 -17.2,-39.35 -38.42,-39.35 -21.24,0 -38.45,17.62 -38.45,39.35 0,21.74 17.21,39.35 38.45,39.35 21.22,0 38.42,-17.61 38.42,-39.35"
         style="fill:#55c2e1;fill-opacity:1;fill-rule:nonzero;stroke:none"
         id="path172" /><path
         d="m 5561.11,618.82 h -389.22 c -2.76,0 -5,2.231 -5,5 0,2.762 2.24,5 5,5 h 389.22 c 2.77,0 5,-2.238 5,-5 0,-2.769 -2.23,-5 -5,-5"
         style="fill:#100f0d;fill-opacity:1;fill-rule:nonzero;stroke:none"
         id="path174" /><path
         d="m 4410.82,2035.55 c -115.34,55.62 -137.05,180.47 31.21,227.96 -118.06,145.19 1.35,229.32 81.42,245.61 80.06,16.28 238.82,-24.43 392.15,-156.05 153.34,-131.62 219.83,-138.41 265.96,-241.54 46.14,-103.13 24.43,-183.19 -21.72,-287.67 -46.13,-104.49 -51.56,-137.05 38,-221.18 89.56,-84.14 162.83,-168.27 100.42,-327.03 -62.42,-158.76 -808.74,-100.41 -844.02,8.15 -35.28,108.55 48.85,506.14 48.85,506.14 l -92.27,245.61"
         style="fill:#100f0d;fill-opacity:1;fill-rule:nonzero;stroke:none"
         id="path176" /><path
         d="m 4325.33,1385.57 c -17.64,77.34 2.84,254.93 157.4,343.31 112.74,64.46 172.34,-25.79 172.34,-25.79 l 17.64,-297.17 c 0,0 -309.39,-21.71 -347.38,-20.35"
         style="fill:#100f0d;fill-opacity:1;fill-rule:nonzero;stroke:none"
         id="path178" /><path
         d="m 3456.88,1832 c -13.56,19 -33.88,44.99 -52.88,31.42 -18.99,-13.57 11.25,-123.75 96.31,-110.12 -21.72,32.56 -43.43,78.7 -43.43,78.7"
         style="fill:#ffffff;fill-opacity:1;fill-rule:nonzero;stroke:none"
         id="path180" /><path
         d="m 3415.13,1862.19 c -2.86,0 -5.55,-0.93 -8.22,-2.84 -3.72,-2.65 -5.46,-16.94 0.92,-36.86 10.11,-31.59 35.98,-65.35 78.22,-65.35 h 0.01 c 1.86,0 3.76,0.07 5.67,0.19 -20.13,31.79 -39.17,72.11 -39.37,72.54 -6.62,9.13 -23.18,32.32 -37.23,32.32 z m 70.93,-115.05 h -0.01 c -47.67,0 -77.07,38.95 -87.75,72.3 -5.54,17.29 -8.12,40.25 2.8,48.05 4.36,3.12 9.09,4.7 14.03,4.7 16.87,0 31.99,-17.92 45.82,-37.28 0.68,-1.24 22.27,-46.97 43.52,-78.84 0.95,-1.41 1.11,-3.21 0.42,-4.77 -0.68,-1.56 -2.11,-2.67 -3.79,-2.94 -5.08,-0.81 -10.14,-1.22 -15.04,-1.22"
         style="fill:#100f0d;fill-opacity:1;fill-rule:nonzero;stroke:none"
         id="path182" /><path
         d="m 3697.06,1819.79 c -46.13,14.93 -75.99,51.56 -61.05,81.42 14.92,29.84 63.77,-9.5 97.69,-36.64 33.93,-27.14 66.5,-32.57 66.5,-32.57 0,0 -50.22,-25.78 -103.14,-12.21"
         style="fill:#ffffff;fill-opacity:1;fill-rule:nonzero;stroke:none"
         id="path184" /><path
         d="m 3653.1,1906.89 c -5.91,0 -9.92,-2.52 -12.62,-7.92 -4.42,-8.82 -4.5,-18.45 -0.24,-28.61 8.06,-19.22 30.42,-36.78 58.36,-45.82 9.51,-2.42 19.95,-3.7 30.75,-3.7 22.7,0 42.87,5.63 55.36,10.13 -13.08,4.33 -33.3,13.03 -54.13,29.69 -24.76,19.82 -57.79,46.23 -77.48,46.23 z m 76.25,-96.05 c -11.64,0 -22.91,1.38 -33.53,4.1 -30.93,10 -55.64,29.73 -64.8,51.55 -5.36,12.79 -5.18,25.56 0.51,36.96 4.4,8.8 11.86,13.44 21.57,13.44 23.2,0 56.4,-26.56 83.08,-47.9 33.05,-26.43 64.53,-32.01 64.85,-32.06 2.11,-0.36 3.77,-2.04 4.11,-4.17 0.32,-2.13 -0.75,-4.22 -2.66,-5.2 -1.33,-0.69 -33.02,-16.72 -73.13,-16.72"
         style="fill:#100f0d;fill-opacity:1;fill-rule:nonzero;stroke:none"
         id="path186" /><path
         d="m 3745.47,1403.19 c -3.61,79.62 -12.66,238.83 -25.32,289.49 -12.68,50.66 -92.3,36.21 -97.72,38 -5.42,1.81 -104.48,-35.73 -153.33,63.32 -48.86,99.07 -9.5,135.71 17.64,126.21 9.5,32.56 36.64,23.06 51.56,6.78 13.58,28.5 52.92,-1.37 62.42,-38 9.5,-36.64 19,-69.2 94.98,-59.7 76,9.5 169.62,31.21 206.26,-78.7 36.64,-109.92 66.5,-280.89 66.5,-280.89 0,0 -14.47,-108.58 -222.99,-66.51"
         style="fill:#ffffff;fill-opacity:1;fill-rule:nonzero;stroke:none"
         id="path188" /><path
         d="m 3750.28,1407.33 c 30.06,-5.86 57.68,-8.82 82.15,-8.82 113.78,0 129.53,63.85 130.95,71.18 -2.34,13.17 -31.38,174.97 -66.16,279.31 -24.7,74.09 -75.57,83.59 -117.12,83.59 -21.97,0 -44.72,-3.06 -66.72,-6.02 -5.76,-0.78 -11.46,-1.54 -17.06,-2.24 -9.06,-1.14 -17.5,-1.71 -25.1,-1.71 -58.45,0 -67.42,34.6 -75.34,65.11 -6.66,25.69 -27.75,45.61 -41.45,45.61 -5.09,0 -8.89,-2.78 -11.62,-8.5 -0.71,-1.5 -2.13,-2.55 -3.77,-2.79 -1.67,-0.26 -3.3,0.33 -4.43,1.56 -7.53,8.22 -17.08,13.32 -24.93,13.32 -8.53,0 -14.63,-6.1 -18.14,-18.12 -0.39,-1.32 -1.3,-2.42 -2.52,-3.05 -1.22,-0.63 -2.65,-0.71 -3.93,-0.27 -9.81,3.41 -20.8,-1.08 -27.18,-11.35 -6.3,-10.13 -17.37,-40.91 15.67,-107.93 21.62,-43.82 56.13,-66.03 102.6,-66.03 16.16,0 29.76,2.71 37.88,4.33 3.85,0.77 6.17,1.24 7.82,1.24 0.53,0 1.62,-0.15 2.13,-0.32 1.86,0.09 3.91,0.19 6.47,0.33 4.42,0.23 10.26,0.53 16.85,0.53 44.5,0 70.63,-14.27 77.67,-42.4 13.6,-54.42 22.59,-228.19 25.28,-286.56 z m 82.15,-18.82 c -26.17,0 -55.76,3.29 -87.95,9.78 -2.25,0.46 -3.9,2.38 -4.01,4.68 -2.44,53.83 -11.48,233.7 -25.17,288.49 -5.79,23.11 -28.65,34.83 -67.97,34.83 -6.39,0 -12.05,-0.29 -16.33,-0.52 -4.96,-0.25 -7.7,-0.36 -9.38,-0.04 -1.08,-0.08 -2.99,-0.51 -5.6,-1.02 -8.49,-1.7 -22.69,-4.53 -39.84,-4.53 -49.88,0 -88.46,24.76 -111.56,71.62 -34,68.93 -24.12,103.28 -15.21,117.61 7.86,12.64 21.09,19.05 34.07,16.79 6.89,17.91 19.16,20.73 26.2,20.73 9.05,0 19.06,-4.4 27.67,-12.01 4.35,5.47 10.24,8.42 17.08,8.42 19.9,0 43.8,-24.81 51.13,-53.09 8.02,-30.92 14.95,-57.63 65.66,-57.63 7.18,0 15.21,0.54 23.86,1.63 5.57,0.69 11.24,1.45 16.97,2.22 22.32,3.01 45.4,6.12 68.05,6.12 41.4,0 99.59,-9.38 126.61,-90.42 36.34,-109.01 66.38,-279.89 66.67,-281.61 0.09,-0.5 0.1,-1.02 0.03,-1.53 -0.11,-0.8 -12.24,-80.52 -140.98,-80.52"
         style="fill:#100f0d;fill-opacity:1;fill-rule:nonzero;stroke:none"
         id="path190" /><path
         d="m 3507.75,1740.92 c -1.07,0 -2.14,0.34 -3.05,1.04 -30.73,23.74 -51.11,59.22 -60.59,105.45 -0.56,2.71 1.18,5.35 3.89,5.91 2.74,0.55 5.35,-1.19 5.9,-3.9 8.99,-43.81 28.14,-77.31 56.91,-99.55 2.19,-1.69 2.59,-4.82 0.9,-7.01 -0.98,-1.28 -2.46,-1.94 -3.96,-1.94"
         style="fill:#100f0d;fill-opacity:1;fill-rule:nonzero;stroke:none"
         id="path192" /><path
         d="m 3636.01,1759.15 c -0.07,0 -0.15,0 -0.22,0 -27.95,1.22 -51.1,13.17 -68.8,35.54 -33.86,42.78 -37.7,111.71 -33.6,133.24 0.51,2.7 3.1,4.51 5.85,3.97 2.71,-0.51 4.49,-3.13 3.97,-5.85 -3.72,-19.54 0.21,-85.47 31.62,-125.15 15.82,-19.99 36.47,-30.68 61.39,-31.75 2.76,-0.13 4.9,-2.46 4.78,-5.21 -0.12,-2.69 -2.33,-4.79 -4.99,-4.79"
         style="fill:#100f0d;fill-opacity:1;fill-rule:nonzero;stroke:none"
         id="path194" /><path
         d="m 3583.09,1722.52 c -0.14,0 -0.28,0.01 -0.42,0.02 -26.12,2.18 -47.92,14.35 -64.79,36.19 -39.92,51.68 -39.69,141.52 -36.07,162.33 0.48,2.73 3.05,4.59 5.79,4.07 2.72,-0.47 4.54,-3.06 4.07,-5.78 -3.46,-19.86 -3.75,-105.47 34.13,-154.51 15.08,-19.52 34.49,-30.41 57.7,-32.34 2.75,-0.22 4.8,-2.65 4.57,-5.4 -0.22,-2.61 -2.41,-4.58 -4.98,-4.58"
         style="fill:#100f0d;fill-opacity:1;fill-rule:nonzero;stroke:none"
         id="path196" /><path
         d="m 4523.45,1313.65 c 44.77,-20.35 175.04,-66.49 411.15,-6.78 -8.14,-162.84 -24.42,-506.151 -24.42,-506.151 0,0 -196.76,-111.27 -328.39,-65.129 -36.63,62.422 -58.34,578.06 -58.34,578.06"
         style="fill:#100f0d;fill-opacity:1;fill-rule:nonzero;stroke:none"
         id="path198" /><path
         d="m 4563.75,1442.5 c 39.35,5.43 81.82,20.41 77.74,85.55 -4.07,65.13 -14.92,150.62 -14.92,150.62 -101.77,1.35 -202.19,54.28 -248.32,158.76 -46.14,104.48 14.92,158.76 48.85,267.32 33.93,108.55 97.7,198.11 240.18,188.61 142.48,-9.49 218.46,-77.34 218.46,-77.34 -24.42,-127.55 -48.85,-308.03 4.07,-318.89 52.92,-10.85 66.5,82.77 66.5,82.77 80.06,39.36 163.92,-8.53 131.62,-78.69 -39.35,-85.49 -132.98,-42.07 -132.98,-42.07 -18.99,-48.85 -99.05,-103.12 -99.05,-103.12 12.21,-100.42 24.36,-266.53 100.35,-276.02 -31.21,-158.77 -47.43,-216.56 -47.43,-216.56 0,0 -272.75,-66.49 -371.81,31.21 4.07,33.92 26.74,147.85 26.74,147.85"
         style="fill:#ffffff;fill-opacity:1;fill-rule:nonzero;stroke:none"
         id="path200" /><path
         d="m 4542.29,1296.5 c 35.17,-33.29 95.76,-50.15 180.14,-50.15 84.61,0 166.22,17.6 182.35,21.28 3.51,13.26 19.11,74.11 45.57,208.32 -68.93,15.13 -84.69,151.99 -96.27,252.59 -1.07,9.33 -2.11,18.34 -3.14,26.87 -0.23,1.87 0.6,3.69 2.16,4.75 0.78,0.52 78.98,53.97 97.19,100.8 0.5,1.28 1.52,2.3 2.8,2.82 1.28,0.52 2.72,0.47 3.96,-0.1 0.23,-0.11 23.19,-10.56 50.3,-10.56 35.13,0 60.72,16.88 76.04,50.18 9.29,20.17 8.88,39.13 -1.19,54.84 -12.41,19.37 -37.58,30.93 -67.34,30.93 -17.89,0 -36.52,-4.32 -54.03,-12.55 -2.6,-14.96 -17.22,-85.27 -62.67,-85.27 -3.04,0 -6.19,0.33 -9.35,0.98 -44.58,9.15 -47.45,117.43 -8.53,321.83 -13.22,10.68 -87.31,65.91 -213.34,74.31 -118.38,7.87 -193.05,-50.66 -235.06,-185.12 -9.73,-31.09 -21.88,-58.28 -32.59,-82.26 -27.16,-60.77 -48.61,-108.75 -16.47,-181.54 41.8,-94.65 135.22,-154.34 243.82,-155.78 2.49,-0.03 4.58,-1.89 4.89,-4.37 0.11,-0.85 10.92,-86.39 14.95,-150.94 4.28,-68.43 -41.69,-84.67 -78.51,-90.3 -3.72,-18.84 -21.44,-109.13 -25.68,-141.56 z m 180.14,-60.15 c -88.53,0 -152.1,18.42 -188.93,54.73 -1.1,1.1 -1.63,2.63 -1.45,4.16 4.04,33.73 25.87,143.58 26.8,148.24 0.41,2.09 2.11,3.68 4.22,3.97 38.46,5.31 77.26,19 73.43,80.28 -3.49,55.99 -12.12,127.9 -14.35,146.03 -110.7,3.02 -205.65,64.65 -248.47,161.65 -33.94,76.86 -11.7,126.63 16.48,189.66 11.12,24.89 22.62,50.63 32.16,81.17 43.01,137.63 123.03,200.27 245.29,192.11 142.56,-9.5 218.31,-75.79 221.46,-78.6 1.31,-1.18 1.92,-2.95 1.58,-4.67 -36.65,-191.41 -36.59,-305.51 0.17,-313.05 2.5,-0.52 4.97,-0.78 7.34,-0.78 41.22,0 53.09,78.57 53.2,79.37 0.24,1.64 1.27,3.04 2.74,3.76 19.55,9.61 40.56,14.69 60.76,14.69 33.19,0 61.51,-13.28 75.77,-35.53 11.81,-18.46 12.47,-41.34 1.84,-64.42 -21.3,-46.29 -58.05,-56 -85.12,-56 -22.08,0 -41.17,6.22 -49.73,9.51 -20.18,-43.96 -82.79,-89.48 -96.4,-99.01 0.92,-7.65 1.85,-15.67 2.8,-23.94 11.49,-99.82 27.22,-236.52 92.85,-244.72 1.37,-0.17 2.62,-0.91 3.43,-2.03 0.81,-1.12 1.13,-2.53 0.85,-3.9 -30.89,-157.15 -47.35,-216.36 -47.52,-216.94 -0.49,-1.74 -1.87,-3.09 -3.63,-3.51 -0.91,-0.22 -92.32,-22.23 -187.57,-22.23"
         style="fill:#100f0d;fill-opacity:1;fill-rule:nonzero;stroke:none"
         id="path202" /><path
         d="m 4531.58,1897.56 c -0.84,0 -1.69,0.21 -2.47,0.65 -28.63,16.31 -43.64,32.3 -45.89,48.87 -2.78,20.58 13.9,37.3 30.03,53.48 3.16,3.16 6.3,6.31 9.26,9.46 26.41,28.12 23.61,79.37 9.83,115.1 -5.9,15.31 -15.88,24.38 -29.63,26.95 -18.16,3.33 -37.75,-5.65 -47.03,-15.86 -1.85,-2.05 -5.01,-2.2 -7.06,-0.34 -2.05,1.85 -2.19,5.02 -0.34,7.06 11.38,12.52 34.34,23 56.27,18.97 11.95,-2.23 28.11,-9.8 37.13,-33.19 15.36,-39.82 17.65,-94.09 -11.89,-125.54 -3.01,-3.21 -6.23,-6.43 -9.46,-9.67 -14.41,-14.46 -29.31,-29.41 -27.2,-45.08 1.78,-13.09 15.54,-27.05 40.92,-41.52 2.41,-1.36 3.24,-4.42 1.88,-6.81 -0.93,-1.62 -2.61,-2.53 -4.35,-2.53"
         style="fill:#100f0d;fill-opacity:1;fill-rule:nonzero;stroke:none"
         id="path204" /><path
         d="m 4776.74,2066.72 c -1.61,0 -3.19,0.78 -4.15,2.22 -52.76,78.69 -108.83,67.85 -137.57,54.34 -2.47,-1.17 -5.46,-0.1 -6.65,2.41 -1.17,2.5 -0.09,5.48 2.41,6.65 25.48,11.93 91.1,30.21 150.11,-57.84 1.54,-2.29 0.93,-5.4 -1.37,-6.93 -0.85,-0.58 -1.82,-0.85 -2.78,-0.85"
         style="fill:#100f0d;fill-opacity:1;fill-rule:nonzero;stroke:none"
         id="path206" /><path
         d="m 4696.18,1995.57 c -5.29,-16.92 -17.4,-28.22 -27.05,-25.22 -9.64,3.02 -13.17,19.19 -7.89,36.12 5.27,16.93 17.39,28.22 27.02,25.19 9.65,-3.01 13.2,-19.15 7.92,-36.09"
         style="fill:#100f0d;fill-opacity:1;fill-rule:nonzero;stroke:none"
         id="path208" /><path
         d="m 4690.8,2020.59 c -2.16,0 -4.16,1.4 -4.79,3.58 l -9.06,30.76 c -0.78,2.66 0.74,5.43 3.38,6.21 2.69,0.77 5.44,-0.72 6.21,-3.38 l 9.06,-30.76 c 0.78,-2.65 -0.74,-5.43 -3.38,-6.21 -0.48,-0.14 -0.95,-0.2 -1.42,-0.2"
         style="fill:#100f0d;fill-opacity:1;fill-rule:nonzero;stroke:none"
         id="path210" /><path
         d="m 4498.52,2032.66 c -5.29,-16.92 -17.4,-28.21 -27.05,-25.21 -9.64,3.01 -13.17,19.19 -7.9,36.11 5.29,16.94 17.41,28.22 27.04,25.19 9.63,-3.01 13.2,-19.15 7.91,-36.09"
         style="fill:#100f0d;fill-opacity:1;fill-rule:nonzero;stroke:none"
         id="path212" /><path
         d="m 4493.14,2057.68 c -2.15,0 -4.16,1.4 -4.79,3.58 l -9.05,30.77 c -0.78,2.66 0.73,5.43 3.39,6.21 2.62,0.79 5.43,-0.72 6.2,-3.38 l 9.05,-30.78 c 0.78,-2.64 -0.73,-5.42 -3.38,-6.2 -0.48,-0.14 -0.95,-0.2 -1.42,-0.2"
         style="fill:#100f0d;fill-opacity:1;fill-rule:nonzero;stroke:none"
         id="path214" /><path
         d="m 4497.02,1868.44 c -0.11,-25.7 4.53,-44.1 13.56,-53.54 19.03,-19.85 61.38,0.44 106.66,48.18 -48.43,-9.49 -97.12,-6.72 -120.22,5.36 z m 32.57,-71.26 c -10.54,0 -19.37,3.63 -26.24,10.81 -12.15,12.69 -17.57,36.22 -16.1,69.9 0.08,1.94 1.29,3.66 3.08,4.4 1.79,0.75 3.85,0.39 5.29,-0.92 7.16,-6.56 28.19,-14.2 63.86,-14.2 22.26,0 46.77,3.12 70.88,9.03 2.16,0.52 4.35,-0.4 5.47,-2.26 1.13,-1.87 0.92,-4.25 -0.52,-5.89 -39.58,-45.04 -78.11,-70.87 -105.72,-70.87"
         style="fill:#100f0d;fill-opacity:1;fill-rule:nonzero;stroke:none"
         id="path216" /><path
         d="m 4508.53,1806.19 c -0.85,0 -1.71,0.22 -2.49,0.67 -2.4,1.37 -3.23,4.43 -1.85,6.82 11.76,20.46 59.52,33.22 88.04,23.56 2.61,-0.89 4.02,-3.73 3.13,-6.34 -0.88,-2.62 -3.74,-4.01 -6.34,-3.14 -25.81,8.76 -67.44,-3.89 -76.16,-19.06 -0.93,-1.61 -2.61,-2.51 -4.33,-2.51"
         style="fill:#100f0d;fill-opacity:1;fill-rule:nonzero;stroke:none"
         id="path218" /><path
         d="m 4624.44,1673.21 c -2.93,0.03 -5.58,2.06 -5.57,5.02 0.01,2.76 2.24,4.98 5,4.98 0.22,0.02 0.4,0 0.59,0 50.67,0 132.33,29.22 187.02,58.21 2.45,1.3 5.48,0.37 6.76,-2.07 1.3,-2.45 0.37,-5.47 -2.07,-6.76 -55.8,-29.57 -139.42,-59.38 -191.73,-59.38"
         style="fill:#100f0d;fill-opacity:1;fill-rule:nonzero;stroke:none"
         id="path220" /><path
         d="m 3741.85,1426.27 c 23.06,-8.14 135.69,-8.14 226.61,43.43 14.92,-82.78 70.55,-329.74 70.55,-329.74 77.35,84.13 184.54,183.18 233.4,225.25 48.85,42.07 123.48,82.78 196.75,80.06 73.28,-2.71 111.27,1.36 111.27,1.36 0,0 -58.34,-103.13 -28.49,-389.44 29.85,-286.319 39.35,-324.311 39.35,-324.311 l -100.41,9.492 c 0,0 20.35,63.777 -40.71,137.051 -61.07,73.289 -78.71,119.418 -86.85,173.698 -65.13,-66.499 -238.82,-251.038 -384.01,-252.401 -145.19,-1.348 -196.76,128.91 -217.11,291.751 -20.35,162.83 -20.35,333.8 -20.35,333.8"
         style="fill:#55c2e1;fill-opacity:1;fill-rule:nonzero;stroke:none"
         id="path222" /><path
         d="m 4860,802.5 c -40.71,-12.211 -215.79,-64.199 -295.85,-58.77 -80.06,5.43 -162.83,44.79 -227.97,28.5 -65.13,-16.281 -176.85,-98.378 -168.93,-130.941 6.1,-25.109 35.95,-11.539 35.95,-11.539 10.86,-23.07 32.57,-10.848 32.57,-10.848 10.86,-23.082 61.07,-9.511 90.92,16.278 29.85,25.781 66.48,39.351 112.63,23.062 46.13,-16.281 118.04,-39.34 202.17,-43.422 84.14,-4.07 282.26,5.18 282.26,5.18 0,0 29.87,117.371 -63.75,182.5"
         style="fill:#ffffff;fill-opacity:1;fill-rule:nonzero;stroke:none"
         id="path224" /><path
         d="m 4235.77,623.891 c 0.52,0 1.04,-0.082 1.53,-0.25 1.32,-0.422 2.41,-1.36 2.99,-2.61 3.48,-7.402 12.51,-8.949 19.48,-8.949 19.16,0 45.33,11.047 63.65,26.879 36.13,31.211 74.86,39.07 117.56,24 51.11,-18.039 120.11,-39.242 200.76,-43.152 14.12,-0.68 32.49,-1.02 54.6,-1.02 84.22,0 200.79,5.02 223.33,6.031 3.85,19.731 17.85,115.922 -60.57,172.192 -78.92,-23.59 -223.94,-63.133 -295.29,-58.274 -31.81,2.16 -63.96,9.594 -95.04,16.774 -34.82,8.039 -67.72,15.636 -98.05,15.636 -12.27,0 -23.17,-1.238 -33.33,-3.777 -65.51,-16.359 -172.1,-96.91 -165.29,-124.902 1.89,-7.758 6.48,-11.387 14.45,-11.387 7.36,0 14.52,3.188 14.59,3.227 2.5,1.089 5.43,0.031 6.58,-2.438 3.56,-7.531 8.55,-11.211 15.25,-11.211 5.57,0 10.32,2.582 10.37,2.602 0.75,0.418 1.58,0.629 2.43,0.629 z m 24,-21.809 c -14.23,0 -21.89,5.066 -26.01,10.52 -2.75,-0.973 -6.57,-1.942 -10.79,-1.942 -6.65,0 -15.57,2.36 -22.09,12.879 -3.54,-1.141 -8.8,-2.457 -14.33,-2.457 -12.59,0 -21.18,6.758 -24.17,19.027 -9.45,38.891 110.06,121.34 172.59,136.973 10.96,2.727 22.65,4.066 35.75,4.066 31.48,0 64.91,-7.718 100.3,-15.898 30.71,-7.102 62.46,-14.43 93.47,-16.531 70.44,-4.86 216.42,35.281 294.07,58.57 1.46,0.43 3.05,0.18 4.29,-0.687 95.37,-66.34 66.06,-186.633 65.74,-187.832 -0.53,-2.141 -2.41,-3.661 -4.61,-3.758 -1.33,-0.071 -134.26,-6.223 -227.63,-6.223 -0.01,0 0,0 -0.01,0 -22.28,0 -40.81,0.352 -55.09,1.043 -81.94,3.969 -151.85,25.43 -203.59,43.699 -39.27,13.84 -74.32,6.699 -107.7,-22.14 -19.99,-17.262 -48.85,-29.309 -70.19,-29.309"
         style="fill:#100f0d;fill-opacity:1;fill-rule:nonzero;stroke:none"
         id="path226" /><path
         d="m 5092,848.219 9.5,113.98 31.21,-105.84 z m 382.66,50.211 c -59.71,160.11 -111.27,333.8 -160.12,412.51 -48.85,78.7 -107.2,151.97 -215.75,162.83 -78.7,5.43 -149.27,8.14 -149.27,8.14 -25.78,-67.85 -108.55,-396.23 -65.13,-671.691 -19,0 -32.56,-10.848 -32.56,-10.848 43.41,-35.289 67.84,-99.062 56.99,-184.551 188.61,-14.922 388.08,14.93 453.21,31.219 65.14,16.27 172.34,92.262 112.63,252.391"
         style="fill:#55c2e1;fill-opacity:1;fill-rule:nonzero;stroke:none"
         id="path228" /><path
         d="m 3669,1823.42 c -2.62,0 -4.82,2.04 -4.99,4.69 -0.17,2.75 1.93,5.12 4.68,5.3 9.32,0.58 20.54,1.64 32.77,2.79 41,3.88 92.04,8.67 122.54,0.81 2.68,-0.69 4.28,-3.42 3.6,-6.09 -0.7,-2.67 -3.41,-4.28 -6.1,-3.6 -28.85,7.46 -78.89,2.72 -119.11,-1.07 -12.34,-1.16 -23.67,-2.24 -33.07,-2.82 -0.11,-0.01 -0.22,-0.01 -0.32,-0.01"
         style="fill:#100f0d;fill-opacity:1;fill-rule:nonzero;stroke:none"
         id="path230" /><path
         d="m 4367.38,1025.05 c -2.33,0 -4.41,1.64 -4.89,4.02 -9.07,45.4 1.07,103.61 15.16,141.14 0.96,2.59 3.86,3.94 6.43,2.92 2.59,-0.96 3.9,-3.84 2.92,-6.43 -10.12,-27.02 -24.64,-86 -14.71,-135.67 0.54,-2.71 -1.21,-5.35 -3.92,-5.88 -0.33,-0.07 -0.66,-0.1 -0.99,-0.1"
         style="fill:#100f0d;fill-opacity:1;fill-rule:nonzero;stroke:none"
         id="path232" /><path
         d="m 4854.84,798 c -2.21,0 -4.23,1.48 -4.83,3.719 -0.7,2.66 0.89,5.41 3.55,6.113 43.89,11.617 318.83,65.559 415.78,73.867 2.7,0.242 5.16,-1.801 5.41,-4.551 0.23,-2.757 -1.81,-5.179 -4.55,-5.406 -96.54,-8.281 -370.36,-62 -414.08,-73.582 -0.43,-0.109 -0.86,-0.16 -1.28,-0.16"
         style="fill:#100f0d;fill-opacity:1;fill-rule:nonzero;stroke:none"
         id="path234" /><path
         d="m 5108.28,939.559 c -2.12,0 -4.08,1.363 -4.76,3.48 -9.82,30.691 -33.96,127.511 -45.56,174.041 l -3.38,13.53 c -0.66,2.67 0.96,5.39 3.64,6.06 2.64,0.67 5.39,-0.96 6.07,-3.64 l 3.38,-13.53 c 11.57,-46.42 35.66,-143.039 45.38,-173.418 0.84,-2.621 -0.62,-5.453 -3.25,-6.293 -0.5,-0.148 -1.01,-0.23 -1.52,-0.23"
         style="fill:#100f0d;fill-opacity:1;fill-rule:nonzero;stroke:none"
         id="path236" /><path
         d="m 4235.78,613.902 c -0.15,0 -0.31,0.008 -0.46,0.02 -2.75,0.25 -4.78,2.68 -4.53,5.43 1.65,18.168 74.72,79.14 140.66,97.968 2.68,0.801 5.43,-0.781 6.18,-3.418 0.76,-2.664 -0.77,-5.433 -3.43,-6.191 -66.35,-18.949 -132.38,-77.5 -133.45,-89.262 -0.23,-2.597 -2.42,-4.547 -4.97,-4.547"
         style="fill:#100f0d;fill-opacity:1;fill-rule:nonzero;stroke:none"
         id="path238" /><path
         d="m 4203.2,624.75 c -2.76,0 -5,2.23 -5,5 0,26.082 54.76,81.09 140.56,107.91 2.69,0.832 5.44,-0.66 6.27,-3.289 0.82,-2.629 -0.65,-5.43 -3.28,-6.262 -88.11,-27.527 -133.55,-81.429 -133.55,-98.359 0,-2.77 -2.23,-5 -5,-5"
         style="fill:#100f0d;fill-opacity:1;fill-rule:nonzero;stroke:none"
         id="path240" /><path
         d="M 4557.31,633.648 H 4128.8 l -172.44,503.642 c -15.05,43.92 -65.34,79.86 -111.76,79.86 h -731.78 c -46.4,0 -72.08,-35.94 -57.05,-79.86 l 177.64,-518.81 c 19.43,-50.371 21.71,-91.832 72.21,-91.832 h 1251.69 c 29.54,0 53.5,23.961 53.5,53.524 0,29.539 -23.96,53.476 -53.5,53.476"
         style="fill:#f8a218;fill-opacity:1;fill-rule:nonzero;stroke:none"
         id="path242" /><path
         d="m 4091.02,619.359 h -851.09 c -2.76,0 -5,2.231 -5,5 0,2.762 2.24,5 5,5 h 851.09 c 2.76,0 5,-2.238 5,-5 0,-2.769 -2.24,-5 -5,-5"
         style="fill:#100f0d;fill-opacity:1;fill-rule:nonzero;stroke:none"
         id="path244" /><path
         d="m 3535.09,955.371 c -12.59,0 -23.01,-4.992 -30.1,-14.441 -10.28,-13.66 -12.39,-34.559 -5.8,-57.34 11.87,-41.121 48.24,-74.57 81.06,-74.57 12.58,0 22.98,4.992 30.08,14.449 10.28,13.679 12.39,34.57 5.8,57.332 -11.84,41.121 -48.2,74.57 -81.04,74.57 z m 45.16,-156.351 c -36.97,0 -77.65,36.691 -90.67,81.8 -7.47,25.821 -4.77,49.91 7.41,66.11 8.94,11.902 22.47,18.441 38.1,18.441 36.99,0 77.66,-36.699 90.65,-81.801 7.47,-25.8 4.77,-49.898 -7.42,-66.109 -8.94,-11.891 -22.45,-18.441 -38.07,-18.441"
         style="fill:#100f0d;fill-opacity:1;fill-rule:nonzero;stroke:none"
         id="path246" /></g></g></svg>
