<?xml version="1.0" encoding="utf-8"?>
<svg viewBox="2.831 -15.938 454.965 167.83" xmlns="http://www.w3.org/2000/svg" xmlns:xlink="http://www.w3.org/1999/xlink">
  <g id="logo-group" transform="matrix(1, 0, 0, 1, -281.036591, -305.66922)">
    <image id="container" x="272" y="144" width="480" height="480" transform="translate(0 0)" style="display: none;" xlink:href=""/>
    <g id="logo-center" transform="translate(0 0)">
      <image id="icon_container" x="0" y="0" style="display: none;" xlink:href=""/>
      <g id="slogan" style="font-style:oblique;font-weight:normal;font-size:32px;line-height:1;font-family:'Fanwood Text';font-variant-ligatures:none;text-align:center;text-anchor:middle" transform="translate(0 0)"/>
      <g id="title" style="font-style:normal;font-weight:normal;font-size:72px;line-height:1;font-family:'Brandmark Script 2 Color Shadow';font-variant-ligatures:normal;text-align:center;text-anchor:middle" transform="translate(0 0)">
        <g id="path46592" aria-label="k" transform="translate(0 309.52) translate(286.01322499999986 2.192) scale(2) translate(-403.46112 47.808)">
          <path class="c1" d="M88.63386,125.18209c0.68086-2.75471,1.54143-5.42241,2.59521-7.98779 c0.77661-1.89062,1.72644-3.9276,2.96136-6.05794c0.96407-1.6631,2.23556-3.58611,3.21633-4.99362 c0.85938-1.23331,1.29476-1.83198,2.38836-2.92504c1.02136-1.02087,2.5891-2.54731,3.90339-3.26608 c0.0816-0.04463,0.20927-0.10596,0.34843-0.15938c0.1321-0.0507,0.28083-0.08385,0.35645-0.10039 c1.31783-0.68907,0.7654-2.9756-0.15817-3.40583c-0.50667-0.23602-1.07862-0.258-1.73888-0.09479 c-0.74886,0.18512-1.64247,0.54523-2.62092,1.22797c-0.47831,0.38107-1.46867,1.20272-2.45548,2.36962 c-0.77189,0.91276-1.51042,1.95999-2.17108,2.92744c-2.94437,4.31168-4.69957,9.09515-5.79473,13.36807 C88.50827,119.81377,87.88477,124.21015,88.63386,125.18209z" transform="translate(321.95618 -125.54603)" stroke-width="0" stroke-linejoin="miter" stroke-miterlimit="2" fill="#c2c2c2" stroke="#c2c2c2"/>
          <path class="c2" d="M102.0967,83.36134c0.16009-3.19386-2.08826-5.62331-5.49931-5.62331 c-0.87402,0-1.60932,0.07256-1.91425,0.28608c0.70521,2.67306-13.1782,37.20212-13.1782,42.91938 c0,2.98782,2.06993,4.60754,5.18974,4.60754c0.87402,0,1.63427-0.15546,1.93916-0.36894 c-0.65131-2.46877,4.46434-16.63023,5.32777-19.01606c0.4311-1.1912,0.87043-2.30939,1.30444-3.4603 c2.05713-5.45522,4.07034-10.36445,4.94279-12.69291C101.29238,87.12102,102.02377,84.81644,102.0967,83.36134z" transform="translate(321.95618 -125.54603)" stroke-width="0" stroke-linejoin="miter" stroke-miterlimit="2" fill="#ffffff" stroke="#ffffff"/>
          <path class="c2" d="M90.01646,114.24794c3.10028-0.03143,5.81396-0.40881,8.20081-1.01976 c9.26057-2.37039,13.32281-8.40604,13.32281-12.80516c0-3.21514-2.81326-5.11279-5.53543-5.11279 c-1.97707,0-3.55302,0.14017-6.11922,2.10897c1.5867-1.03577,3.31869-1.17198,3.91445-0.47671 c0.59108,0.6898,0.74212,1.6706,0.60352,2.74936c-0.21544,1.67682-1.10821,3.55936-1.96246,4.71474 c-2.97504,4.0238-7.20288,7.25497-12.20937,7.70429C89.80206,112.34831,89.37295,114.09367,90.01646,114.24794z" transform="translate(321.95618 -125.54603)" stroke-width="0" stroke-linejoin="miter" stroke-miterlimit="2" fill="#ffffff" stroke="#ffffff"/>
          <path class="c1" d="M115.41999,107.69497c-2.72444,4.87843-8.18363,12.85725-12.16895,13.31134 c-0.33535,0.27656-0.36633,2.23336,1.34011,2.99619c1.40495,0.62804,3.23267-0.05534,4.55384-0.80827 c2.69859-2.03915,6.88567-6.35999,9.29414-10.95101C118.89069,110.74322,116.4907,108.03384,115.41999,107.69497z" transform="translate(321.95618 -125.54603)" stroke-width="0" stroke-linejoin="miter" stroke-miterlimit="2" fill="#c2c2c2" stroke="#c2c2c2"/>
          <path class="c2" d="M101.8764,118.83026c-1.01144-2.12075-1.75806-4.25427-3.66869-5.59963 c-2.15066-1.51438-7.08032-1.13904-9.19632,1.64067c0.77586,0.5819,1.4798,1.39862,2.21768,2.323 c0.94228,1.18045,1.92795,2.5405,3.06052,3.85462c2.36388,2.74284,4.97318,4.49352,8.53526,4.49352 c2.50451,0,4.91558-1.12949,6.32014-2.34821c-2.22591,0.78832-4.29658-0.00748-5.89395-2.18792 C102.60799,120.22375,102.12482,119.35113,101.8764,118.83026z" transform="translate(321.95618 -125.54603)" stroke-width="0" stroke-linejoin="miter" stroke-miterlimit="2" fill="#ffffff" stroke="#ffffff"/>
          <linearGradient id="298400be-a64c-414e-b4b2-cad1b1a923b6" gradientUnits="userSpaceOnUse" x1="103.77504" y1="125.7042" x2="119.21788" y2="106.90864">
            <stop offset="0.0905" style="stop-color:#ffffff"/>
            <stop offset="0.2318" style="stop-color:#ffffff;stop-opacity:0.68377"/>
            <stop offset="0.5373" style="stop-color:#ffffff;stop-opacity:0"/>
          </linearGradient>
          <path class="highlight" fill="url(#298400be-a64c-414e-b4b2-cad1b1a923b6)" d="M115.42001,107.69496c-2.72449,4.87842-8.18365,12.85724-12.16895,13.31134 c1.59735,2.18042,3.66803,2.97626,5.89392,2.18793c2.69861-2.03918,6.88568-6.35999,9.29413-10.95105 C118.89072,110.74318,116.49069,108.03383,115.42001,107.69496z" transform="translate(321.95618 -125.54603)" stroke-width="0" stroke-linejoin="miter" stroke-miterlimit="2" opacity="0.42"/>
          <linearGradient id="7ac88808-0023-4c1f-9c8c-2d974e23fafe" gradientUnits="userSpaceOnUse" x1="89.53819" y1="112.37383" x2="104.38434" y2="96.0024">
            <stop offset="0.1004" style="stop-color:#ffffff"/>
            <stop offset="0.2587" style="stop-color:#ffffff;stop-opacity:0.6231"/>
            <stop offset="0.5204" style="stop-color:#ffffff;stop-opacity:0"/>
            <stop offset="0.6168" style="stop-color:#ffffff;stop-opacity:0"/>
            <stop offset="0.9633" style="stop-color:#ffffff"/>
          </linearGradient>
          <path class="highlight" fill="url(#7ac88808-0023-4c1f-9c8c-2d974e23fafe)" d="M103.7999,96.94246c-0.59576-0.69525-2.32776-0.55902-3.91449,0.47675 c-0.47827,0.38104-1.46863,1.2027-2.45544,2.36963c-0.76935,0.90967-1.50519,1.95282-2.16412,2.91754 c-0.43396,1.1507-0.87317,2.26868-1.3042,3.45966c-0.68091,1.8813-1.33707,3.74624-1.98766,5.6721 c0.38844-0.08716,0.77567-0.19106,1.19221-0.32363c0.55862-0.17779,0.91518-0.33031,1.01817-0.36767 c0.96405-1.66315,2.24163-3.59658,3.2224-5.00411c0.85938-1.23334,1.29474-1.83197,2.38837-2.92505 c1.02136-1.02087,2.58911-2.5473,3.90338-3.26605c0.0816-0.04462,0.20929-0.10596,0.34845-0.15936 c0.13208-0.05072,0.28082-0.08386,0.35645-0.1004C104.54202,98.61311,104.39096,97.63228,103.7999,96.94246z" transform="translate(321.95618 -125.54603)" stroke-width="0" stroke-linejoin="miter" stroke-miterlimit="2" opacity="0.42"/>
          <linearGradient id="0f701d4a-6df7-4b33-86ab-24d93012696e" gradientUnits="userSpaceOnUse" x1="92.42403" y1="110.42741" x2="86.93683" y2="131.91122">
            <stop offset="0.2585" style="stop-color:#ffffff"/>
            <stop offset="0.493" style="stop-color:#ffffff;stop-opacity:0.68377"/>
            <stop offset="1" style="stop-color:#ffffff;stop-opacity:0"/>
          </linearGradient>
          <path class="highlight" fill="url(#0f701d4a-6df7-4b33-86ab-24d93012696e)" d="M88.63388,125.18208c0.68085-2.7547,1.54138-5.42242,2.59521-7.98779 c-0.24072-0.30157-0.47766-0.5863-0.71503-0.85968C89.30484,120.24361,88.32632,124.01637,88.63388,125.18208z" transform="translate(321.95618 -125.54603)" stroke-width="0" stroke-linejoin="miter" stroke-miterlimit="2" opacity="0.42"/>
          <linearGradient id="a8685db2-9460-4626-b843-8966cc4c35b8" gradientUnits="userSpaceOnUse" x1="82.77571" y1="133.00891" x2="102.2451" y2="65.78442">
            <stop offset="0.0732" style="stop-color:#ffffff"/>
            <stop offset="0.1351" style="stop-color:#ffffff;stop-opacity:0.68377"/>
            <stop offset="0.2691" style="stop-color:#ffffff;stop-opacity:0"/>
            <stop offset="0.6518" style="stop-color:#ffffff;stop-opacity:0"/>
            <stop offset="0.9581" style="stop-color:#ffffff"/>
          </linearGradient>
          <path class="highlight" fill="url(#a8685db2-9460-4626-b843-8966cc4c35b8)" d="M102.0967,83.36134c0.16009-3.19386-2.08826-5.62331-5.49931-5.62331 c-0.87402,0-1.60932,0.07256-1.91425,0.28608c0.70521,2.67306-13.1782,37.20212-13.1782,42.91938 c0,2.98782,2.06993,4.60754,5.18974,4.60754c0.87402,0,1.63427-0.15546,1.93916-0.36894 c-0.65131-2.46877,4.46434-16.63023,5.32777-19.01606c0.4311-1.1912,0.87043-2.30939,1.30444-3.4603 c2.05713-5.45522,4.07034-10.36445,4.94279-12.69291C101.29238,87.12102,102.02377,84.81644,102.0967,83.36134z" transform="translate(321.95618 -125.54603)" stroke-width="0" stroke-linejoin="miter" stroke-miterlimit="2" opacity="0.42"/>
          <linearGradient id="16ff50aa-4a39-4d74-a4b0-5384bcf9b8dd" gradientUnits="userSpaceOnUse" x1="89.65526" y1="105.24971" x2="110.327" y2="134.74028">
            <stop offset="0.1888" style="stop-color:#ffffff"/>
            <stop offset="0.2614" style="stop-color:#ffffff;stop-opacity:0.68377"/>
            <stop offset="0.4183" style="stop-color:#ffffff;stop-opacity:0"/>
            <stop offset="0.4893" style="stop-color:#ffffff;stop-opacity:0"/>
            <stop offset="0.7513" style="stop-color:#ffffff"/>
          </linearGradient>
          <path class="highlight" fill="url(#16ff50aa-4a39-4d74-a4b0-5384bcf9b8dd)" d="M103.25107,121.0063c-0.64307-0.78259-1.12622-1.65521-1.37463-2.17603 c-1.01147-2.12079-1.75806-4.25427-3.6687-5.59967c-0.38453-0.27077-0.86173-0.48224-1.39216-0.6292 c-0.69894-0.19366-1.49298-0.27617-2.31577-0.24325c-0.97398,0.03896-1.98222,0.24104-2.90697,0.61843 c-0.36188,1.09088-0.72995,2.23064-1.07877,3.35809c0.23712,0.27417,0.47437,0.55811,0.71503,0.85962 c0.94226,1.18042,1.92792,2.54047,3.06049,3.85461c2.36389,2.74286,4.97321,4.49353,8.53528,4.49353 c2.50452,0,4.91559-1.12952,6.32013-2.34821C106.9191,123.98256,104.84842,123.18672,103.25107,121.0063z" transform="translate(321.95618 -125.54603)" stroke-width="0" stroke-linejoin="miter" stroke-miterlimit="2" opacity="0.42"/>
          <linearGradient id="d331dbb7-0a50-4e5e-bec1-b6492dfbc7ec" gradientUnits="userSpaceOnUse" x1="78.427" y1="119.8823" x2="106.21397" y2="101.35767">
            <stop offset="0.4294" style="stop-color:#ffffff"/>
            <stop offset="0.551" style="stop-color:#ffffff;stop-opacity:0.68889"/>
            <stop offset="0.7562" style="stop-color:#ffffff;stop-opacity:0.16379"/>
            <stop offset="0.8202" style="stop-color:#ffffff;stop-opacity:0"/>
          </linearGradient>
          <path class="highlight" fill="url(#d331dbb7-0a50-4e5e-bec1-b6492dfbc7ec)" d="M102.44095,104.40657c-2.62286,3.54749-6.22149,6.47935-10.46697,7.43156 c-0.12402,0.36719-0.25455,0.75687-0.38114,1.13846c0.34158-0.13919,0.69053-0.25423,1.048-0.34582 c0.57811-0.14812,1.22249-0.24832,1.87782-0.27335c0.78255-0.0299,1.57639,0.0442,2.29692,0.24399 c0.51317,0.14229,0.99136,0.34713,1.39179,0.62902c0.00317-0.00079,0.00671-0.00146,0.00989-0.00226 c9.26056-2.37042,13.32281-8.40607,13.32281-12.80518c0-3.21515-2.81323-5.11279-5.5354-5.11279 c-1.97711,0-3.55304,0.1402-6.11926,2.10901c1.58673-1.03577,3.31873-1.172,3.91449-0.47675 c0.59106,0.68982,0.74213,1.67065,0.60352,2.74939C104.18796,101.36867,103.2952,103.25117,102.44095,104.40657z" transform="translate(321.95618 -125.54603)" stroke-width="0" stroke-linejoin="miter" stroke-miterlimit="2" opacity="0.42"/>
          <radialGradient id="e106db71-adc5-40ac-9c52-94abb9aea70d" cx="92.75516" cy="122.39027" r="41.40493" gradientUnits="userSpaceOnUse" transform="translate(321.95618 -125.54603)">
            <stop offset="0.5616" style="stop-color:#ffffff;stop-opacity:0"/>
            <stop offset="0.8446" style="stop-color:#ffffff"/>
          </radialGradient>
          <path class="highlight" fill="url(#e106db71-adc5-40ac-9c52-94abb9aea70d)" d="M102.44095,104.40657c-2.62286,3.54749-6.22149,6.47935-10.46697,7.43156 c-0.12402,0.36719-0.25513,0.75979-0.38172,1.14138c0.34344-0.13995,0.69798-0.25888,1.05884-0.35136 c0.6035-0.15469,1.22546-0.24254,1.83155-0.26928c0.74814-0.03301,1.56502,0.02976,2.32697,0.24089 c0.50575,0.14014,0.99393,0.34639,1.39775,0.63067c0.10116-0.02599,0.10461-0.02614,0.26979-0.07011 c2.75112-0.73227,5.03459-1.79046,6.88116-3.03106c4.24576-2.85249,6.18176-6.66935,6.18176-9.70627 c0-3.21515-2.81323-5.11279-5.5354-5.11279c-1.97711,0-3.55304,0.1402-6.11926,2.10901 c1.58673-1.03577,3.31873-1.172,3.91449-0.47675c0.59106,0.68982,0.74213,1.67065,0.60352,2.74939 C104.18796,101.36867,103.2952,103.25117,102.44095,104.40657z" transform="translate(321.95618 -125.54603)" stroke-width="0" stroke-linejoin="miter" stroke-miterlimit="2" opacity="0.42"/>
        </g>
        <g id="path46594" aria-label="n" transform="translate(0 309.52) translate(346.3447249999998 37.328) scale(2) translate(-433.62687 30.24)">
          <path class="c1" d="M87.44781,125.18527c1.37914-6.93326,8.63188-15.55356,13.91312-20.84859 c3.08038-3.08843,3.85129-6.85708,2.65198-7.60664c-0.45198-0.28249-1.67046-0.44975-5.18932,2.83668 c-2.00151,2.03937-4.45332,4.95891-6.24607,7.21961c-1.49758,1.99174-3.16163,5.28005-4.27393,9.29874 C87.27669,119.79525,86.69878,124.21341,87.44781,125.18527z" transform="translate(353.88669 -125.54026)" stroke-width="0" stroke-linejoin="miter" stroke-miterlimit="2" fill="#c2c2c2" stroke="#c2c2c2"/>
          <path class="c2" d="M94.50188,99.90416c0-3.01913-2.83584-4.6039-5.97654-4.6039c-0.9025,0-1.63731,0.10546-1.94434,0.29803 c0.34975,1.90292-1.38661,6.8969-3.19496,12.08296c-1.78799,5.12768-3.64586,10.4634-3.64586,13.26259 c0,2.98759,2.70283,4.59708,5.76376,4.59708c0.87395,0,1.62981-0.12908,1.94387-0.35564 c-0.49374-2.45204,1.84689-8.84362,3.9525-14.75523C93.00056,105.93726,94.50188,101.75229,94.50188,99.90416z" transform="translate(353.88669 -125.54026)" stroke-width="0" stroke-linejoin="miter" stroke-miterlimit="2" fill="#ffffff" stroke="#ffffff"/>
          <path class="c1" d="M117.18355,107.69497c-2.02056,3.67793-8.00404,12.73796-12.24121,13.31134 c-0.52148,0.20469-0.17797,2.42612,1.52834,3.18889c1.40484,0.628,2.8058-0.09425,4.12688-0.84711 c2.61667-1.93155,7.02862-6.20139,9.60909-11.11063C120.63987,110.77934,118.31635,108.09112,117.18355,107.69497z" transform="translate(353.88669 -125.54026)" stroke-width="0" stroke-linejoin="miter" stroke-miterlimit="2" fill="#c2c2c2" stroke="#c2c2c2"/>
          <path class="c2" d="M104.92538,120.09682c0.04804-1.15149,0.36911-2.64533,0.82031-4.12673 c0.37786-1.24062,0.86279-2.58011,1.24145-3.6089c1.85067-5.02824,4.43379-10.21848,4.43379-13.04861 c0-2.535-2.90591-4.01244-5.66653-4.01228c-1.82854,0.0001-3.43336,0.74443-6.9308,4.26643 c1.59239-1.20493,3.1468-2.45596,3.90434-2.15136c1.30618,0.52519-0.87859,5.56157-2.41172,9.90837 c-1.30488,3.69965-3.08694,9.40427-1.76105,13.57397c0.94791,2.98102,3.47039,4.64455,6.45943,4.64455 c2.50431,0,4.42733-1.29443,5.58296-2.19416c-2.80561,1.03037-5.4445,0.53404-5.65523-2.34177 C104.91978,120.69843,104.91768,120.28129,104.92538,120.09682z" transform="translate(353.88669 -125.54026)" stroke-width="0" stroke-linejoin="miter" stroke-miterlimit="2" fill="#ffffff" stroke="#ffffff"/>
          <linearGradient id="45e2ba38-4368-4f52-8832-850710335a70" gradientUnits="userSpaceOnUse" x1="81.1659" y1="125.11181" x2="111.42548" y2="92.89509">
            <stop offset="0.1676" style="stop-color:#ffffff"/>
            <stop offset="0.2709" style="stop-color:#ffffff;stop-opacity:0.68377"/>
            <stop offset="0.4942" style="stop-color:#ffffff;stop-opacity:0"/>
            <stop offset="0.5863" style="stop-color:#ffffff;stop-opacity:0"/>
            <stop offset="0.7943" style="stop-color:#ffffff"/>
          </linearGradient>
          <path class="highlight" fill="url(#45e2ba38-4368-4f52-8832-850710335a70)" d="M101.43393,104.25899c1.23932-3.37146,2.29773-6.44006,1.29401-6.84363 c-0.75757-0.30463-2.31195,0.94641-3.90436,2.15131c-1.93518,1.9718-4.28577,4.76111-6.06012,6.98749 c-0.42267,1.23206-0.88556,2.53503-1.36316,3.87585c-2.10559,5.91162-4.44623,12.30322-3.95251,14.75525 c1.37915-6.93329,8.6319-15.55353,13.91315-20.84857C101.38644,104.31111,101.40872,104.28468,101.43393,104.25899z" transform="translate(353.88669 -125.54026)" stroke-width="0" stroke-linejoin="miter" stroke-miterlimit="2" opacity="0.42"/>
          <linearGradient id="16d9fa3c-4516-4c35-aeea-0f1a73259162" gradientUnits="userSpaceOnUse" x1="104.72634" y1="126.5868" x2="120.27078" y2="107.79124">
            <stop offset="0.0545" style="stop-color:#ffffff"/>
            <stop offset="0.2251" style="stop-color:#ffffff;stop-opacity:0.68377"/>
            <stop offset="0.594" style="stop-color:#ffffff;stop-opacity:0"/>
          </linearGradient>
          <path class="highlight" fill="url(#16d9fa3c-4516-4c35-aeea-0f1a73259162)" d="M117.18356,107.69496c-2.02057,3.67792-8.00403,12.73798-12.24121,13.31134 c0.21069,2.87579,2.84961,3.37213,5.65521,2.34174c2.61664-1.93152,7.02863-6.20135,9.60907-11.1106 C120.63986,110.77931,118.31638,108.09108,117.18356,107.69496z" transform="translate(353.88669 -125.54026)" stroke-width="0" stroke-linejoin="miter" stroke-miterlimit="2" opacity="0.42"/>
          <linearGradient id="33329e12-a7ae-41a7-9c7d-2d0461fcf193" gradientUnits="userSpaceOnUse" x1="91.75264" y1="77.43688" x2="83.24174" y2="137.81424">
            <stop offset="0.1958" style="stop-color:#ffffff"/>
            <stop offset="0.2742" style="stop-color:#ffffff;stop-opacity:0.68377"/>
            <stop offset="0.4437" style="stop-color:#ffffff;stop-opacity:0"/>
            <stop offset="0.629" style="stop-color:#ffffff;stop-opacity:0"/>
            <stop offset="0.851" style="stop-color:#ffffff"/>
          </linearGradient>
          <path class="highlight" fill="url(#33329e12-a7ae-41a7-9c7d-2d0461fcf193)" d="M94.50188,99.90416c0-3.01913-2.83584-4.6039-5.97654-4.6039 c-0.9025,0-1.63731,0.10546-1.94434,0.29803c0.34975,1.90292-1.38661,6.8969-3.19496,12.08296 c-1.78799,5.12768-3.64586,10.4634-3.64586,13.26259c0,2.98759,2.70283,4.59708,5.76376,4.59708 c0.87395,0,1.62981-0.12908,1.94387-0.35564c-0.49374-2.45204,1.84689-8.84362,3.9525-14.75523 C93.00056,105.93726,94.50188,101.75229,94.50188,99.90416z" transform="translate(353.88669 -125.54026)" stroke-width="0" stroke-linejoin="miter" stroke-miterlimit="2" opacity="0.42"/>
          <linearGradient id="365be53d-dfea-4fc4-8f76-2551fd7415f7" gradientUnits="userSpaceOnUse" x1="109.41134" y1="78.10966" x2="100.90043" y2="138.48701">
            <stop offset="0.2411" style="stop-color:#ffffff"/>
            <stop offset="0.2991" style="stop-color:#ffffff;stop-opacity:0.68377"/>
            <stop offset="0.4246" style="stop-color:#ffffff;stop-opacity:0"/>
            <stop offset="0.6287" style="stop-color:#ffffff;stop-opacity:0"/>
            <stop offset="0.8296" style="stop-color:#ffffff"/>
          </linearGradient>
          <path class="highlight" fill="url(#365be53d-dfea-4fc4-8f76-2551fd7415f7)" d="M104.92538,120.09682c0.04804-1.15149,0.36911-2.64533,0.82031-4.12673 c0.37786-1.24062,0.86279-2.58011,1.24145-3.6089c1.85067-5.02824,4.43379-10.21848,4.43379-13.04861 c0-2.535-2.90591-4.01244-5.66653-4.01228c-1.82854,0.0001-3.43336,0.74443-6.9308,4.26643 c1.59239-1.20493,3.1468-2.45596,3.90434-2.15136c1.30618,0.52519-0.87859,5.56157-2.41172,9.90837 c-1.30488,3.69965-3.08694,9.40427-1.76105,13.57397c0.94791,2.98102,3.47039,4.64455,6.45943,4.64455 c2.50431,0,4.42733-1.29443,5.58296-2.19416c-2.80561,1.03037-5.4445,0.53404-5.65523-2.34177 C104.91978,120.69843,104.91768,120.28129,104.92538,120.09682z" transform="translate(353.88669 -125.54026)" stroke-width="0" stroke-linejoin="miter" stroke-miterlimit="2" opacity="0.42"/>
        </g>
        <g id="path46596" aria-label="o" transform="translate(0 309.52) translate(417.1845249999998 36.464) scale(2) translate(-469.04677 30.672)">
          <path class="c1" d="M114.12495,107.68502c-0.13042,0.21276-0.30192,0.56566-0.4666,0.84833 c-1.0564,1.81324-2.48842,3.22099-4.48575,4.4442c-0.86374,0.52897-1.9726,0.92995-3.25664,1.18794 c-1.36436,0.27412-2.92868,0.38866-4.68334,0.38866c-0.36861,0-0.74738-0.02979-1.14869-0.10057 c-2.76942-0.48846-6.12881-2.64433-7.05542-6.11649c-0.43306-0.16671-2.15363,1.86092-2.21946,2.54314 c-0.34583,3.58434,4.69977,7.59862,9.26167,8.34168c1.92244,0.31313,3.85085,0.52525,5.63616,0.15008 c1.89616-0.33604,5.08165-1.40251,7.81327-3.31051c1.08185-0.75566,2.04156-1.74265,2.90125-2.66955 c0.27564-0.30492,0.51221-0.7588,0.72796-1.17077C117.50166,110.77884,115.33974,108.13799,114.12495,107.68502z" transform="translate(386.234456 -125.53967)" stroke-width="0" stroke-linejoin="miter" stroke-miterlimit="2" fill="#c2c2c2" stroke="#c2c2c2"/>
          <path class="c1" d="M97.72968,99.54528c1.11785-0.44994,2.21112-0.43699,2.99859,0.48759 c0.4883,0.57333,0.76524,1.39722,0.94433,2.35292c0.41861,2.23396,0.15078,5.20767-0.23105,7.45582 c-0.2538,1.49439-0.71828,3.08893-1.35761,4.61197c-0.89405,2.12982-2.14515,4.13292-3.77343,5.64227 c-0.98891,0.91667-2.39854,1.48276-3.82578,1.27095c-0.81275-0.12061-1.93721-0.6994-2.24763-2.22482 c-0.30336,0.42496-1.08926,3.05012,0.98332,4.60167c1.25396,0.93873,4.73495,1.38174,7.00739,0.44695 c1.91912-1.11111,3.50026-2.67337,4.80826-4.48019c1.2101-1.67154,2.19102-3.54937,2.87991-5.54492 c0.80135-2.32135,1.26378-4.74721,1.36574-7.12299c0.01389-0.29646,0.01817-0.79854,0.00584-1.08041 c-0.38805-2.88934-1.57756-4.81435-3.12325-5.80342C101.76169,98.62128,99.30902,98.30469,97.72968,99.54528z" transform="translate(386.234456 -125.53967)" stroke-width="0" stroke-linejoin="miter" stroke-miterlimit="2" fill="#c2c2c2" stroke="#c2c2c2"/>
          <path class="c2" d="M83.71391,108.17234c-0.8817,2.93349-1.22253,7.13647-0.53912,10.12162 c1.07435,4.69283,4.94424,7.60883,9.23317,7.60883c2.28902,0,4.24091-0.76531,5.81985-1.71219 c-1.83614,0.66543-7.30485-0.72147-7.99072-5.04862c-0.228-1.43851-0.21906-2.82433,0.05388-4.1845 c0.44907-2.23796,1.36828-4.4204,2.73755-6.6204c1.11989-1.79932,2.56934-3.5582,4.17456-5.18819 c0.21786-0.52602,0.06758-1.82729-0.86426-2.73633c-0.76531-0.74659-1.88976-1.39636-3.74739-1.39636 C87.03612,99.0162,84.46906,105.6599,83.71391,108.17234z" transform="translate(386.234456 -125.53967)" stroke-width="0" stroke-linejoin="miter" stroke-miterlimit="2" fill="#ffffff" stroke="#ffffff"/>
          <path class="c2" d="M99.3308,99.19875c2.36333-0.04308,4.39014,1.07015,5.74612,2.57066 c1.19686,1.32443,1.87947,2.80464,2.21062,4.19267c0.01067-7.73032-3.18896-11.09444-8.18433-11.09441 c-3.5201,0.00003-6.45435,1.69383-8.44176,4.59505c-0.96799,1.41306-1.66833,3.12622-2.09254,5.07912 c1.40849,0.30117,2.57304,0.49553,4.82116,0.76322c0.68538-1.95033,1.56512-3.73148,2.94875-4.8925 c0.40851-0.34279,0.89211-0.64902,1.39086-0.86728C98.20781,99.33604,98.71158,99.21003,99.3308,99.19875z" transform="translate(386.234456 -125.53967)" stroke-width="0" stroke-linejoin="miter" stroke-miterlimit="2" fill="#ffffff" stroke="#ffffff"/>
          <path class="c2" d="M95.09846,116.33974c-3.1614-2.67246-4.05836-7.13094-2.19073-11.33904 c-0.74741-0.88241-3.77068-1.74952-4.33883-0.45885c-0.63954,4.65823,0.16882,8.02032,1.72207,10.41563 c1.5854,2.44492,4.04325,3.81443,6.68639,4.46243c1.19554,0.2931,2.23243,0.33354,3.47299,0.33354 c0.8615,0,1.72822,0.00104,2.58572-0.04304c0.8922-0.06456,1.74601-0.14521,2.67083-0.33843 C103.29151,119.66528,98.64593,119.33855,95.09846,116.33974z" transform="translate(386.234456 -125.53967)" stroke-width="0" stroke-linejoin="miter" stroke-miterlimit="2" fill="#ffffff" stroke="#ffffff"/>
          <linearGradient id="b0fdc585-39e9-4768-ac87-b8b30b652fc6" gradientUnits="userSpaceOnUse" x1="100.20128" y1="118.12177" x2="103.30627" y2="99.03361">
            <stop offset="0.1658" style="stop-color:#ffffff"/>
            <stop offset="0.248" style="stop-color:#ffffff;stop-opacity:0.68377"/>
            <stop offset="0.4257" style="stop-color:#ffffff;stop-opacity:0"/>
            <stop offset="0.5524" style="stop-color:#ffffff;stop-opacity:0"/>
            <stop offset="0.9505" style="stop-color:#ffffff"/>
          </linearGradient>
          <path class="highlight" fill="url(#b0fdc585-39e9-4768-ac87-b8b30b652fc6)" d="M100.7283,100.03285c0.48828,0.5733,0.7652,1.39722,0.94427,2.35291 c0.41864,2.23395,0.15082,5.2077-0.23102,7.45581c-0.25378,1.49438-0.71826,3.08893-1.3576,4.612 c0.40131,0.0708,0.78009,0.10059,1.14868,0.10059c1.75464,0,3.31897-0.11456,4.68335-0.38867 c0.80133-2.32135,1.26379-4.74719,1.36572-7.12299c0.01392-0.29645,0.01819-0.79858,0.00586-1.08044 c-0.33118-1.388-1.01379-2.86823-2.21063-4.19263c-1.35602-1.50055-3.38281-2.61377-5.74615-2.57068 c-0.57287,0.01045-1.1114,0.13056-1.55478,0.32658c0.17403-0.06267,0.40405-0.14551,0.65887-0.19955 C99.34628,99.13244,100.13374,99.3348,100.7283,100.03285z" transform="translate(386.234456 -125.53967)" stroke-width="0" stroke-linejoin="miter" stroke-miterlimit="2" opacity="0.42"/>
          <linearGradient id="6ed5bae9-1947-4706-880e-c25bfae0be6e" gradientUnits="userSpaceOnUse" x1="93.77496" y1="125.10794" x2="98.41089" y2="115.90327">
            <stop offset="0.1199" style="stop-color:#ffffff"/>
            <stop offset="0.2128" style="stop-color:#ffffff;stop-opacity:0.68377"/>
            <stop offset="0.4138" style="stop-color:#ffffff;stop-opacity:0"/>
            <stop offset="0.8068" style="stop-color:#ffffff"/>
          </linearGradient>
          <path class="highlight" fill="url(#6ed5bae9-1947-4706-880e-c25bfae0be6e)" d="M96.98377,119.42148c-0.23858,0.25696-0.44823,0.46579-0.67326,0.67436 c-0.98889,0.91669-2.39856,1.48273-3.82581,1.27094c-0.81274-0.12061-1.93719-0.6994-2.24762-2.22479 c0.68585,4.32715,6.1546,5.71405,7.99072,5.04858c1.91913-1.11108,3.50024-2.67334,4.80823-4.48016 c-0.85748,0.04407-1.72418,0.04303-2.58569,0.04303C99.19577,119.75343,98.1928,119.71319,96.98377,119.42148z" transform="translate(386.234456 -125.53967)" stroke-width="0" stroke-linejoin="miter" stroke-miterlimit="2" opacity="0.42"/>
          <linearGradient id="9dac1048-97db-4793-b17a-821ff694bb94" gradientUnits="userSpaceOnUse" x1="86.7309" y1="97.85494" x2="109.17615" y2="115.54637">
            <stop offset="0.3544" style="stop-color:#ffffff"/>
            <stop offset="0.5267" style="stop-color:#ffffff;stop-opacity:0.6747"/>
            <stop offset="0.8274" style="stop-color:#ffffff;stop-opacity:0.10662"/>
            <stop offset="0.8839" style="stop-color:#ffffff;stop-opacity:0"/>
          </linearGradient>
          <path class="highlight" fill="url(#9dac1048-97db-4793-b17a-821ff694bb94)" d="M114.12497,107.68501c-0.13043,0.21277-0.30194,0.56567-0.46661,0.84833 c-1.0564,1.81323-2.4884,3.22101-4.48578,4.44421c-0.86371,0.52893-1.9726,0.92993-3.25659,1.18793 c-1.36438,0.27411-2.92871,0.38867-4.68335,0.38867c-0.36859,0-0.74738-0.02979-1.14868-0.10059 c-2.76941-0.48846-6.12885-2.64435-7.05542-6.11652c-0.43388,0.6971-0.82123,1.39786-1.05495,1.86728 c0.10735,1.28756,0.4619,2.478,1.02422,3.5366c0.5267,0.99152,1.23544,1.86738,2.10068,2.59881 c3.54742,2.99878,8.19305,3.3255,10.6084,3.03223c1.89618-0.33606,5.08167-1.40253,7.81329-3.31049 c1.08185-0.75568,2.04156-1.74268,2.90125-2.66956c0.27563-0.30493,0.51221-0.75879,0.72797-1.17078 C117.50168,110.77882,115.33975,108.13795,114.12497,107.68501z" transform="translate(386.234456 -125.53967)" stroke-width="0" stroke-linejoin="miter" stroke-miterlimit="2" opacity="0.42"/>
          <linearGradient id="3cc30398-befc-4460-964d-36719bd3b6a4" gradientUnits="userSpaceOnUse" x1="99.99342" y1="86.42375" x2="86.5877" y2="130.63762">
            <stop offset="0.1903" style="stop-color:#ffffff"/>
            <stop offset="0.2794" style="stop-color:#ffffff;stop-opacity:0.68377"/>
            <stop offset="0.472" style="stop-color:#ffffff;stop-opacity:0"/>
            <stop offset="0.7046" style="stop-color:#ffffff;stop-opacity:0"/>
            <stop offset="0.9412" style="stop-color:#ffffff"/>
          </linearGradient>
          <path class="highlight" fill="url(#3cc30398-befc-4460-964d-36719bd3b6a4)" d="M83.71391,108.17234c-0.8817,2.93349-1.22253,7.13647-0.53912,10.12162 c1.07435,4.69283,4.94424,7.60883,9.23317,7.60883c2.28902,0,4.24091-0.76531,5.81985-1.71219 c-1.83614,0.66543-7.30485-0.72147-7.99072-5.04862c-0.228-1.43851-0.21906-2.82433,0.05388-4.1845 c0.44907-2.23796,1.36828-4.4204,2.73755-6.6204c1.11989-1.79932,2.56934-3.5582,4.17456-5.18819 c0.21786-0.52602,0.06758-1.82729-0.86426-2.73633c-0.76531-0.74659-1.88976-1.39636-3.74739-1.39636 C87.03612,99.0162,84.46906,105.6599,83.71391,108.17234z" transform="translate(386.234456 -125.53967)" stroke-width="0" stroke-linejoin="miter" stroke-miterlimit="2" opacity="0.42"/>
          <linearGradient id="aa62dcb7-a088-4a51-893f-f6f7c85763a2" gradientUnits="userSpaceOnUse" x1="89.16083" y1="111.97124" x2="105.57887" y2="121.81137">
            <stop offset="0.0329" style="stop-color:#ffffff"/>
            <stop offset="0.2375" style="stop-color:#ffffff;stop-opacity:0.4561"/>
            <stop offset="0.4091" style="stop-color:#ffffff;stop-opacity:0"/>
            <stop offset="0.4898" style="stop-color:#ffffff;stop-opacity:0"/>
            <stop offset="0.6455" style="stop-color:#ffffff;stop-opacity:0.36278"/>
            <stop offset="0.8008" style="stop-color:#ffffff;stop-opacity:0.72466"/>
            <stop offset="0.919" style="stop-color:#ffffff"/>
          </linearGradient>
          <path class="highlight" fill="url(#aa62dcb7-a088-4a51-893f-f6f7c85763a2)" d="M95.09848,116.33974c-1.22152-1.03259-2.10407-2.32778-2.62077-3.77813 c-0.26219-0.73595-0.43421-1.50974-0.50414-2.35728c-0.79614,1.57214-1.36112,3.15085-1.68259,4.75314 c1.58539,2.44489,4.04321,3.81445,6.6864,4.4624c1.1955,0.29309,2.23242,0.33356,3.47296,0.33356 c0.86151,0,1.72821,0.00104,2.58569-0.04303c0.89221-0.06458,1.74603-0.1452,2.67084-0.33844 C103.29153,119.66524,98.6459,119.33852,95.09848,116.33974z" transform="translate(386.234456 -125.53967)" stroke-width="0" stroke-linejoin="miter" stroke-miterlimit="2" opacity="0.42"/>
          <linearGradient id="ef8346d3-d569-493f-b5dd-3edf44f7bd5b" gradientUnits="userSpaceOnUse" x1="95.46391" y1="109.89899" x2="105.54234" y2="89.39047">
            <stop offset="0.33" style="stop-color:#ffffff"/>
            <stop offset="0.4036" style="stop-color:#ffffff;stop-opacity:0.68377"/>
            <stop offset="0.5627" style="stop-color:#ffffff;stop-opacity:0"/>
          </linearGradient>
          <path class="highlight" fill="url(#ef8346d3-d569-493f-b5dd-3edf44f7bd5b)" d="M99.10324,94.86769c-3.43744,0-6.31605,1.61504-8.30006,4.39244 c0.55774-0.15698,1.15443-0.24394,1.78822-0.24394c1.85767,0,2.98212,0.64978,3.74744,1.39636 c0.40851-0.34277,0.89209-0.64905,1.39087-0.86731c0.47809-0.20923,0.98187-0.33521,1.60107-0.3465 c2.36334-0.04309,4.39014,1.07013,5.74615,2.57068c1.19684,1.3244,1.87946,2.80463,2.21063,4.19263 C107.29825,98.23177,104.0986,94.86763,99.10324,94.86769z" transform="translate(386.234456 -125.53967)" stroke-width="0" stroke-linejoin="miter" stroke-miterlimit="2" opacity="0.42"/>
          <linearGradient id="76ba3f50-a0c8-4ea4-a555-4b35f3e0b078" gradientUnits="userSpaceOnUse" x1="109.57618" y1="107.23627" x2="91.66901" y2="93.41862">
            <stop offset="0.0159" style="stop-color:#ffffff"/>
            <stop offset="0.1427" style="stop-color:#ffffff;stop-opacity:0.72368"/>
            <stop offset="0.3172" style="stop-color:#ffffff;stop-opacity:0.34358"/>
            <stop offset="0.4749" style="stop-color:#ffffff;stop-opacity:0"/>
          </linearGradient>
          <path class="highlight" fill="url(#76ba3f50-a0c8-4ea4-a555-4b35f3e0b078)" d="M99.10324,94.86769c-3.43744,0-6.31605,1.61504-8.30006,4.39244 c0.55774-0.15698,1.15443-0.24394,1.78822-0.24394c1.85767,0,2.98212,0.64978,3.74744,1.39636 c0.40851-0.34277,0.89209-0.64905,1.39087-0.86731c0.47809-0.20923,0.98187-0.33521,1.60107-0.3465 c2.36334-0.04309,4.39014,1.07013,5.74615,2.57068c1.19684,1.3244,1.87946,2.80463,2.21063,4.19263 C107.29825,98.23177,104.0986,94.86763,99.10324,94.86769z" transform="translate(386.234456 -125.53967)" stroke-width="0" stroke-linejoin="miter" stroke-miterlimit="2" opacity="0.42"/>
        </g>
        <g id="path46598" aria-label="w" transform="translate(0 309.52) translate(476.2394849999999 37.328) scale(2) translate(-498.57425 30.24)">
          <path class="c1" d="M89.31495,113.30123c-1.42222,3.30919-4.2625,7.60713-5.55713,7.56048 c-1.16699-0.04205-1.66124-1.55565-1.89951-3.28197c-0.93658,1.23185,0.63705,5.35588,1.48472,6.15835 c0.84768,0.80247,2.35001,1.73323,4.73264,0.2784c1.32318-1.15082,2.32482-2.34144,3.11232-3.51409 c0.61088-0.90965,1.04163-1.84375,1.43262-2.75761C92.62502,116.56236,89.9116,113.15128,89.31495,113.30123z" transform="translate(424.66848 -125.54025)" stroke-width="0" stroke-linejoin="miter" stroke-miterlimit="2" fill="#c2c2c2" stroke="#c2c2c2"/>
          <path class="c2" d="M73.90577,111.7546c0,8.82763,4.71457,14.14819,9.43359,14.14819c1.60358,0,3.06844-0.5556,4.73631-1.8863 c-1.41831,0.514-5.30359,1.12113-6.21736-6.43675c-0.23515-2.35989-0.21467-4.89267,0.26761-7.49162 c0.10885-0.56794,0.29635-1.1589,0.44738-1.7095c1.01952-3.71664,2.91283-7.0675,5.52255-9.19038 c0.20038-0.94967-1.75302-3.8877-5.65221-3.88799C77.60332,95.29988,73.90577,102.02026,73.90577,111.7546z" transform="translate(424.66848 -125.54025)" stroke-width="0" stroke-linejoin="miter" stroke-miterlimit="2" fill="#ffffff" stroke="#ffffff"/>
          <path class="c1" d="M123.01417,107.68502c-0.59073,1.10055-1.23431,2.15685-1.93439,3.26672 c-1.9376,3.07175-4.26109,5.66351-7.82224,5.66182c-2.61345-0.00124-4.5148-2.01254-5.29219-4.46468 c-0.68763-2.16904-0.71868-4.93641,0.18629-7.81944c-0.58351,0.11842-3.48006,6.01531-3.54581,6.69675 c-0.34544,3.58023,3.52552,10.40904,8.47728,10.40904c5.66326,0,9.12746-3.36803,11.54769-6.89954 c0.54612-0.75118,1.15116-1.68035,1.4078-2.31454C126.47621,110.95291,124.22533,108.11092,123.01417,107.68502z" transform="translate(424.66848 -125.54025)" stroke-width="0" stroke-linejoin="miter" stroke-miterlimit="2" fill="#c2c2c2" stroke="#c2c2c2"/>
          <path class="c1" d="M111.70948,99.97994c0.36077,2.15952-0.74879,5.95891-2.11948,9.04554 c-0.38164,0.85938-1.27995,2.65878-1.62977,3.10672c-0.79296,1.4753-1.86729,3.19495-3.09112,4.90329 c-1.57032,2.19203-3.27155,3.89804-4.58926,3.89804c-1.84741,0-2.71007-2.11507-2.98263-4.30287 c-0.93658,1.23185,0.80984,6.28363,1.65752,7.0861c0.84767,0.80247,3.86117,1.4476,6.2438-0.00723 c1.50011-1.12226,2.50875-2.09566,3.41098-3.20722c1.3119-1.61628,2.31126-3.41763,3.54168-5.50339 c2.0321-3.44473,3.31935-7.54464,3.95006-10.06098c0.49935-3.2615-0.33436-3.61526-1.37801-4.84103 C113.6796,98.87115,111.77337,99.31705,111.70948,99.97994z" transform="translate(424.66848 -125.54025)" stroke-width="0" stroke-linejoin="miter" stroke-miterlimit="2" fill="#c2c2c2" stroke="#c2c2c2"/>
          <path class="c2" d="M89.31495,113.30123c0.17129,2.85537,0.86225,5.26258,1.87305,7.20117 c1.81139,3.47401,4.67914,5.40039,7.63184,5.40039c2.51769,0,4.60492-0.96995,6.37872-2.19326 c-1.45155,0.52605-6.97787,1.02608-7.90133-7.07887c-0.68694-6.02914,1.57353-13.60203,6.06425-17.37015 c0.11723-1.42585-2.14682-3.96026-5.85012-3.96026c-2.35092,0-4.14069,1.44756-5.46333,3.55303 c-1.97388,3.14217-2.89013,7.77365-2.93987,11.43898C89.09298,111.41064,89.17944,112.43726,89.31495,113.30123z" transform="translate(424.66848 -125.54025)" stroke-width="0" stroke-linejoin="miter" stroke-miterlimit="2" fill="#ffffff" stroke="#ffffff"/>
          <path class="c2" d="M112.14943,95.30054c-5.25854,0-8.35023,5.7953-9.16486,11.01385 c-0.56738,3.63464-0.00641,7.85017,1.88454,10.72111c0.93858,1.51317,2.09167,2.70448,3.74043,3.46682 c1.2454,0.57584,2.79153,0.93293,4.47356,0.93293c-5.04223-1.60384-7.69519-9.14664-4.93147-17.1058 c0.28889-0.83199,0.67324-1.68429,1.18778-2.41229c0.62843-0.88912,1.48906-1.61094,2.37007-1.93721 c0.32648-0.10625,0.72445-0.17612,1.08959-0.16116c2.17855,0.08926,3.515,1.85772,3.3022,5.11916 C117.53302,99.36089,116.05822,95.30054,112.14943,95.30054z" transform="translate(424.66848 -125.54025)" stroke-width="0" stroke-linejoin="miter" stroke-miterlimit="2" fill="#ffffff" stroke="#ffffff"/>
          <linearGradient id="e5590f2c-bef2-41ad-a942-d2bd82d00c6a" gradientUnits="userSpaceOnUse" x1="106.91945" y1="117.33825" x2="117.09146" y2="97.45139">
            <stop offset="0.1291" style="stop-color:#ffffff"/>
            <stop offset="0.2226" style="stop-color:#ffffff;stop-opacity:0.68377"/>
            <stop offset="0.4248" style="stop-color:#ffffff;stop-opacity:0"/>
            <stop offset="0.6348" style="stop-color:#ffffff;stop-opacity:0"/>
            <stop offset="0.8353" style="stop-color:#ffffff"/>
          </linearGradient>
          <path class="highlight" fill="url(#e5590f2c-bef2-41ad-a942-d2bd82d00c6a)" d="M116.10123,104.93794c0.21289-3.26147-1.12354-5.02991-3.30212-5.1192 c-0.36511-0.01495-0.76306,0.05493-1.0896,0.16119c0.36072,2.15955-0.74878,5.95892-2.11951,9.04553 c-0.38147,0.85907-1.2793,2.65729-1.62939,3.10608c0.00183,0.00562,0.00293,0.01172,0.00476,0.01733 c0.58044,1.8313,1.78894,3.41486,3.45154,4.10083c0.2395-0.40778,0.47998-0.81958,0.73438-1.25079 C114.18326,111.55415,115.47061,107.4543,116.10123,104.93794z" transform="translate(424.66848 -125.54025)" stroke-width="0" stroke-linejoin="miter" stroke-miterlimit="2" opacity="0.42"/>
          <linearGradient id="82fcdb6c-749f-405f-a7a8-37bc9158a0e8" gradientUnits="userSpaceOnUse" x1="81.81461" y1="124.14716" x2="91.40838" y2="114.12588">
            <stop offset="0.1342" style="stop-color:#ffffff"/>
            <stop offset="0.2226" style="stop-color:#ffffff;stop-opacity:0.68377"/>
            <stop offset="0.4137" style="stop-color:#ffffff;stop-opacity:0"/>
            <stop offset="0.5515" style="stop-color:#ffffff;stop-opacity:0"/>
            <stop offset="0.8435" style="stop-color:#ffffff"/>
          </linearGradient>
          <path class="highlight" fill="url(#82fcdb6c-749f-405f-a7a8-37bc9158a0e8)" d="M83.75784,120.86171c-1.16699-0.04205-1.66125-1.55566-1.89954-3.28198 c0.91382,7.55786,4.79907,6.95074,6.21729,6.43677c1.32324-1.15082,2.32495-2.34143,3.11243-3.5141 c-1.01086-1.9386-1.70178-4.34583-1.87305-7.20117C87.89273,116.61043,85.0524,120.90834,83.75784,120.86171z" transform="translate(424.66848 -125.54025)" stroke-width="0" stroke-linejoin="miter" stroke-miterlimit="2" opacity="0.42"/>
          <radialGradient id="42d92434-b9fc-4cd0-b86f-7c63f34dbd50" cx="128.69341" cy="104.36015" r="29.47271" gradientUnits="userSpaceOnUse" transform="translate(424.66848 -125.54025)">
            <stop offset="0.5941" style="stop-color:#ffffff;stop-opacity:0"/>
            <stop offset="0.8387" style="stop-color:#ffffff"/>
          </radialGradient>
          <path class="highlight" fill="url(#42d92434-b9fc-4cd0-b86f-7c63f34dbd50)" d="M123.01419,107.68501c-0.5907,1.10052-1.23425,2.15686-1.93445,3.26672 c-1.9375,3.07172-4.26099,5.66351-7.82227,5.6618c-2.6134-0.00122-4.51477-2.01251-5.29211-4.46466 c-0.68762-2.16907-0.71863-4.9364,0.18628-7.81946c-2.76379,7.95917-0.11072,15.50195,4.93152,17.10577 c5.66321,0,9.12744-3.36798,11.54761-6.89954c0.54614-0.75116,1.15112-1.68036,1.40784-2.31451 C126.47623,110.9529,124.22525,108.11092,123.01419,107.68501z" transform="translate(424.66848 -125.54025)" stroke-width="0" stroke-linejoin="miter" stroke-miterlimit="2" opacity="0.42"/>
          <linearGradient id="89ddcf34-0b9b-4dd6-aa6e-800a2b65c916" gradientUnits="userSpaceOnUse" x1="98.84825" y1="123.15527" x2="106.10336" y2="115.07364">
            <stop offset="0.0463" style="stop-color:#ffffff"/>
            <stop offset="0.152" style="stop-color:#ffffff;stop-opacity:0.68377"/>
            <stop offset="0.3804" style="stop-color:#ffffff;stop-opacity:0"/>
            <stop offset="0.5823" style="stop-color:#ffffff;stop-opacity:0"/>
            <stop offset="0.8406" style="stop-color:#ffffff"/>
          </linearGradient>
          <path class="highlight" fill="url(#89ddcf34-0b9b-4dd6-aa6e-800a2b65c916)" d="M104.86905,117.03548c-1.57031,2.19202-3.27148,3.89801-4.58911,3.89801 c-1.84741,0-2.71021-2.11505-2.98267-4.30286c0.92334,8.10498,6.44971,7.60492,7.90137,7.07886 c1.5-1.12225,2.50867-2.09564,3.41089-3.20721C106.96085,119.73994,105.80777,118.54866,104.86905,117.03548z" transform="translate(424.66848 -125.54025)" stroke-width="0" stroke-linejoin="miter" stroke-miterlimit="2" opacity="0.42"/>
          <linearGradient id="b6c78cec-e3e6-42b3-aa0e-e1639df0b16e" gradientUnits="userSpaceOnUse" x1="83.13942" y1="76.72452" x2="79.87972" y2="138.4194">
            <stop offset="0.16" style="stop-color:#ffffff"/>
            <stop offset="0.2623" style="stop-color:#ffffff;stop-opacity:0.68377"/>
            <stop offset="0.4834" style="stop-color:#ffffff;stop-opacity:0"/>
            <stop offset="0.6237" style="stop-color:#ffffff;stop-opacity:0"/>
            <stop offset="0.8311" style="stop-color:#ffffff"/>
          </linearGradient>
          <path class="highlight" fill="url(#b6c78cec-e3e6-42b3-aa0e-e1639df0b16e)" d="M73.90577,111.7546c0,8.82763,4.71457,14.14819,9.43359,14.14819 c1.60358,0,3.06844-0.5556,4.73631-1.8863c-1.41831,0.514-5.30359,1.12113-6.21736-6.43675 c-0.23515-2.35989-0.21467-4.89267,0.26761-7.49162c0.10885-0.56794,0.29635-1.1589,0.44738-1.7095 c1.01952-3.71664,2.91283-7.0675,5.52255-9.19038c0.20038-0.94967-1.75302-3.8877-5.65221-3.88799 C77.60332,95.29988,73.90577,102.02026,73.90577,111.7546z" transform="translate(424.66848 -125.54025)" stroke-width="0" stroke-linejoin="miter" stroke-miterlimit="2" opacity="0.42"/>
          <linearGradient id="987fe4a7-f2a6-4c51-af62-9b351cc82822" gradientUnits="userSpaceOnUse" x1="99.22483" y1="75.55314" x2="96.12887" y2="137.25645">
            <stop offset="0.2129" style="stop-color:#ffffff"/>
            <stop offset="0.3045" style="stop-color:#ffffff;stop-opacity:0.68377"/>
            <stop offset="0.5027" style="stop-color:#ffffff;stop-opacity:0"/>
            <stop offset="0.6344" style="stop-color:#ffffff;stop-opacity:0"/>
            <stop offset="0.8542" style="stop-color:#ffffff"/>
          </linearGradient>
          <path class="highlight" fill="url(#987fe4a7-f2a6-4c51-af62-9b351cc82822)" d="M89.31495,113.30123c0.17129,2.85537,0.86225,5.26258,1.87305,7.20117 c1.81139,3.47401,4.67914,5.40039,7.63184,5.40039c2.51769,0,4.60492-0.96995,6.37872-2.19326 c-1.45155,0.52605-6.97787,1.02608-7.90133-7.07887c-0.68694-6.02914,1.57353-13.60203,6.06425-17.37015 c0.11723-1.42585-2.14682-3.96026-5.85012-3.96026c-2.35092,0-4.14069,1.44756-5.46333,3.55303 c-1.97388,3.14217-2.89013,7.77365-2.93987,11.43898C89.09298,111.41064,89.17944,112.43726,89.31495,113.30123z" transform="translate(424.66848 -125.54025)" stroke-width="0" stroke-linejoin="miter" stroke-miterlimit="2" opacity="0.42"/>
          <linearGradient id="d5d4d728-beec-4a99-82d1-a9fc4141559a" gradientUnits="userSpaceOnUse" x1="125.22826" y1="102.11478" x2="98.12141" y2="114.79243">
            <stop offset="0.1578" style="stop-color:#ffffff"/>
            <stop offset="0.2544" style="stop-color:#ffffff;stop-opacity:0.68377"/>
            <stop offset="0.4631" style="stop-color:#ffffff;stop-opacity:0"/>
          </linearGradient>
          <path class="highlight" fill="url(#d5d4d728-beec-4a99-82d1-a9fc4141559a)" d="M112.14943,95.30054c-5.25854,0-8.35023,5.7953-9.16486,11.01385 c-0.56738,3.63464-0.00641,7.85017,1.88454,10.72111c0.93858,1.51317,2.09167,2.70448,3.74043,3.46682 c1.2454,0.57584,2.79153,0.93293,4.47356,0.93293c-5.04223-1.60384-7.69519-9.14664-4.93147-17.1058 c0.28889-0.83199,0.67324-1.68429,1.18778-2.41229c0.62843-0.88912,1.48906-1.61094,2.37007-1.93721 c0.32648-0.10625,0.72445-0.17612,1.08959-0.16116c2.17855,0.08926,3.515,1.85772,3.3022,5.11916 C117.53302,99.36089,116.05822,95.30054,112.14943,95.30054z" transform="translate(424.66848 -125.54025)" stroke-width="0" stroke-linejoin="miter" stroke-miterlimit="2" opacity="0.42"/>
          <linearGradient id="c46a7aef-b03d-459e-9835-8fe4831d92a2" gradientUnits="userSpaceOnUse" x1="104.64178" y1="124.08176" x2="112.40375" y2="99.83839">
            <stop offset="0.1515" style="stop-color:#ffffff"/>
            <stop offset="0.2837" style="stop-color:#ffffff;stop-opacity:0.68377"/>
            <stop offset="0.5698" style="stop-color:#ffffff;stop-opacity:0"/>
          </linearGradient>
          <path class="highlight" fill="url(#c46a7aef-b03d-459e-9835-8fe4831d92a2)" d="M112.14943,95.30054c-5.25854,0-8.35023,5.7953-9.16486,11.01385 c-0.56738,3.63464-0.00641,7.85017,1.88454,10.72111c0.93858,1.51317,2.09167,2.70448,3.74043,3.46682 c1.2454,0.57584,2.79153,0.93293,4.47356,0.93293c-5.04223-1.60384-7.69519-9.14664-4.93147-17.1058 c0.28889-0.83199,0.67324-1.68429,1.18778-2.41229c0.62843-0.88912,1.48906-1.61094,2.37007-1.93721 c0.32648-0.10625,0.72445-0.17612,1.08959-0.16116c2.17855,0.08926,3.515,1.85772,3.3022,5.11916 C117.53302,99.36089,116.05822,95.30054,112.14943,95.30054z" transform="translate(424.66848 -125.54025)" stroke-width="0" stroke-linejoin="miter" stroke-miterlimit="2" opacity="0.42"/>
        </g>
        <g id="path46600" aria-label="j" transform="translate(0 309.52) translate(520.9087249999998 11.552) scale(2) translate(-520.90887 43.128)">
          <path class="c1" d="M119.99605,107.69497c-0.31581,0.63342-0.73853,1.40195-1.20057,2.16225 c-2.71365,4.46538-6.21795,7.77992-10.10509,10.57291c-2.0152,1.44796-4.09991,2.73083-6.30135,4.01394 c-1.64781,0.96043-3.28123,1.81396-4.85881,2.68235c-3.4683,1.90913-7.03732,3.70585-10.21676,5.47506 c-5.9007,3.28346-10.44473,6.45482-10.44473,11.20317c0.44968,2.21631,2.45135,3.12936,3.16088,3.2614 c0.53598,0.09973,3.01029,0.19359,3.22494-0.21014c-1.11977,0-2.24483-0.65222-2.48221-1.68396 c-0.1929-0.83842,0.30647-1.93465,1.22867-3.06134c1.07643-1.31514,2.73554-2.69557,4.51656-3.89378 c2.44427-1.64445,5.4323-3.17357,8.4126-4.60994c2.97265-1.43268,5.93732-2.77284,8.55028-4.21718 c6.92677-3.82883,11.92985-7.00511,17.27489-13.58863c0.7327-0.90247,1.82615-2.5556,2.33641-3.56998 C123.46766,110.76538,121.06239,108.02513,119.99605,107.69497z" transform="translate(444.04013 -125.5389)" stroke-width="0" stroke-linejoin="miter" stroke-miterlimit="2" fill="#c2c2c2" stroke="#c2c2c2"/>
          <path class="c2" d="M114.45113,99.9186c0-2.98666-3.48648-4.6084-6.62621-4.6084c-0.87367,0-1.63735,0.07468-1.94215,0.28809 c0.44683,1.71455-2.69653,14.7627-6.78126,27.11471c-0.50903,1.53931-1.05264,3.00774-1.57128,4.41343 c-0.88161,2.38941-1.69937,4.49512-2.60005,6.48046c-3.83247,8.44781-7.8769,13.22017-11.67561,13.24902 c-2.39478,0.0182-5.79874-1.17676-6.38582-3.05125c0,1.76848,0.99039,3.22502,2.24415,4.24188 c1.67519,1.35866,3.93568,1.97842,5.64824,1.97842c8.28118,0,15.50779-6.51906,23.02113-27.06915 c0.26406-0.72222,0.57909-1.56862,0.90813-2.52568C110.96811,113.80494,114.45113,102.50481,114.45113,99.9186z" transform="translate(444.04013 -125.5389)" stroke-width="0" stroke-linejoin="miter" stroke-miterlimit="2" fill="#ffffff" stroke="#ffffff"/>
          <path class="c2" d="M115.54976,84.88791c-0.77908-1.59617-3.06155-2.47701-5.15551-2.47701 c-0.76266,0-1.48479,0.07134-1.77062,0.21582c0.28091,1.47529-0.72507,3.14445-0.72507,5.15635 c0,2.62446,2.68847,3.9166,5.32679,3.9166c0.76268,0,1.43523,0.0003,1.73421-0.21552 c-0.11552-0.35622-0.15617-0.83167-0.08199-1.29293C115.1448,88.5292,116.17984,86.17883,115.54976,84.88791z" transform="translate(444.04013 -125.5389)" stroke-width="0" stroke-linejoin="miter" stroke-miterlimit="2" fill="#ffffff" stroke="#ffffff"/>
          <linearGradient id="adc641fd-a9e0-4f42-8656-0b3a536597bd" gradientUnits="userSpaceOnUse" x1="100.99837" y1="141.87352" x2="76.4046" y2="131.49966">
            <stop offset="0.2981" style="stop-color:#ffffff"/>
            <stop offset="0.3712" style="stop-color:#ffffff;stop-opacity:0.68377"/>
            <stop offset="0.5292" style="stop-color:#ffffff;stop-opacity:0"/>
          </linearGradient>
          <path class="highlight" fill="url(#adc641fd-a9e0-4f42-8656-0b3a536597bd)" d="M83.25455,146.85591c-1.11975,0-2.24481-0.65222-2.48218-1.68396 c-0.19293-0.83844,0.30646-1.93469,1.22864-3.06134c1.07648-1.31519,2.73553-2.69556,4.5166-3.8938 c2.44421-1.64447,5.43225-3.17358,8.41254-4.60992c0.9007-1.98535,1.71851-4.09106,2.6001-6.48047 c-3.46832,1.90912-7.03735,3.70581-10.2168,5.47504c-5.9007,3.28351-10.4447,6.45483-10.4447,11.20319 C77.45584,145.67915,80.85977,146.8741,83.25455,146.85591z" transform="translate(444.04013 -125.5389)" stroke-width="0" stroke-linejoin="miter" stroke-miterlimit="2" opacity="0.42"/>
          <radialGradient id="1fc2ae10-7207-4274-a062-55240800310f" cx="122.91627" cy="102.33328" r="72.85945" gradientUnits="userSpaceOnUse" transform="translate(444.04013 -125.5389)">
            <stop offset="0.6993" style="stop-color:#ffffff;stop-opacity:0"/>
            <stop offset="0.8669" style="stop-color:#ffffff"/>
          </radialGradient>
          <path class="highlight" fill="url(#1fc2ae10-7207-4274-a062-55240800310f)" d="M83.25455,146.85591c-1.11975,0-2.24481-0.65222-2.48218-1.68396 c-0.19293-0.83844,0.30646-1.93469,1.22864-3.06134c1.07648-1.31519,2.73553-2.69556,4.5166-3.8938 c2.44421-1.64447,5.43225-3.17358,8.41254-4.60992c0.9007-1.98535,1.71851-4.09106,2.6001-6.48047 c-3.46832,1.90912-7.03735,3.70581-10.2168,5.47504c-5.9007,3.28351-10.4447,6.45483-10.4447,11.20319 C77.45584,145.67915,80.85977,146.8741,83.25455,146.85591z" transform="translate(444.04013 -125.5389)" stroke-width="0" stroke-linejoin="miter" stroke-miterlimit="2" opacity="0.42"/>
          <linearGradient id="ac22e2f4-42d7-497b-bda8-6d39116d0f36" gradientUnits="userSpaceOnUse" x1="101.22081" y1="115.9735" x2="123.36747" y2="119.61644">
            <stop offset="0.255" style="stop-color:#ffffff"/>
            <stop offset="0.3945" style="stop-color:#ffffff;stop-opacity:0.68377"/>
            <stop offset="0.6962" style="stop-color:#ffffff;stop-opacity:0"/>
          </linearGradient>
          <path class="highlight" fill="url(#ac22e2f4-42d7-497b-bda8-6d39116d0f36)" d="M119.99606,107.69496c-0.31586,0.63342-0.73853,1.40192-1.20056,2.16223 c-2.71368,4.46539-6.21796,7.77991-10.1051,10.57294c-0.32904,0.95703-0.6441,1.80347-0.90814,2.5257 c-0.66626,1.82239-1.33026,3.52911-1.99298,5.13605c5.76764-3.30426,10.23425-6.46259,14.96606-12.29083 c0.73267-0.90247,1.82617-2.55554,2.33643-3.56995C123.46768,110.7654,121.06241,108.0251,119.99606,107.69496z" transform="translate(444.04013 -125.5389)" stroke-width="0" stroke-linejoin="miter" stroke-miterlimit="2" opacity="0.42"/>
          <linearGradient id="1da84360-5dda-4e04-ba81-bf708435b89a" gradientUnits="userSpaceOnUse" x1="113.70592" y1="61.1692" x2="92.3998" y2="133.90388">
            <stop offset="0.2772" style="stop-color:#ffffff"/>
            <stop offset="0.3951" style="stop-color:#ffffff;stop-opacity:0.68377"/>
            <stop offset="0.6499" style="stop-color:#ffffff;stop-opacity:0"/>
          </linearGradient>
          <path class="highlight" fill="url(#1da84360-5dda-4e04-ba81-bf708435b89a)" d="M114.45113,99.9186c0-2.98666-3.48648-4.6084-6.62621-4.6084 c-0.87367,0-1.63735,0.07468-1.94215,0.28809c0.44683,1.71455-2.69653,14.7627-6.78126,27.11471 c-0.50903,1.53931-1.05264,3.00774-1.57128,4.41343c-0.88161,2.38941-1.69937,4.49512-2.60005,6.48046 c-3.83247,8.44781-7.8769,13.22017-11.67561,13.24902c-2.39478,0.0182-5.79874-1.17676-6.38582-3.05125 c0,1.76848,0.99039,3.22502,2.24415,4.24188c1.67519,1.35866,3.93568,1.97842,5.64824,1.97842 c8.28118,0,15.50779-6.51906,23.02113-27.06915c0.26406-0.72222,0.57909-1.56862,0.90813-2.52568 C110.96811,113.80494,114.45113,102.50481,114.45113,99.9186z" transform="translate(444.04013 -125.5389)" stroke-width="0" stroke-linejoin="miter" stroke-miterlimit="2" opacity="0.42"/>
          <radialGradient id="cec53246-1f19-42b5-8a10-48056f43d15b" cx="124.36438" cy="81.96113" r="92.19522" gradientUnits="userSpaceOnUse" transform="translate(444.04013 -125.5389)">
            <stop offset="0.6647" style="stop-color:#ffffff;stop-opacity:0"/>
            <stop offset="0.9396" style="stop-color:#ffffff"/>
          </radialGradient>
          <path class="highlight" fill="url(#cec53246-1f19-42b5-8a10-48056f43d15b)" d="M114.45113,99.9186c0-2.98666-3.48648-4.6084-6.62621-4.6084 c-0.87367,0-1.63735,0.07468-1.94215,0.28809c0.44683,1.71455-2.69653,14.7627-6.78126,27.11471 c-0.50903,1.53931-1.05264,3.00774-1.57128,4.41343c-0.88161,2.38941-1.69937,4.49512-2.60005,6.48046 c-3.83247,8.44781-7.8769,13.22017-11.67561,13.24902c-2.39478,0.0182-5.79874-1.17676-6.38582-3.05125 c0,1.76848,0.99039,3.22502,2.24415,4.24188c1.67519,1.35866,3.93568,1.97842,5.64824,1.97842 c8.28118,0,15.50779-6.51906,23.02113-27.06915c0.26406-0.72222,0.57909-1.56862,0.90813-2.52568 C110.96811,113.80494,114.45113,102.50481,114.45113,99.9186z" transform="translate(444.04013 -125.5389)" stroke-width="0" stroke-linejoin="miter" stroke-miterlimit="2" opacity="0.42"/>
          <linearGradient id="ae3d114a-dbed-4f35-a635-1fe8cd596ba5" gradientUnits="userSpaceOnUse" x1="114.60188" y1="75.31095" x2="108.35741" y2="101.40728">
            <stop offset="0.1677" style="stop-color:#ffffff"/>
            <stop offset="0.2346" style="stop-color:#ffffff;stop-opacity:0.68377"/>
            <stop offset="0.3792" style="stop-color:#ffffff;stop-opacity:0"/>
            <stop offset="0.5326" style="stop-color:#ffffff;stop-opacity:0"/>
            <stop offset="0.7011" style="stop-color:#ffffff"/>
          </linearGradient>
          <path class="highlight" fill="url(#ae3d114a-dbed-4f35-a635-1fe8cd596ba5)" d="M115.54976,84.88791c-0.77908-1.59617-3.06155-2.47701-5.15551-2.47701 c-0.76266,0-1.48479,0.07134-1.77062,0.21582c0.28091,1.47529-0.72507,3.14445-0.72507,5.15635 c0,2.62446,2.68847,3.9166,5.32679,3.9166c0.76268,0,1.43523,0.0003,1.73421-0.21552 c-0.11552-0.35622-0.15617-0.83167-0.08199-1.29293C115.1448,88.5292,116.17984,86.17883,115.54976,84.88791z" transform="translate(444.04013 -125.5389)" stroke-width="0" stroke-linejoin="miter" stroke-miterlimit="2" opacity="0.42"/>
        </g>
        <g id="path46602" aria-label="o" transform="translate(0 309.52) translate(603.372025 36.464) scale(2) translate(-562.14052 30.672)">
          <path class="c1" d="M114.12495,107.68502c-0.13042,0.21276-0.30192,0.56566-0.4666,0.84833 c-1.0564,1.81324-2.48842,3.22099-4.48575,4.4442c-0.86374,0.52897-1.9726,0.92995-3.25664,1.18794 c-1.36436,0.27412-2.92868,0.38866-4.68334,0.38866c-0.36861,0-0.74738-0.02979-1.14869-0.10057 c-2.76942-0.48846-6.12881-2.64433-7.05542-6.11649c-0.43306-0.16671-2.15363,1.86092-2.21946,2.54314 c-0.34583,3.58434,4.69977,7.59862,9.26167,8.34168c1.92244,0.31313,3.85085,0.52525,5.63616,0.15008 c1.89616-0.33604,5.08165-1.40251,7.81327-3.31051c1.08185-0.75566,2.04156-1.74265,2.90125-2.66955 c0.27564-0.30492,0.51221-0.7588,0.72796-1.17077C117.50166,110.77884,115.33974,108.13799,114.12495,107.68502z" transform="translate(479.328206 -125.53967)" stroke-width="0" stroke-linejoin="miter" stroke-miterlimit="2" fill="#c2c2c2" stroke="#c2c2c2"/>
          <path class="c1" d="M97.72968,99.54528c1.11785-0.44994,2.21112-0.43699,2.99859,0.48759 c0.4883,0.57333,0.76524,1.39722,0.94433,2.35292c0.41861,2.23396,0.15078,5.20767-0.23105,7.45582 c-0.2538,1.49439-0.71828,3.08893-1.35761,4.61197c-0.89405,2.12982-2.14515,4.13292-3.77343,5.64227 c-0.98891,0.91667-2.39854,1.48276-3.82578,1.27095c-0.81275-0.12061-1.93721-0.6994-2.24763-2.22482 c-0.30336,0.42496-1.08926,3.05012,0.98332,4.60167c1.25396,0.93873,4.73495,1.38174,7.00739,0.44695 c1.91912-1.11111,3.50026-2.67337,4.80826-4.48019c1.2101-1.67154,2.19102-3.54937,2.87991-5.54492 c0.80135-2.32135,1.26378-4.74721,1.36574-7.12299c0.01389-0.29646,0.01817-0.79854,0.00584-1.08041 c-0.38805-2.88934-1.57756-4.81435-3.12325-5.80342C101.76169,98.62128,99.30902,98.30469,97.72968,99.54528z" transform="translate(479.328206 -125.53967)" stroke-width="0" stroke-linejoin="miter" stroke-miterlimit="2" fill="#c2c2c2" stroke="#c2c2c2"/>
          <path class="c2" d="M83.71391,108.17234c-0.8817,2.93349-1.22253,7.13647-0.53912,10.12162 c1.07435,4.69283,4.94424,7.60883,9.23317,7.60883c2.28902,0,4.24091-0.76531,5.81985-1.71219 c-1.83614,0.66543-7.30485-0.72147-7.99072-5.04862c-0.228-1.43851-0.21906-2.82433,0.05388-4.1845 c0.44907-2.23796,1.36828-4.4204,2.73755-6.6204c1.11989-1.79932,2.56934-3.5582,4.17456-5.18819 c0.21786-0.52602,0.06758-1.82729-0.86426-2.73633c-0.76531-0.74659-1.88976-1.39636-3.74739-1.39636 C87.03612,99.0162,84.46906,105.6599,83.71391,108.17234z" transform="translate(479.328206 -125.53967)" stroke-width="0" stroke-linejoin="miter" stroke-miterlimit="2" fill="#ffffff" stroke="#ffffff"/>
          <path class="c2" d="M99.3308,99.19875c2.36333-0.04308,4.39014,1.07015,5.74612,2.57066 c1.19686,1.32443,1.87947,2.80464,2.21062,4.19267c0.01067-7.73032-3.18896-11.09444-8.18433-11.09441 c-3.5201,0.00003-6.45435,1.69383-8.44176,4.59505c-0.96799,1.41306-1.66833,3.12622-2.09254,5.07912 c1.40849,0.30117,2.57304,0.49553,4.82116,0.76322c0.68538-1.95033,1.56512-3.73148,2.94875-4.8925 c0.40851-0.34279,0.89211-0.64902,1.39086-0.86728C98.20781,99.33604,98.71158,99.21003,99.3308,99.19875z" transform="translate(479.328206 -125.53967)" stroke-width="0" stroke-linejoin="miter" stroke-miterlimit="2" fill="#ffffff" stroke="#ffffff"/>
          <path class="c2" d="M95.09846,116.33974c-3.1614-2.67246-4.05836-7.13094-2.19073-11.33904 c-0.74741-0.88241-3.77068-1.74952-4.33883-0.45885c-0.63954,4.65823,0.16882,8.02032,1.72207,10.41563 c1.5854,2.44492,4.04325,3.81443,6.68639,4.46243c1.19554,0.2931,2.23243,0.33354,3.47299,0.33354 c0.8615,0,1.72822,0.00104,2.58572-0.04304c0.8922-0.06456,1.74601-0.14521,2.67083-0.33843 C103.29151,119.66528,98.64593,119.33855,95.09846,116.33974z" transform="translate(479.328206 -125.53967)" stroke-width="0" stroke-linejoin="miter" stroke-miterlimit="2" fill="#ffffff" stroke="#ffffff"/>
          <linearGradient id="c510b893-e6e3-41ea-841c-334af78bcf9d" gradientUnits="userSpaceOnUse" x1="100.20128" y1="118.12177" x2="103.30627" y2="99.03361">
            <stop offset="0.1658" style="stop-color:#ffffff"/>
            <stop offset="0.248" style="stop-color:#ffffff;stop-opacity:0.68377"/>
            <stop offset="0.4257" style="stop-color:#ffffff;stop-opacity:0"/>
            <stop offset="0.5524" style="stop-color:#ffffff;stop-opacity:0"/>
            <stop offset="0.9505" style="stop-color:#ffffff"/>
          </linearGradient>
          <path class="highlight" fill="url(#c510b893-e6e3-41ea-841c-334af78bcf9d)" d="M100.7283,100.03285c0.48828,0.5733,0.7652,1.39722,0.94427,2.35291 c0.41864,2.23395,0.15082,5.2077-0.23102,7.45581c-0.25378,1.49438-0.71826,3.08893-1.3576,4.612 c0.40131,0.0708,0.78009,0.10059,1.14868,0.10059c1.75464,0,3.31897-0.11456,4.68335-0.38867 c0.80133-2.32135,1.26379-4.74719,1.36572-7.12299c0.01392-0.29645,0.01819-0.79858,0.00586-1.08044 c-0.33118-1.388-1.01379-2.86823-2.21063-4.19263c-1.35602-1.50055-3.38281-2.61377-5.74615-2.57068 c-0.57287,0.01045-1.1114,0.13056-1.55478,0.32658c0.17403-0.06267,0.40405-0.14551,0.65887-0.19955 C99.34628,99.13244,100.13374,99.3348,100.7283,100.03285z" transform="translate(479.328206 -125.53967)" stroke-width="0" stroke-linejoin="miter" stroke-miterlimit="2" opacity="0.42"/>
          <linearGradient id="6ebb84dd-093e-4f6e-b2f6-4d37a9a3d2ec" gradientUnits="userSpaceOnUse" x1="93.77496" y1="125.10794" x2="98.41089" y2="115.90327">
            <stop offset="0.1199" style="stop-color:#ffffff"/>
            <stop offset="0.2128" style="stop-color:#ffffff;stop-opacity:0.68377"/>
            <stop offset="0.4138" style="stop-color:#ffffff;stop-opacity:0"/>
            <stop offset="0.8068" style="stop-color:#ffffff"/>
          </linearGradient>
          <path class="highlight" fill="url(#6ebb84dd-093e-4f6e-b2f6-4d37a9a3d2ec)" d="M96.98377,119.42148c-0.23858,0.25696-0.44823,0.46579-0.67326,0.67436 c-0.98889,0.91669-2.39856,1.48273-3.82581,1.27094c-0.81274-0.12061-1.93719-0.6994-2.24762-2.22479 c0.68585,4.32715,6.1546,5.71405,7.99072,5.04858c1.91913-1.11108,3.50024-2.67334,4.80823-4.48016 c-0.85748,0.04407-1.72418,0.04303-2.58569,0.04303C99.19577,119.75343,98.1928,119.71319,96.98377,119.42148z" transform="translate(479.328206 -125.53967)" stroke-width="0" stroke-linejoin="miter" stroke-miterlimit="2" opacity="0.42"/>
          <linearGradient id="c5b23610-b0db-405a-a696-cab03855ac72" gradientUnits="userSpaceOnUse" x1="86.7309" y1="97.85494" x2="109.17615" y2="115.54637">
            <stop offset="0.3544" style="stop-color:#ffffff"/>
            <stop offset="0.5267" style="stop-color:#ffffff;stop-opacity:0.6747"/>
            <stop offset="0.8274" style="stop-color:#ffffff;stop-opacity:0.10662"/>
            <stop offset="0.8839" style="stop-color:#ffffff;stop-opacity:0"/>
          </linearGradient>
          <path class="highlight" fill="url(#c5b23610-b0db-405a-a696-cab03855ac72)" d="M114.12497,107.68501c-0.13043,0.21277-0.30194,0.56567-0.46661,0.84833 c-1.0564,1.81323-2.4884,3.22101-4.48578,4.44421c-0.86371,0.52893-1.9726,0.92993-3.25659,1.18793 c-1.36438,0.27411-2.92871,0.38867-4.68335,0.38867c-0.36859,0-0.74738-0.02979-1.14868-0.10059 c-2.76941-0.48846-6.12885-2.64435-7.05542-6.11652c-0.43388,0.6971-0.82123,1.39786-1.05495,1.86728 c0.10735,1.28756,0.4619,2.478,1.02422,3.5366c0.5267,0.99152,1.23544,1.86738,2.10068,2.59881 c3.54742,2.99878,8.19305,3.3255,10.6084,3.03223c1.89618-0.33606,5.08167-1.40253,7.81329-3.31049 c1.08185-0.75568,2.04156-1.74268,2.90125-2.66956c0.27563-0.30493,0.51221-0.75879,0.72797-1.17078 C117.50168,110.77882,115.33975,108.13795,114.12497,107.68501z" transform="translate(479.328206 -125.53967)" stroke-width="0" stroke-linejoin="miter" stroke-miterlimit="2" opacity="0.42"/>
          <linearGradient id="38c2478e-3e34-430b-8c24-835cdefe08d5" gradientUnits="userSpaceOnUse" x1="99.99342" y1="86.42375" x2="86.5877" y2="130.63762">
            <stop offset="0.1903" style="stop-color:#ffffff"/>
            <stop offset="0.2794" style="stop-color:#ffffff;stop-opacity:0.68377"/>
            <stop offset="0.472" style="stop-color:#ffffff;stop-opacity:0"/>
            <stop offset="0.7046" style="stop-color:#ffffff;stop-opacity:0"/>
            <stop offset="0.9412" style="stop-color:#ffffff"/>
          </linearGradient>
          <path class="highlight" fill="url(#38c2478e-3e34-430b-8c24-835cdefe08d5)" d="M83.71391,108.17234c-0.8817,2.93349-1.22253,7.13647-0.53912,10.12162 c1.07435,4.69283,4.94424,7.60883,9.23317,7.60883c2.28902,0,4.24091-0.76531,5.81985-1.71219 c-1.83614,0.66543-7.30485-0.72147-7.99072-5.04862c-0.228-1.43851-0.21906-2.82433,0.05388-4.1845 c0.44907-2.23796,1.36828-4.4204,2.73755-6.6204c1.11989-1.79932,2.56934-3.5582,4.17456-5.18819 c0.21786-0.52602,0.06758-1.82729-0.86426-2.73633c-0.76531-0.74659-1.88976-1.39636-3.74739-1.39636 C87.03612,99.0162,84.46906,105.6599,83.71391,108.17234z" transform="translate(479.328206 -125.53967)" stroke-width="0" stroke-linejoin="miter" stroke-miterlimit="2" opacity="0.42"/>
          <linearGradient id="5d475faa-ed5b-4337-9c0e-3f9d96f6e1ec" gradientUnits="userSpaceOnUse" x1="89.16083" y1="111.97124" x2="105.57887" y2="121.81137">
            <stop offset="0.0329" style="stop-color:#ffffff"/>
            <stop offset="0.2375" style="stop-color:#ffffff;stop-opacity:0.4561"/>
            <stop offset="0.4091" style="stop-color:#ffffff;stop-opacity:0"/>
            <stop offset="0.4898" style="stop-color:#ffffff;stop-opacity:0"/>
            <stop offset="0.6455" style="stop-color:#ffffff;stop-opacity:0.36278"/>
            <stop offset="0.8008" style="stop-color:#ffffff;stop-opacity:0.72466"/>
            <stop offset="0.919" style="stop-color:#ffffff"/>
          </linearGradient>
          <path class="highlight" fill="url(#5d475faa-ed5b-4337-9c0e-3f9d96f6e1ec)" d="M95.09848,116.33974c-1.22152-1.03259-2.10407-2.32778-2.62077-3.77813 c-0.26219-0.73595-0.43421-1.50974-0.50414-2.35728c-0.79614,1.57214-1.36112,3.15085-1.68259,4.75314 c1.58539,2.44489,4.04321,3.81445,6.6864,4.4624c1.1955,0.29309,2.23242,0.33356,3.47296,0.33356 c0.86151,0,1.72821,0.00104,2.58569-0.04303c0.89221-0.06458,1.74603-0.1452,2.67084-0.33844 C103.29153,119.66524,98.6459,119.33852,95.09848,116.33974z" transform="translate(479.328206 -125.53967)" stroke-width="0" stroke-linejoin="miter" stroke-miterlimit="2" opacity="0.42"/>
          <linearGradient id="d91772ff-5084-4a37-ac83-7c0cd1084760" gradientUnits="userSpaceOnUse" x1="95.46391" y1="109.89899" x2="105.54234" y2="89.39047">
            <stop offset="0.33" style="stop-color:#ffffff"/>
            <stop offset="0.4036" style="stop-color:#ffffff;stop-opacity:0.68377"/>
            <stop offset="0.5627" style="stop-color:#ffffff;stop-opacity:0"/>
          </linearGradient>
          <path class="highlight" fill="url(#d91772ff-5084-4a37-ac83-7c0cd1084760)" d="M99.10324,94.86769c-3.43744,0-6.31605,1.61504-8.30006,4.39244 c0.55774-0.15698,1.15443-0.24394,1.78822-0.24394c1.85767,0,2.98212,0.64978,3.74744,1.39636 c0.40851-0.34277,0.89209-0.64905,1.39087-0.86731c0.47809-0.20923,0.98187-0.33521,1.60107-0.3465 c2.36334-0.04309,4.39014,1.07013,5.74615,2.57068c1.19684,1.3244,1.87946,2.80463,2.21063,4.19263 C107.29825,98.23177,104.0986,94.86763,99.10324,94.86769z" transform="translate(479.328206 -125.53967)" stroke-width="0" stroke-linejoin="miter" stroke-miterlimit="2" opacity="0.42"/>
          <linearGradient id="77c21e18-a301-4a98-91a8-a321a9a58303" gradientUnits="userSpaceOnUse" x1="109.57618" y1="107.23627" x2="91.66901" y2="93.41862">
            <stop offset="0.0159" style="stop-color:#ffffff"/>
            <stop offset="0.1427" style="stop-color:#ffffff;stop-opacity:0.72368"/>
            <stop offset="0.3172" style="stop-color:#ffffff;stop-opacity:0.34358"/>
            <stop offset="0.4749" style="stop-color:#ffffff;stop-opacity:0"/>
          </linearGradient>
          <path class="highlight" fill="url(#77c21e18-a301-4a98-91a8-a321a9a58303)" d="M99.10324,94.86769c-3.43744,0-6.31605,1.61504-8.30006,4.39244 c0.55774-0.15698,1.15443-0.24394,1.78822-0.24394c1.85767,0,2.98212,0.64978,3.74744,1.39636 c0.40851-0.34277,0.89209-0.64905,1.39087-0.86731c0.47809-0.20923,0.98187-0.33521,1.60107-0.3465 c2.36334-0.04309,4.39014,1.07013,5.74615,2.57068c1.19684,1.3244,1.87946,2.80463,2.21063,4.19263 C107.29825,98.23177,104.0986,94.86763,99.10324,94.86769z" transform="translate(479.328206 -125.53967)" stroke-width="0" stroke-linejoin="miter" stroke-miterlimit="2" opacity="0.42"/>
        </g>
        <g id="path46604" aria-label="b" transform="translate(0 309.52) translate(661.988645 2.192) scale(2) translate(-591.44883 47.808)">
          <path class="c1" d="M86.18893,125.18121c0.27647-1.06502,0.65859-2.37578,0.93516-3.16484 c0.88219-2.81417,1.86958-5.39835,3.02656-7.78438c1.18182-2.43722,2.51954-4.70499,3.93916-6.72567 c0.78809-1.12177,2.02902-2.89163,3.44081-4.427c1.63352-1.77652,3.49516-3.24471,5.0753-3.17155 c1.31778-0.68904,0.16638-3.19159-0.75716-3.62181c-1.0813-0.5037-2.27434-0.077-4.17408,1.08868 c-0.46704,0.36498-1.66696,1.35611-2.60667,2.53022c-1.41541,1.76846-1.90828,2.52509-3.63202,5.21661 c-2.05287,3.63336-3.47552,7.48045-4.36791,10.96227C86.11225,119.81306,85.43987,124.2093,86.18893,125.18121z" transform="translate(510.450247 -125.53706)" stroke-width="0" stroke-linejoin="miter" stroke-miterlimit="2" fill="#c2c2c2" stroke="#c2c2c2"/>
          <path class="c2" d="M99.22164,83.36359c0.10349-1.75556-0.50693-3.27691-1.63698-4.29176 c-0.94853-0.85184-2.24783-1.34277-3.74339-1.34277c-0.87399,0-1.58669,0.07458-1.8916,0.28809 c0.3478,1.4724-3.65856,12.58756-7.35732,23.23499c-2.49782,7.19034-3.66866,13.25474-3.59005,17.02019 c0.08515,4.07883,1.4155,7.27042,4.01815,7.27042c0.56258,0,1.00285-0.20058,1.16848-0.36153 c-0.66018-2.50236,4.3428-17.5866,5.25497-20.05684C95.37454,94.47974,99.00578,87.02554,99.22164,83.36359z" transform="translate(510.450247 -125.53706)" stroke-width="0" stroke-linejoin="miter" stroke-miterlimit="2" fill="#ffffff" stroke="#ffffff"/>
          <path class="c1" d="M115.92722,107.6941c-0.21223,0.38887-1.81297,3.40166-4.03223,4.53613 c-0.85693,0.43806-1.94072,0.7049-3.0957,0.8543c-1.82307,0.23582-3.86521,0.1942-5.79002,0.18697 c-1.17442-0.0044-2.35552-0.09238-3.57131-0.11471c-3.35719-0.06163-6.79953-0.07988-9.28731,1.0752 c-0.45,0.20894-0.85825,0.47863-1.24261,0.77526c-1.5965,1.23209-2.3102,3.09525-2.30896,4.35104 c0.00121,1.22832,0.63036,2.24655,1.2527,2.64416c0.80669,0.51539,3.01234,0.20774,3.13189-0.44371 c-0.16611,0.01479-0.32543,0.02837-0.46271,0.02287c-0.52969-0.04179-0.8362-0.19245-0.95-0.42148 c-0.2345-0.47196,0.06029-1.01684,0.51406-1.45108c0.8859-0.84777,2.73073-1.44706,3.94468-1.66553 c0.76848-0.13831,1.60126-0.15119,2.4561-0.20702c1.81937-0.04154,3.60954,0.15714,5.33228,0.24957 c1.35532,0.07272,2.78543,0.12996,4.2416,0.11198c3.8619-0.04768,7.85302-0.67164,10.71194-3.29372 c0.76836-0.70471,1.74465-1.83852,2.18398-2.74509C119.35897,110.66101,116.99504,108.02026,115.92722,107.6941z" transform="translate(510.450247 -125.53706)" stroke-width="0" stroke-linejoin="miter" stroke-miterlimit="2" fill="#c2c2c2" stroke="#c2c2c2"/>
          <path class="c2" d="M103.61374,95.30055c-1.952,0-3.99464,0.61752-5.94807,2.08114 c1.72293-1.0545,3.20936-0.96243,3.72274-0.43236c0.69798,0.72066,1.05019,1.73694,1.2052,2.95844 c0.18476,2.13798-0.16978,4.58966-0.80248,6.91516c-0.59111,2.17259-1.83849,5.17509-2.36819,6.3408 c-0.75368,1.65858-1.77675,3.25433-2.93713,4.67275c-1.5545,1.93423-3.43636,3.47254-5.50214,3.72225 c-1.79544,0.21703-3.62453-0.23357-4.37675-1.9668c0.01264,0.91944,0.19183,1.71328,0.51717,2.42443 c1.12804,2.27087,3.6324,3.52637,6.7459,3.52637c4.77688,0,9.13001-2.98869,12.1897-7.34471 c1.09421-1.55779,2.01036-3.27235,2.73959-5.11349c1.16114-2.93161,1.7985-6.15207,1.78474-9.30498 C110.55614,97.39336,106.58305,95.30055,103.61374,95.30055z" transform="translate(510.450247 -125.53706)" stroke-width="0" stroke-linejoin="miter" stroke-miterlimit="2" fill="#ffffff" stroke="#ffffff"/>
          <linearGradient id="19bb1f85-1e98-4242-b407-4054d98b3e1f" gradientUnits="userSpaceOnUse" x1="102.59411" y1="118.37524" x2="120.82781" y2="109.29443">
            <stop offset="0.1268" style="stop-color:#ffffff"/>
            <stop offset="0.2901" style="stop-color:#ffffff;stop-opacity:0.68377"/>
            <stop offset="0.643" style="stop-color:#ffffff;stop-opacity:0"/>
          </linearGradient>
          <path class="highlight" fill="url(#19bb1f85-1e98-4242-b407-4054d98b3e1f)" d="M115.92722,107.69411c-0.21222,0.38885-1.81299,3.40161-4.03223,4.53613 c-0.85693,0.43805-1.94073,0.7049-3.0957,0.85431c-0.72925,1.84113-1.64539,3.55566-2.73956,5.11346 c3.86188-0.04767,7.85297-0.67163,10.71191-3.2937c0.76837-0.70471,1.74463-1.83856,2.18396-2.74512 C119.35898,110.66096,116.99503,108.02022,115.92722,107.69411z" transform="translate(510.450247 -125.53706)" stroke-width="0" stroke-linejoin="miter" stroke-miterlimit="2" opacity="0.42"/>
          <linearGradient id="940f9811-119e-4b28-958b-5b1cca265e5d" gradientUnits="userSpaceOnUse" x1="100.43628" y1="120.11202" x2="88.1159" y2="114.67406">
            <stop offset="0.2046" style="stop-color:#ffffff"/>
            <stop offset="0.403" style="stop-color:#ffffff;stop-opacity:0.68377"/>
            <stop offset="0.8319" style="stop-color:#ffffff;stop-opacity:0"/>
          </linearGradient>
          <path class="highlight" fill="url(#940f9811-119e-4b28-958b-5b1cca265e5d)" d="M90.98367,121.55873c-0.16614,0.01477-0.32544,0.02838-0.46271,0.02289 c-0.52966-0.04181-0.83618-0.1925-0.95001-0.42151c-0.2345-0.47198,0.0603-1.01685,0.5141-1.45105 c0.88586-0.84778,2.73071-1.44708,3.94464-1.66559c0.76849-0.13831,1.60126-0.15118,2.45612-0.20697 c1.1604-1.41846,2.18347-3.01422,2.93713-4.67279c0.00092-0.00201,0.0022-0.00507,0.00311-0.00708 c-3.35333-0.06146-6.79059-0.07837-9.27539,1.07538c-0.45001,0.20892-0.85828,0.47858-1.24261,0.77521 c-1.5965,1.23212-2.31018,3.09528-2.30896,4.35107c0.00006,0.08459,0.00198,0.15119,0.00784,0.23365 c0.15182,0.34528,0.34258,0.64255,0.57191,0.89119c0.27225,0.29519,0.59019,0.52637,0.94398,0.70025 c0.50565,0.24851,1.07197,0.37318,1.63633,0.4121C90.16135,121.62322,90.5732,121.60835,90.98367,121.55873z" transform="translate(510.450247 -125.53706)" stroke-width="0" stroke-linejoin="miter" stroke-miterlimit="2" opacity="0.42"/>
          <radialGradient id="1a3929b6-199c-4e7f-b8da-add5e88d1b2e" cx="103.61335" cy="107.01159" r="23.01468" gradientUnits="userSpaceOnUse" transform="translate(510.450247 -125.53706)">
            <stop offset="0.6713" style="stop-color:#ffffff;stop-opacity:0"/>
            <stop offset="0.9235" style="stop-color:#ffffff"/>
          </radialGradient>
          <path class="highlight" fill="url(#1a3929b6-199c-4e7f-b8da-add5e88d1b2e)" d="M90.98367,121.55873c-0.16614,0.01477-0.32544,0.02838-0.46271,0.02289 c-0.52966-0.04181-0.83618-0.1925-0.95001-0.42151c-0.2345-0.47198,0.0603-1.01685,0.5141-1.45105 c0.88586-0.84778,2.73071-1.44708,3.94464-1.66559c0.76849-0.13831,1.60126-0.15118,2.45612-0.20697 c1.1604-1.41846,2.18347-3.01422,2.93713-4.67279c0.00092-0.00201,0.0022-0.00507,0.00311-0.00708 c-3.35333-0.06146-6.79059-0.07837-9.27539,1.07538c-0.45001,0.20892-0.85828,0.47858-1.24261,0.77521 c-1.5965,1.23212-2.31018,3.09528-2.30896,4.35107c0.00006,0.08459,0.00198,0.15119,0.00784,0.23365 c0.15166,0.34492,0.34289,0.64272,0.57191,0.89119c0.27413,0.29743,0.58839,0.52634,0.94398,0.70025 c0.50811,0.24848,1.06818,0.37233,1.63022,0.41167C90.15707,121.62334,90.5722,121.60847,90.98367,121.55873z" transform="translate(510.450247 -125.53706)" stroke-width="0" stroke-linejoin="miter" stroke-miterlimit="2" opacity="0.42"/>
          <linearGradient id="4f72903a-9ce0-4c8a-a324-f926072aaf3f" gradientUnits="userSpaceOnUse" x1="86.4501" y1="114.90235" x2="102.38502" y2="95.60006">
            <stop offset="0.0226" style="stop-color:#ffffff"/>
            <stop offset="0.1697" style="stop-color:#ffffff;stop-opacity:0.68377"/>
            <stop offset="0.4877" style="stop-color:#ffffff;stop-opacity:0"/>
            <stop offset="0.6987" style="stop-color:#ffffff;stop-opacity:0"/>
            <stop offset="0.9507" style="stop-color:#ffffff"/>
          </linearGradient>
          <path class="highlight" fill="url(#4f72903a-9ce0-4c8a-a324-f926072aaf3f)" d="M101.3884,96.9493c-0.23145-0.23897-0.66359-0.38952-1.22464-0.38484 c-0.67359,0.00562-1.53367,0.23445-2.46432,0.79555c-0.00861,0.00525-0.01611,0.00934-0.02478,0.01465 c-0.46704,0.36493-1.66693,1.35608-2.60663,2.53021c-1.409,1.76044-1.90558,2.52118-3.61053,5.18311 c-0.00458,0.01233-0.00903,0.02405-0.01361,0.03638c-0.48138,1.30377-2.0966,6.10075-3.42271,10.72691 c0.26099-0.3067,0.5479-0.58237,0.88689-0.84403c0.38434-0.29663,0.7926-0.56628,1.24261-0.77521 c1.18182-2.43726,2.51953-4.70502,3.93915-6.72571c0.78809-1.12177,2.02905-2.8916,3.4408-4.427 c0.73628-0.80071,1.59329-1.61907,2.48398-2.22954c0.42514-0.29139,0.92028-0.5751,1.43027-0.75175 c0.28424-0.09846,0.58935-0.17091,0.88603-0.18781c0.13231-0.00753,0.22189-0.00174,0.26271-0.00241 C102.43863,98.68623,102.0864,97.67,101.3884,96.9493z" transform="translate(510.450247 -125.53706)" stroke-width="0" stroke-linejoin="miter" stroke-miterlimit="2" opacity="0.42"/>
          <linearGradient id="1def3ea3-b41c-4687-a01a-58014f53a3bf" gradientUnits="userSpaceOnUse" x1="86.36677" y1="123.80167" x2="89.09961" y2="112.07466">
            <stop offset="0.0311" style="stop-color:#ffffff"/>
            <stop offset="0.3308" style="stop-color:#ffffff;stop-opacity:0.68377"/>
            <stop offset="0.9787" style="stop-color:#ffffff;stop-opacity:0"/>
          </linearGradient>
          <path class="highlight" fill="url(#1def3ea3-b41c-4687-a01a-58014f53a3bf)" d="M86.18893,125.18123c0.27649-1.06506,0.65857-2.37579,0.93518-3.16486 c-0.17712-0.38708-0.30865-0.78741-0.39587-1.23047c-0.06597,0.28853-0.13335,0.56273-0.27242,1.26499 C86.31054,122.78455,85.99971,124.46391,86.18893,125.18123z" transform="translate(510.450247 -125.53706)" stroke-width="0" stroke-linejoin="miter" stroke-miterlimit="2" opacity="0.42"/>
          <linearGradient id="6605d9cf-bf78-47ac-975b-b514bc10816a" gradientUnits="userSpaceOnUse" x1="109.12383" y1="92.65407" x2="91.77456" y2="128.74852">
            <stop offset="0.0392" style="stop-color:#ffffff"/>
            <stop offset="0.1184" style="stop-color:#ffffff;stop-opacity:0.68377"/>
            <stop offset="0.2895" style="stop-color:#ffffff;stop-opacity:0"/>
            <stop offset="0.7109" style="stop-color:#ffffff;stop-opacity:0"/>
            <stop offset="0.9735" style="stop-color:#ffffff"/>
          </linearGradient>
          <path class="highlight" fill="url(#6605d9cf-bf78-47ac-975b-b514bc10816a)" d="M103.61374,95.30055c-1.952,0-3.99271,0.61598-5.94613,2.07961 c1.72292-1.0545,3.20742-0.96089,3.7208-0.43082c0.69798,0.72066,1.05019,1.73694,1.2052,2.95844 c0.18476,2.13798-0.16978,4.58966-0.80248,6.91516c-0.59111,2.17259-1.83849,5.17509-2.36819,6.3408 c-0.75368,1.65858-1.77675,3.25433-2.93713,4.67275c-1.5545,1.93423-3.43636,3.47254-5.50214,3.72225 c-1.79544,0.21703-3.62453-0.23357-4.37675-1.9668c0.01264,0.91944,0.19183,1.71328,0.51717,2.42443 c1.12804,2.27087,3.6324,3.52637,6.7459,3.52637c4.77688,0,9.13001-2.98869,12.1897-7.34471 c1.09421-1.55779,2.01036-3.27235,2.73959-5.11349c1.16114-2.93161,1.7985-6.15207,1.78474-9.30498 C110.55614,97.39336,106.58305,95.30055,103.61374,95.30055z" transform="translate(510.450247 -125.53706)" stroke-width="0" stroke-linejoin="miter" stroke-miterlimit="2" opacity="0.42"/>
          <linearGradient id="55bb3895-4098-4b57-bfda-6c2808e097f6" gradientUnits="userSpaceOnUse" x1="80.22448" y1="137.08774" x2="98.59182" y2="66.31223">
            <stop offset="0.131" style="stop-color:#ffffff"/>
            <stop offset="0.2154" style="stop-color:#ffffff;stop-opacity:0.68377"/>
            <stop offset="0.3979" style="stop-color:#ffffff;stop-opacity:0"/>
            <stop offset="0.6808" style="stop-color:#ffffff;stop-opacity:0"/>
            <stop offset="0.951" style="stop-color:#ffffff"/>
          </linearGradient>
          <path class="highlight" fill="url(#55bb3895-4098-4b57-bfda-6c2808e097f6)" d="M86.72736,120.78144c-0.07043-0.35803-0.11192-0.74432-0.11973-1.14709 c0.00189,0.10016-0.01117-0.26044-0.00653-0.39691c0.01942-0.56893,0.16733-1.22709,0.48321-1.91432 c0.22703-0.49395,0.54802-1.01514,0.93685-1.47187c0.2246-0.78335,0.44302-1.52287,0.6775-2.29909 c1.15009-3.80724,2.34546-7.3452,2.74522-8.42782c3.93066-10.64465,7.56189-18.09882,7.77777-21.76074 c0.10345-1.75555-0.50696-3.27692-1.63696-4.29175c-0.94855-0.85187-2.24786-1.34277-3.74341-1.34277 c-0.87402,0-1.58667,0.07452-1.8916,0.28809c0.34778,1.47235-3.65857,12.58752-7.3573,23.23499 c-2.49786,7.19031-3.6687,13.2547-3.59009,17.02014c0.08514,4.07886,1.41553,7.27045,4.01819,7.27045 c0.56256,0,1.00281-0.20062,1.16846-0.36151C85.94687,124.26373,86.51584,121.70647,86.72736,120.78144z" transform="translate(510.450247 -125.53706)" stroke-width="0" stroke-linejoin="miter" stroke-miterlimit="2" opacity="0.42"/>
        </g>
      </g>
    </g>
  </g>
</svg>