<?xml version="1.0" encoding="utf-8"?>
<svg viewBox="261.948 338.85 500.105 90.3" xmlns="http://www.w3.org/2000/svg" xmlns:xlink="http://www.w3.org/1999/xlink">
  <g id="logo-group">
    <image id="container" x="272" y="144" width="480" height="480" transform="translate(0 0)" style="display: none;" xlink:href=""/>
    <g id="logo-center" transform="translate(0 0)">
      <image id="icon_container" x="0" y="0" style="display: none;" xlink:href=""/>
      <g id="slogan" style="font-style:oblique;font-weight:700;font-size:32px;line-height:1;font-family:Averta;font-variant-ligatures:none;text-align:center;text-anchor:middle" transform="translate(0 0)"/>
      <g id="title" style="font-style:normal;font-weight:700;font-size:72px;line-height:1;font-family:'Meedori Sans';font-variant-ligatures:none;text-align:center;text-anchor:middle" transform="translate(0 0)">
        <path id="path107387" style="font-style:normal;font-weight:700;font-size:72px;line-height:1;font-family:'Meedori Sans';font-variant-ligatures:none;text-align:center;text-anchor:middle" d="m 409.07319,-53.928 h 9 v 0 V 0 0 h -9 v -22.032 h -31.968 v -8.928 h 31.968 v -22.968 z" stroke-width="0" stroke-linejoin="miter" stroke-miterlimit="2" fill="#f4f1f2" stroke="#f4f1f2" transform="translate(0 325.07812) translate(261.94755999999995 14.012240000000006) scale(1.67) translate(-377.10519 53.928)"/>
        <path id="path107389" style="font-style:normal;font-weight:700;font-size:72px;line-height:1;font-family:'Meedori Sans';font-variant-ligatures:none;text-align:center;text-anchor:middle" d="m 433.07394,-54 h 8.928 V 0 h -8.928 z" stroke-width="0" stroke-linejoin="miter" stroke-miterlimit="2" fill="#f4f1f2" stroke="#f4f1f2" transform="translate(0 325.07812) translate(363.7653724999999 13.89200000000001) scale(1.67) translate(-433.07394 54)"/>
        <path id="path107391" style="font-style:normal;font-weight:700;font-size:72px;line-height:1;font-family:'Meedori Sans';font-variant-ligatures:none;text-align:center;text-anchor:middle" d="m 498.95619,0 h -10.008 l -11.952,-22.032 h -11.088 V 0 h -8.928 v -54 h 25.992 q 4.176,0.216 7.488,2.016 1.368,0.792 2.736,1.944 1.368,1.152 2.376,2.808 1.08,1.656 1.728,3.96 0.648,2.232 0.648,5.256 0,4.896 -1.584,8.064 -1.584,3.096 -3.6,4.896 -1.944,1.728 -3.744,2.376 -1.728,0.648 -2.088,0.648 z m -33.048,-30.96 h 17.064 q 1.656,-0.072 2.952,-0.864 1.152,-0.648 2.088,-2.088 0.936,-1.44 0.936,-4.104 0,-2.592 -0.936,-4.032 -0.936,-1.44 -2.088,-2.088 -1.296,-0.792 -2.952,-0.864 h -17.064 z" stroke-width="0" stroke-linejoin="miter" stroke-miterlimit="2" fill="#f4f1f2" stroke="#f4f1f2" transform="translate(0 325.07812) translate(412.0388099999999 13.89200000000001) scale(1.67) translate(-456.98019 54)"/>
        <path id="path107393" style="font-style:normal;font-weight:700;font-size:72px;line-height:1;font-family:'Meedori Sans';font-variant-ligatures:none;text-align:center;text-anchor:middle" d="m 547.19281,-45 h -27.072 v 13.464 h 23.04 v 9 h -23.04 V -9 h 27.072 v 9 h -36.072 v -54 h 36.072 v 9 z" stroke-width="0" stroke-linejoin="miter" stroke-miterlimit="2" fill="#f4f1f2" stroke="#f4f1f2" transform="translate(0 325.07812) translate(510.80364539999994 13.89200000000001) scale(1.67) translate(-511.12081 54)"/>
        <path id="path107395" style="font-style:normal;font-weight:700;font-size:72px;line-height:1;font-family:'Meedori Sans';font-variant-ligatures:none;text-align:center;text-anchor:middle" d="M 582.93744,-54.072 610.00944,0 h -9.936 l -6.12,-10.944 h -21.96 L 566.88144,0 h -10.944 z m -5.976,33.984 h 12.96 l -6.984,-13.896 z" stroke-width="0" stroke-linejoin="miter" stroke-miterlimit="2" fill="#f4f1f2" stroke="#f4f1f2" transform="translate(0 325.07812) translate(593.9974175 13.77176) scale(1.67) translate(-555.93744 54.072)"/>
        <path id="path107397" style="font-style:normal;font-weight:700;font-size:72px;line-height:1;font-family:'Meedori Sans';font-variant-ligatures:none;text-align:center;text-anchor:middle" d="m 651.56919,-9 v 9 h -36.072 v -54.072 h 8.928 l 0.072,45.072 z" stroke-width="0" stroke-linejoin="miter" stroke-miterlimit="2" fill="#f4f1f2" stroke="#f4f1f2" transform="translate(0 325.07812) translate(701.8122000000001 13.77176) scale(1.67) translate(-615.49719 54.072)"/>
      </g>
    </g>
  </g>
</svg>