<?xml version="1.0" encoding="utf-8"?>
<svg viewBox="828.909 355.386 3257.744 1923.588" xmlns="http://www.w3.org/2000/svg">
  <path d="M 8494.909 2914.9 C 8494.909 2914.9 4299.211 9154 7593.47 12978.3 C 12496.721 18670.4 15833.766 10580.9 17722.557 13928.7 C 20847.002 19466.6 31068.427 18045.4 27941.054 11159 C 26300.348 7546.1 31789.84 8086 29551.889 2907.7 L 8494.909 2914.9" style="fill: rgb(235, 243, 250); fill-opacity: 1; fill-rule: nonzero; stroke: none;" id="path16" transform="matrix(0.133333, 0, 0, -0.133333, 0, 2666.666748)"/>
  <path d="M 20210.379 11860.817 C 20367.946 11629.768 20387.237 11368.384 20300.575 11167.744 C 19995.602 10465.173 19049.612 10528.052 18835.204 11252.197 C 18782.706 11438.258 18805.016 11645.672 18939.168 11847.637 C 19253.566 12315.552 19908.867 12302.225 20210.379 11860.817 Z M 21119.775 10395.961 L 21253.118 10708.223 L 21256.21 10715.733 C 21272.188 10753.8 21257.314 10797.683 21221.457 10817.784 L 20974.357 10956.722 C 20970.234 10959.005 20966.405 10961.582 20962.944 10964.38 C 20938.794 10984.48 20927.602 11017.245 20936.732 11047.875 C 20988.052 11229.298 21002.925 11418.525 20980.026 11605.544 C 20979.143 11613.275 20979.437 11620.932 20980.542 11628.295 C 20985.254 11656.127 21004.766 11680.278 21031.714 11690.807 L 21253.191 11774.081 C 21282.275 11785.273 21302.008 11812.295 21305.1 11842.041 C 21305.763 11851.098 21305.321 11860.817 21302.965 11870.389 L 21216.303 12206.065 C 21205.7 12247.371 21164.689 12274.098 21122.278 12266.809 L 20811.931 12214.09 C 20781.301 12209.01 20750.671 12221.895 20732.926 12247.445 C 20706.862 12283.891 20679.619 12319.307 20650.02 12353.765 C 20594.503 12418.338 20534.495 12476.432 20470.879 12528.267 L 20470.585 12528.561 C 20444.005 12550.282 20433.549 12585.256 20444.226 12617.8 L 20544.141 12921.448 L 20549 12936.762 C 20562.18 12975.639 20542.963 13019.006 20504.602 13035.278 L 20185.419 13171.714 C 20146.469 13188.059 20101.113 13172.965 20080.423 13136.003 L 19925.728 12860.998 C 19908.572 12830.368 19873.746 12814.17 19839.729 12821.017 C 19695.562 12847.597 19548.009 12852.162 19402.37 12833.534 C 19365.261 12829.19 19330.14 12850.395 19316.813 12885.59 L 19217.487 13147.858 C 19202.246 13187.765 19159.983 13209.265 19119.266 13198.588 L 18782.117 13111.779 C 18742.283 13101.398 18717.102 13062.3 18724.097 13022.099 L 18785.43 12657.265 C 18790.805 12626.341 18777.92 12595.122 18752.591 12576.494 C 18721.225 12553.816 18690.596 12529.592 18660.702 12503.969 C 18604.302 12455.521 18552.835 12403.76 18506.301 12349.495 C 18485.317 12324.534 18451.447 12314.521 18420.67 12325.123 L 18055.837 12445.581 C 18015.488 12458.613 17972.415 12439.102 17955.775 12400.446 L 17818.751 12080.159 C 17804.54 12046.216 17815.216 12006.603 17843.711 11984.514 C 17846.73 11982.305 17849.969 11979.802 17853.504 11978.108 L 18158.624 11806.257 C 18187.045 11790.427 18203.537 11759.576 18199.93 11727.327 C 18199.709 11724.529 18199.488 11721.731 18198.752 11718.933 C 18196.984 11710.466 18195.217 11702.661 18194.26 11693.899 C 18175.411 11594.941 18167.533 11493.848 18170.11 11392.755 C 18171.582 11359.033 18150.451 11328.109 18118.201 11316.328 L 17841.207 11211.259 C 17801.889 11196.533 17780.169 11154.049 17790.771 11113.332 L 17809.915 11038.598 L 17877.507 10778.171 C 17887.815 10737.233 17928.016 10711.389 17969.838 10718.163 L 18275.547 10770.072 C 18308.238 10775.815 18340.341 10760.058 18356.981 10731.416 C 18400.349 10656.314 18451.889 10583.495 18510.793 10514.872 C 18554.529 10463.995 18601.725 10416.504 18650.909 10373.504 L 18629.851 10309.815 L 18544 10048.431 C 18533.029 10016.181 18544.294 9980.839 18570.432 9960.885 C 18575.807 9956.541 18581.845 9953.228 18588.472 9950.43 L 18909.496 9812.448 C 18947.636 9796.471 18991.519 9812.007 19011.914 9847.496 L 19117.278 10035.619 C 19135.096 10067.353 19173.089 10083.552 19208.21 10074.054 C 19354.07 10034.588 19504.715 10018.316 19654.33 10026.121 C 19689.819 10028.035 19721.922 10007.345 19733.408 9974.875 L 19858.872 9643.322 C 19873.156 9606.36 19912.622 9585.67 19951.277 9595.61 L 20291.96 9683.892 C 20332.383 9694.2 20357.858 9733.591 20350.643 9774.088 L 20286.659 10153.647 C 20280.916 10186.265 20295.863 10218.809 20324.283 10236.333 C 20384.954 10273.663 20443.195 10316.809 20499.3 10365.037 C 20529.488 10390.954 20558.278 10417.829 20585.741 10445.734 C 20607.388 10467.455 20639.27 10475.26 20668.501 10465.983 L 21018.314 10350.605 C 21058.957 10337.278 21102.619 10356.79 21119.775 10395.961" style="fill: rgb(223, 237, 251); fill-opacity: 1; fill-rule: nonzero; stroke: none;" id="path18" transform="matrix(0.133333, 0, 0, -0.133333, 0, 2666.666748)"/>
  <path d="m 13413.4,8684.2 c 104.1,-202.9 177.2,-433.3 211.8,-690.5 8,-54.4 10.3,-116.2 9.8,-180.9 -5.8,-279.3 -89.8,-617.4 -213.3,-827.1 -947.4,-1602.1 -3209.6,-1165 -3507.99,645.8 -4.54,29.8 -9.06,59.6 -12.78,90 -36.42,282.9 53.24,718.5 195.47,965.2 74.9,129.3 158.3,245.6 247.7,349.4 899.2,1033.3 2475.4,803.6 3069.3,-351.9 z m 1750.9,-3806.7 415.7,712.7 9.8,17.1 c 50,87.1 27.3,197.4 -53,256.6 l -554.1,409.6 c -9.2,6.8 -17.6,14.2 -25.1,22 -52.2,55.7 -69.3,138.1 -38,209.2 178.5,421.9 271.4,873.8 272.6,1331.6 0.3,19 3.3,37.4 8.2,54.7 19.7,65.8 74,118.2 142.3,135.4 l 559.2,134 c 73.4,18.3 129.1,77.4 145.5,148.1 4.4,21.7 6.4,45.2 3.5,69.1 l -107.7,835.7 c -13,102.7 -103.8,179.5 -208.4,174.7 l -764.3,-33.4 c -75.3,-3 -145.3,37.2 -180.4,104.2 -51.8,95.8 -106.8,189.4 -167.8,281.3 -114.4,172.6 -241.6,330.8 -379.4,475 l -0.6,0.8 c -57.5,60.3 -72.2,147.9 -36.5,223.1 l 332.5,702.1 16.3,35.5 c 43.6,89.8 10.2,200.1 -77.4,251 l -728.4,425.2 c -89.1,51.1 -202.9,28.4 -264,-54.4 l -456.1,-616.5 c -50.6,-68.6 -139.5,-97.1 -219.3,-70.4 -339.7,107.6 -694.2,163.2 -1050.9,162.1 -90.8,0.8 -169.2,62.5 -190.6,151.4 l -160.4,662.4 c -24.7,100.9 -120.1,165.3 -221.5,152 l -839.2,-107.6 c -99.2,-13.1 -171.7,-99.9 -167.1,-198.7 l 37.9,-898.4 c 3.6,-76.1 -36.9,-147.5 -103.6,-184.8 -82.5,-45.3 -163.62,-94.3 -243.39,-147.2 -150.59,-99.9 -290.36,-209 -419.05,-326 -58.1,-53.8 -142.65,-67.6 -213.82,-32.8 l -843.36,400.6 c -93.34,43.5 -203.14,9.4 -254.83,-78.8 l -427.08,-730.9 c -44.63,-77.6 -30.78,-176.2 31.37,-238.1 6.49,-6.3 13.51,-13.3 21.63,-18.5 l 683.82,-506.4 c 63.82,-46.7 94.24,-126.2 75.9,-202.8 -1.38,-6.7 -2.75,-13.5 -5.47,-20 -6.82,-19.8 -13.37,-38.2 -18.3,-59 -75.34,-232.8 -124.96,-474.3 -149.13,-718.8 -6.7,-81.8 -67.01,-150 -148.32,-168.7 l -699.58,-169.8 c -99.2,-23.6 -164.44,-119.6 -151.15,-220.9 l 23.65,-185.9 84.28,-648.4 c 12.48,-101.9 101.69,-176.4 204.63,-172.5 l 752.87,32.8 c 80.48,4.1 153.22,-43.7 184.73,-117.8 81.88,-194.1 184.07,-385.4 305.52,-568.5 90.14,-135.9 189.51,-264.6 295.13,-383.2 l -69.98,-147.2 -285.91,-604.5 c -36.21,-74.4 -19.64,-163 37.38,-218.9 11.62,-12.3 25.14,-22.1 40.29,-30.8 l 732.5,-429.5 c 87.1,-50 197.69,-25.9 257.48,53.6 l 310.89,421.8 c 52.5,71.1 149,98.8 231,65.2 339.6,-139.2 698.1,-223.8 1061.3,-250.2 86.1,-6.1 157.2,-65.6 175.1,-147.5 l 202.5,-837.3 c 23.3,-93.5 112.3,-155.2 208.5,-143 l 848.1,110.1 c 100.6,12.7 173.9,100.1 168.7,199.8 l -39.6,934.6 c -4.2,80.5 41.8,154.3 115.6,188 157.5,71.7 311,158.3 460.8,257.6 80.6,53.4 158.2,109.6 232.9,168.4 58.6,45.9 138,55.2 205.6,23.9 l 808.8,-383.7 c 93.8,-44.3 205,-10.5 258.3,78.8" style="fill:#d6e8fc;fill-opacity:1;fill-rule:nonzero;stroke:none" id="path20" transform="matrix(0.133333, 0, 0, -0.133333, 0, 2666.666748)"/>
  <path d="m 27267.8,4633.4 c 0,0 -264.6,308.7 -16.3,504.7 0,0 181.3,109.8 329.1,100.9 0,0 -209.5,-351.3 -141.7,-386.3 67.8,-34.9 205.2,408.3 205.2,408.3 0,0 412.7,40.1 545.4,-23.8 0,0 -352.7,-288.6 -278.4,-305.8 74.3,-17.2 455.3,266.1 455.3,266.1 0,0 384,-65.3 363.6,-299.6 -20.5,-234.3 -152.8,-306.6 -211,-300.4 -58.2,6.2 -398.4,136.1 -405.8,88.4 -7.4,-47.6 197.4,-203.4 340.8,-210.7 0,0 -270.8,-298.6 -450.7,-212.4 -180,86.2 -195.4,222.8 -307.5,274 -112.2,51.3 -208,51.1 -161.6,-1.1 46.3,-52.3 249.3,-103 313.4,-216.5 64.2,-113.5 121.7,-190 -64.4,-162 -186.2,28 -488.9,164.2 -502.2,320.2 -13.2,156 -13.2,156 -13.2,156" style="fill:#c8dbf4;fill-opacity:1;fill-rule:nonzero;stroke:none" id="path62" transform="matrix(0.133333, 0, 0, -0.133333, 0, 2666.666748)"/>
  <path d="m 28541.3,4891.6 c 0,0 -1043.2,40.2 -1273.5,-258.2 0,0 -51,-152.5 -207.8,-291.5 l -24.4,-66.6 c 0,0 180.8,190.6 245.4,202.1 0,0 -101.1,369.6 1260.3,414.2" style="fill:#c8dbf4;fill-opacity:1;fill-rule:nonzero;stroke:none" id="path64" transform="matrix(0.133333, 0, 0, -0.133333, 0, 2666.666748)"/>
  <path d="m 27060,4341.9 c 0,0 -223.9,-165.6 -239.4,-461.4 l 40.6,-3.7 c 0,0 71.5,305.9 200.8,425.6 129.2,119.6 -2,39.5 -2,39.5" style="fill:#c8dbf4;fill-opacity:1;fill-rule:nonzero;stroke:none" id="path66" transform="matrix(0.133333, 0, 0, -0.133333, 0, 2666.666748)"/>
  <path d="m 26342.8,5021.6 c 0,0 420.8,235.7 224.4,555.5 0,0 -157.1,196.4 -325.5,246.9 0,0 89.8,-476.9 0,-488.2 -89.7,-11.2 -61.7,538.7 -61.7,538.7 0,0 -443.3,213.3 -617.2,196.4 0,0 274.9,-465.7 185.2,-454.5 -89.8,11.2 -398.5,482.6 -398.5,482.6 0,0 -454.5,84.2 -527.4,-185.2 -73,-269.3 44.9,-404 112.2,-420.8 67.3,-16.9 499.4,-11.3 488.2,-67.4 -11.2,-56.1 -303,-145.9 -465.8,-95.4 0,0 179.6,-443.3 415.3,-420.8 235.7,22.4 308.6,168.3 454.5,179.5 145.9,11.3 252.5,-28 179.6,-67.3 -73,-39.3 -319.9,-12.9 -437.7,-113.1 -117.8,-100.1 -213.2,-161.9 5.6,-206.7 218.8,-44.9 611.6,-16.9 690.2,151.5 78.6,168.3 78.6,168.3 78.6,168.3" style="fill:#c8dbf4;fill-opacity:1;fill-rule:nonzero;stroke:none" id="path68" transform="matrix(0.133333, 0, 0, -0.133333, 0, 2666.666748)"/>
  <path d="m 25029.7,5829.6 c 0,0 1178.4,-381.5 1313.1,-808 0,0 -5.7,-190.8 112.2,-409.6 v -84.2 c 0,0 -123.5,286.2 -190.8,325.5 0,0 263.7,370.3 -1234.5,976.3" style="fill:#c8dbf4;fill-opacity:1;fill-rule:nonzero;stroke:none" id="path70" transform="matrix(0.133333, 0, 0, -0.133333, 0, 2666.666748)"/>
  <path d="m 26455,4612 c 0,0 181.7,-276 78.1,-611.9 l -46.7,12.5 c 0,0 45.3,370 -49.7,556.1 -95.1,186.1 18.3,43.3 18.3,43.3" style="fill:#c8dbf4;fill-opacity:1;fill-rule:nonzero;stroke:none" id="path72" transform="matrix(0.133333, 0, 0, -0.133333, 0, 2666.666748)"/>
  <path d="m 27012.3,5346.6 c 0,0 -554.8,310.7 -295.9,732.3 0,0 207.1,258.9 429,325.5 0,0 -118.3,-628.8 0,-643.5 118.4,-14.8 81.4,710.1 81.4,710.1 0,0 584.4,281 813.7,258.8 0,0 -362.5,-613.9 -244.1,-599.1 118.3,14.8 525.1,636.1 525.1,636.1 0,0 599.2,111 695.3,-244.1 96.2,-355 -59.1,-532.5 -147.9,-554.7 -88.8,-22.2 -658.3,-14.8 -643.5,-88.8 14.8,-74 399.4,-192.3 613.9,-125.7 0,0 -236.7,-584.4 -547.3,-554.8 -310.7,29.6 -406.9,221.9 -599.2,236.7 -192.3,14.8 -332.8,-37 -236.7,-88.8 96.2,-51.7 421.6,-16.9 577,-149 155.3,-132 281,-213.4 -7.4,-272.6 -288.5,-59.2 -806.3,-22.2 -909.9,199.7 -103.5,221.9 -103.5,221.9 -103.5,221.9" style="fill:#d4e4f8;fill-opacity:1;fill-rule:nonzero;stroke:none" id="path74" transform="matrix(0.133333, 0, 0, -0.133333, 0, 2666.666748)"/>
  <path d="m 28743.2,6411.8 c 0,0 -1553.4,-503 -1730.9,-1065.2 0,0 7.4,-251.5 -147.9,-539.9 v -111 c 0,0 162.7,377.2 251.4,429 0,0 -347.6,488.2 1627.4,1287.1" style="fill:#d4e4f8;fill-opacity:1;fill-rule:nonzero;stroke:none" id="path76" transform="matrix(0.133333, 0, 0, -0.133333, 0, 2666.666748)"/>
  <path d="m 26864.4,4806.7 c 0,0 -239.6,-363.8 -103,-806.6 l 61.6,16.5 c 0,0 -59.8,487.8 65.5,733.1 125.3,245.3 -24.1,57 -24.1,57" style="fill:#d4e4f8;fill-opacity:1;fill-rule:nonzero;stroke:none" id="path78" transform="matrix(0.133333, 0, 0, -0.133333, 0, 2666.666748)"/>
  <path d="m 26993.6,3039.8 c 600.2,0 1086.7,486.6 1086.7,1086.7 h -2173.4 c 0,-600.1 486.5,-1086.7 1086.7,-1086.7" style="fill:#d4e4f8;fill-opacity:1;fill-rule:nonzero;stroke:none" id="path80" transform="matrix(0.133333, 0, 0, -0.133333, 0, 2666.666748)"/>
  <path d="m 28095.3,2984.5 h -2203.4 v 0 c 0,74.1 60,134.1 134.1,134.1 h 1935.2 c 74.1,0 134.1,-60 134.1,-134.1 v 0" style="fill:#d4e4f8;fill-opacity:1;fill-rule:nonzero;stroke:none" id="path82" transform="matrix(0.133333, 0, 0, -0.133333, 0, 2666.666748)"/>
  <path d="m 28105,4093.2 h -2233.8 v 33.3 H 28105 v -33.3" style="fill:#9fc1f4;fill-opacity:1;fill-rule:nonzero;stroke:none" id="path84" transform="matrix(0.133333, 0, 0, -0.133333, 0, 2666.666748)"/>
  <path d="m 23214.2,11373.1 c -160,83 -288.1,30.8 -288.1,30.8 -489.4,57.5 -632.2,-513.3 -625.6,-709.7 6.6,-196.3 29.1,-407.3 -189.5,-662.4 -631.4,-737 690.9,-769.6 690.9,-769.6 11.2,588.9 717,374 686.1,314.4 904.9,-217.2 90,1607.8 -273.8,1796.5" style="fill:#163560;fill-opacity:1;fill-rule:nonzero;stroke:none" id="path86" transform="matrix(0.133333, 0, 0, -0.133333, 0, 2666.666748)"/>
  <path d="m 21326.3,8918.3 c 0,0 -86.1,131 -155.5,133.6 -69.3,2.5 -197.8,38.5 -187.5,12.8 10.2,-25.7 89.9,-28.3 97.6,-43.7 7.7,-15.4 -118.2,-38.5 -154.2,-41.1 -35.9,-2.5 -120.7,0 -118.1,-18 2.5,-17.9 152.8,-92.5 258.8,-82.2 106,10.3 237,-30.8 237,-30.8 l 21.9,69.4" style="fill:#ffb27d;fill-opacity:1;fill-rule:nonzero;stroke:none" id="path88" transform="matrix(0.133333, 0, 0, -0.133333, 0, 2666.666748)"/>
  <path d="m 22571,8875.9 c 0,0 -46.8,-92.7 -131.6,-199.1 -102.3,-128.1 -260,-276.1 -458,-305.3 -94.6,-14 -187.1,6.4 -272.1,44.2 -0.2,0 -0.3,0 -0.3,0 -240.5,106.8 -421.3,352.3 -421.3,352.3 -42.4,115.6 27,194 27,194 0,0 485.6,-109.3 531.8,-86.1 46.3,23.1 316,800.2 380.2,897.9 64.3,97.7 283.2,148.4 283.2,148.4 l 61.1,-1046.3" style="fill:#f9ddbf;fill-opacity:1;fill-rule:nonzero;stroke:none" id="path90" transform="matrix(0.133333, 0, 0, -0.133333, 0, 2666.666748)"/>
  <path d="m 22439.4,8676.8 c -102.3,-128.1 -260,-276.1 -458,-305.3 -94.6,-14 -187.1,6.4 -272.1,44.2 9.4,-1.3 249.6,-30.9 345.3,140.3 97.7,174.7 203.3,452.2 348.3,359.7 62.6,-39.9 59.8,-139.1 36.5,-238.9" style="fill:#f2ccaa;fill-opacity:1;fill-rule:nonzero;stroke:none" id="path92" transform="matrix(0.133333, 0, 0, -0.133333, 0, 2666.666748)"/>
  <path d="m 24382.6,3634.4 c 0,0 148.2,-135.3 119.3,-231.3 -28.9,-96.1 -162.7,-160.2 -180.7,-277.6 -18.1,-117.4 -90.4,-181.5 -155.4,-181.5 -65.1,0 -310.1,0 -310.1,0 0,0 -47.9,82.7 67.7,107.6 115.7,24.9 159.3,162.9 152,291 -7.2,128.1 10.9,298.9 10.9,298.9 l 245.7,56.9 50.6,-64" style="fill:#233862;fill-opacity:1;fill-rule:nonzero;stroke:none" id="path94" transform="matrix(0.133333, 0, 0, -0.133333, 0, 2666.666748)"/>
  <path d="m 23128.5,3576.9 c 0,0 53.3,-572.8 -11.7,-604.8 l -832.5,1.7 c 0,0 0,96.1 133.7,117.4 133.7,21.4 368.6,99.7 408.4,274 39.7,174.4 302.1,211.7 302.1,211.7" style="fill:#233862;fill-opacity:1;fill-rule:nonzero;stroke:none" id="path96" transform="matrix(0.133333, 0, 0, -0.133333, 0, 2666.666748)"/>
  <path d="m 23721.8,7686.5 c -171.3,384.2 -276.2,494.5 -256.2,613.7 14.9,88.8 -45.3,1654.8 -45.3,1654.8 -20.3,6.3 -61.1,11.9 -83.4,16.9 -70.2,15.6 -128.4,64.9 -152.6,132.7 -29.1,81.7 -52.3,202.2 -51.8,353.3 l -21.9,-4.3 -369,-73.1 c 0,0 8.4,-116.1 8.6,-225.5 0,-0.9 0,-1.8 0,-2.7 0.5,-95 -61.8,-178.8 -153.1,-205.2 -46.6,-13.5 -87.2,-24.9 -87.2,-24.9 0,0 -135.5,-386.9 -161.3,-784.2 -25.9,-397.4 246.3,-570.1 -2.1,-1364.2 -253.6,-811 1469.9,-299.5 1375.3,-87.3" style="fill:#ffb27d;fill-opacity:1;fill-rule:nonzero;stroke:none" id="path98" transform="matrix(0.133333, 0, 0, -0.133333, 0, 2666.666748)"/>
  <path d="m 22741.6,10380.5 c 0,0 8.4,-116.1 8.6,-225.5 206.5,5.8 315.6,194.2 360.4,298.6 l -369,-73.1" style="fill:#e8945b;fill-opacity:1;fill-rule:nonzero;stroke:none" id="path100" transform="matrix(0.133333, 0, 0, -0.133333, 0, 2666.666748)"/>
  <path d="m 22672.6,10277 c 0,0 488.6,-8.1 488.9,296.2 0.3,304.3 63.6,508.2 -248.3,526.2 -311.9,18 -372.6,-98 -397.4,-199.6 -24.8,-101.5 29.8,-612.9 156.8,-622.8" style="fill:#ffb27d;fill-opacity:1;fill-rule:nonzero;stroke:none" id="path102" transform="matrix(0.133333, 0, 0, -0.133333, 0, 2666.666748)"/>
  <path d="m 22690.7,11106.9 c 0,0 133.8,-357 339,-409.8 205.3,-52.8 294.4,2.2 294.4,2.2 0,0 -157.5,125.1 -190.2,343.4 0,0 -342.3,234.1 -443.2,64.2" style="fill:#163560;fill-opacity:1;fill-rule:nonzero;stroke:none" id="path104" transform="matrix(0.133333, 0, 0, -0.133333, 0, 2666.666748)"/>
  <path d="m 22723.9,11077.9 c 0,0 -99.2,-37.1 -140,-109.4 -40,-70.8 -74,-164.5 -66.1,-279.4 0,0 -100.7,242.7 12.5,379.9 120.1,145.6 193.6,8.9 193.6,8.9" style="fill:#163560;fill-opacity:1;fill-rule:nonzero;stroke:none" id="path106" transform="matrix(0.133333, 0, 0, -0.133333, 0, 2666.666748)"/>
  <path d="m 22778.9,10465.7 c 0,0 -33.7,-44.3 -101.1,-41.1 -54.3,2.6 -75.3,49.7 -75.3,49.7 0,0 99.8,24 176.4,-8.6" style="fill:#ebf3fa;fill-opacity:1;fill-rule:nonzero;stroke:none" id="path108" transform="matrix(0.133333, 0, 0, -0.133333, 0, 2666.666748)"/>
  <path d="m 23768.9,9262.2 c 0,0 12.4,-174.9 0,-384.7 -8.2,-139.1 -149,-325.5 -168.9,-371.6 -50.1,-115.6 -106.6,-134.4 -106.6,-134.4 l -437.1,-107.1 -153.7,-37.7 -484.7,144.8 c 0,0 -220.7,616.1 -132.1,963 88.7,346.8 224.1,587.7 224.1,587.7 0,0 395.5,-387.3 910.4,32.8 l 348.6,-692.8" style="fill:#f9ddbf;fill-opacity:1;fill-rule:nonzero;stroke:none" id="path110" transform="matrix(0.133333, 0, 0, -0.133333, 0, 2666.666748)"/>
  <path d="m 23641,8820.7 c -8.3,-139.1 -21.1,-268.7 -41,-314.8 -50.1,-115.6 -106.6,-134.4 -106.6,-134.4 l -437.1,-107.1 -189.9,55.8 c 0,0 633.8,96 563.5,641.2 l 211.1,-140.7" style="fill:#f2ccaa;fill-opacity:1;fill-rule:nonzero;stroke:none" id="path112" transform="matrix(0.133333, 0, 0, -0.133333, 0, 2666.666748)"/>
  <path d="m 22448.8,8278 c 0,0 -240,-747.1 -255.5,-1001.4 -15.4,-254.4 458.8,-3613.3 477.9,-3730.5 18,-110.5 155.2,-180.9 155.2,-180.9 0,0 63.1,-37.2 153.1,-11.8 125,35.3 164.4,77.5 164.4,77.5 0,0 186.9,2395.6 71.2,3251.3 -115.6,855.8 -116.9,1595.8 -116.9,1595.8 h -649.4" style="fill:#ed7d2b;fill-opacity:1;fill-rule:nonzero;stroke:none" id="path114" transform="matrix(0.133333, 0, 0, -0.133333, 0, 2666.666748)"/>
  <path d="m 23465.6,8300.2 c 0,0 366.1,-491.2 400.3,-823.2 34.1,-332.1 53.5,-1498.5 126.2,-1822.2 72.8,-323.7 339.9,-946.7 339.9,-1956.4 0,0 -27.8,-57.9 -113.5,-88.7 -27.4,-9.9 -64.2,-19.4 -99.8,-27.6 -70.7,-16.2 -143.3,18.4 -175.6,83.3 -180.6,363.7 -755.9,1536.6 -785.4,1780.1 -20.9,172.3 -202.6,1312.6 -598.8,1981.8 -95.1,160.6 58.4,799.4 58.4,799.4 l 848.3,73.5" style="fill:#f99746;fill-opacity:1;fill-rule:nonzero;stroke:none" id="path116" transform="matrix(0.133333, 0, 0, -0.133333, 0, 2666.666748)"/>
  <path d="m 22768.1,10457.6 c 0,0 -8.5,-35.9 -97.7,-30.3 0,0 -74.9,4.6 -72.6,44 0,0 72.6,28.1 170.3,-13.7" style="fill:#ffffff;fill-opacity:1;fill-rule:nonzero;stroke:none" id="path118" transform="matrix(0.133333, 0, 0, -0.133333, 0, 2666.666748)"/>
  <path d="m 22410.4,8393.3 c 0,0 96.4,-76.2 287.8,-80.1 228.6,-4.6 795.1,58.3 795.1,58.3 0,0 25.2,-70.3 24.2,-144.6 0,0 -691.9,-174.5 -1092.8,-25.5 0,0 -51.7,97.3 -14.3,191.9" style="fill:#233862;fill-opacity:1;fill-rule:nonzero;stroke:none" id="path120" transform="matrix(0.133333, 0, 0, -0.133333, 0, 2666.666748)"/>
  <path d="m 22643.3,8317.8 c -38.4,0 -69.7,-37.5 -69.7,-83.5 0,-46.1 31.3,-83.5 69.7,-83.5 38.5,0 69.8,37.4 69.8,83.5 0,46 -31.3,83.5 -69.8,83.5 z m 0,-201.6 c -57.5,0 -104.3,53 -104.3,118.1 0,65.1 46.8,118 104.3,118 57.6,0 104.4,-52.9 104.4,-118 0,-65.1 -46.8,-118.1 -104.4,-118.1" style="fill:#ffffff;fill-opacity:1;fill-rule:nonzero;stroke:none" id="path122" transform="matrix(0.133333, 0, 0, -0.133333, 0, 2666.666748)"/>
  <path d="m 24238.2,8258.1 -708.9,-617.2 -844.9,970.3 708.9,617.3 844.9,-970.4" style="fill:#b5453c;fill-opacity:1;fill-rule:nonzero;stroke:none" id="path124" transform="matrix(0.133333, 0, 0, -0.133333, 0, 2666.666748)"/>
  <path d="m 23333.5,8255.9 c 0,0 -259.8,-30.4 -259,-92 0.9,-61.7 64.8,-188.4 96.8,-194 32.1,-5.6 211.4,171.3 211.4,171.3 l -49.2,114.7" style="fill:#ffb27d;fill-opacity:1;fill-rule:nonzero;stroke:none" id="path126" transform="matrix(0.133333, 0, 0, -0.133333, 0, 2666.666748)"/>
  <path d="m 23420.3,9955 c 0,0 346.8,-24.3 479.7,-347.4 132.9,-323.2 385.1,-865.7 385.1,-957 0,-91.3 -140.8,-372.6 -897.4,-534.4 0,0 -78.3,82.3 -73.6,147.4 0,0 472.3,405.7 471.1,453.1 -2.4,89.7 -77.5,208.1 -492.1,622.9 -112.8,112.8 127.2,615.4 127.2,615.4" style="fill:#f9ddbf;fill-opacity:1;fill-rule:nonzero;stroke:none" id="path128" transform="matrix(0.133333, 0, 0, -0.133333, 0, 2666.666748)"/>
  <path d="m 26188.3,11889.7 206.8,-722.8 c 3.1,-10.6 4.1,-21.4 3.4,-31.9 -2.5,-38 -28.5,-72 -67.2,-83.1 L 25076,10692.7 c -38.9,-11.1 -79.1,4.3 -101.2,35.5 -6,8.4 -10.7,17.9 -13.7,28.4 l -206.7,722.5 c -14.2,49.4 14.4,100.8 63.7,115 l 1255.2,359.1 c 49.3,14.1 100.7,-14.2 115,-63.5" style="fill:#cde0fb;fill-opacity:1;fill-rule:nonzero;stroke:none" id="path130" transform="matrix(0.133333, 0, 0, -0.133333, 0, 2666.666748)"/>
  <path d="m 26398.5,11135 c -2.5,-38 -28.5,-72 -67.2,-83.1 L 25076,10692.7 c -38.9,-11.1 -79.1,4.3 -101.2,35.5 l 639.3,582.5 784.4,-175.7" style="fill:#bed7fb;fill-opacity:1;fill-rule:nonzero;stroke:none" id="path132" transform="matrix(0.133333, 0, 0, -0.133333, 0, 2666.666748)"/>
  <path d="m 26188.3,11889.7 -562,-697.8 -861.4,250.2 -10.5,37 c -14.2,49.4 14.4,100.8 63.7,115 l 1255.2,359.1 c 49.3,14.1 100.7,-14.2 115,-63.5" style="fill:#dfebfd;fill-opacity:1;fill-rule:nonzero;stroke:none" id="path134" transform="matrix(0.133333, 0, 0, -0.133333, 0, 2666.666748)"/>
  <path d="m 16234.3,2963.9 h -3.5 c -21.1,0 -38.1,17.4 -37.6,38.4 l 56.9,2468.4 167.8,19.6 -143,-2488.1 c -1.3,-21.5 -19.1,-38.3 -40.6,-38.3" style="fill:#b0d4ff;fill-opacity:1;fill-rule:nonzero;stroke:none" id="path136" transform="matrix(0.133333, 0, 0, -0.133333, 0, 2666.666748)"/>
  <path d="m 15256.8,2963.9 h -3.6 c -21.1,0 -38.1,17.4 -37.6,38.4 l 57,2468.4 167.7,19.6 -143,-2488.1 c -1.3,-21.5 -19,-38.3 -40.5,-38.3" style="fill:#95c0f4;fill-opacity:1;fill-rule:nonzero;stroke:none" id="path138" transform="matrix(0.133333, 0, 0, -0.133333, 0, 2666.666748)"/>
  <path d="m 17954.3,2963.9 h 3.6 c 21.1,0 38,17.4 37.5,38.4 l -56.9,2468.4 -167.8,19.6 143.1,-2488.1 c 1.2,-21.5 19,-38.3 40.5,-38.3" style="fill:#b0d4ff;fill-opacity:1;fill-rule:nonzero;stroke:none" id="path140" transform="matrix(0.133333, 0, 0, -0.133333, 0, 2666.666748)"/>
  <path d="m 15145.6,5623.8 v 1691.4 c 0,297.6 241.3,538.9 538.9,538.9 h 1218.6 c 297.6,0 538.9,-241.3 538.9,-538.9 V 5559.1 l -2296.4,64.7" style="fill:#b0d4ff;fill-opacity:1;fill-rule:nonzero;stroke:none" id="path142" transform="matrix(0.133333, 0, 0, -0.133333, 0, 2666.666748)"/>
  <path d="m 17660.4,5356.7 h -2353 c -89.4,0 -161.8,72.5 -161.8,161.8 v 105.3 h 2514.8 v -267.1" style="fill:#95c0f4;fill-opacity:1;fill-rule:nonzero;stroke:none" id="path144" transform="matrix(0.133333, 0, 0, -0.133333, 0, 2666.666748)"/>
  <path d="m 17942.3,5356.7 h -1780.1 c -66.1,0 -119.6,53.6 -119.6,119.7 v 27.7 c 0,66.1 53.5,119.7 119.6,119.7 h 1780.1 c 66.1,0 119.7,-53.6 119.7,-119.7 v -27.7 c 0,-66.1 -53.6,-119.7 -119.7,-119.7" style="fill:#b0d4ff;fill-opacity:1;fill-rule:nonzero;stroke:none" id="path146" transform="matrix(0.133333, 0, 0, -0.133333, 0, 2666.666748)"/>
  <path d="m 17873.2,6045.2 c -174.6,-303.8 -394.1,-421.1 -394.1,-421.1 h -913.5 c 0,0 1440.8,652.9 1307.6,421.1" style="fill:#233862;fill-opacity:1;fill-rule:nonzero;stroke:none" id="path148" transform="matrix(0.133333, 0, 0, -0.133333, 0, 2666.666748)"/>
  <path d="m 17171.6,3694.3 c -23.8,-27.3 -26.8,-57.8 -15,-90.3 0,-0.1 0,-0.3 0.2,-0.5 21.8,-60.2 93.8,-127.4 177.4,-194.5 10.6,-8.7 20.2,-16.5 28.4,-23.8 2.2,-1.9 4.4,-3.8 6.4,-5.7 1.7,-1.5 3.3,-3 4.9,-4.4 78,-71.9 48.7,-88.4 188.7,-234.2 159.8,-166.2 269.7,-169.2 301,-154.1 26.5,12.9 -27.3,101.1 -86.9,200.1 -2.9,4.8 -5.7,9.7 -8.7,14.5 -7.9,13.2 -15.8,26.5 -23.7,39.8 -69.8,119.2 -51.8,175.1 -35.3,352.6 13.5,144.2 224.3,805.5 224.3,805.5 l -306.1,52.7 c 0,0 -92.1,-526.6 -193.7,-607.7 -54.3,-43.2 -115.1,-43.8 -167.3,-75.8 -3.7,-2.2 -7.3,-4.5 -10.8,-6.9 -29.7,-19.6 -59.9,-39.9 -83.8,-67.3" style="fill:#ffb27d;fill-opacity:1;fill-rule:nonzero;stroke:none" id="path150" transform="matrix(0.133333, 0, 0, -0.133333, 0, 2666.666748)"/>
  <path d="m 17171.6,3694.3 c -23.8,-27.3 -26.8,-57.8 -15,-90.3 0,-0.1 0,-0.3 0.2,-0.5 26.7,-60.1 96.8,-127 177.7,-193.9 10.5,-8.8 19.8,-16.9 28.1,-24.4 2.2,-1.9 4.4,-3.8 6.4,-5.7 1.7,-1.5 3.3,-3 4.9,-4.4 78,-71.9 48.7,-88.4 188.7,-234.2 159.8,-166.2 269.7,-169.2 301,-154.1 26.5,12.9 -27.3,101.1 -86.9,200.1 -31.1,11.4 -175.5,70.1 -284.7,209.8 -96.2,122.8 -160.3,280.4 -225.8,371.8 -3.7,-2.2 -7.3,-4.5 -10.8,-6.9 -29.7,-19.6 -59.9,-39.9 -83.8,-67.3" style="fill:#233862;fill-opacity:1;fill-rule:nonzero;stroke:none" id="path152" transform="matrix(0.133333, 0, 0, -0.133333, 0, 2666.666748)"/>
  <path d="m 19639.7,3885.5 c 18.9,-94.5 153.5,-78.7 304,-42 150.5,36.8 114.7,-6.9 328.8,16.8 214.2,23.7 279.1,103.5 285.6,135.4 5.8,28.2 -100,38.2 -213.5,51.3 -14.2,1.6 -28.6,3.3 -42.9,5.1 -128.2,16.1 -222,98.8 -338.4,166.7 -110.2,64.3 -274.8,326.4 -274.8,326.4 l -293.6,-23.3 c 0,0 154.1,-234.1 213.7,-335.8 35,-59.9 33.2,-139 28.8,-200.2 -2.3,-33.2 -4.4,-67.1 2.3,-100.4" style="fill:#ffb27d;fill-opacity:1;fill-rule:nonzero;stroke:none" id="path154" transform="matrix(0.133333, 0, 0, -0.133333, 0, 2666.666748)"/>
  <path d="m 19943.7,3843.5 c 150.5,36.8 114.7,-6.9 328.8,16.8 214.2,23.7 279.1,103.5 285.6,135.4 5.8,28.2 -100,38.2 -213.5,51.3 l -1,-2.2 c 0,0 -128.5,-91.1 -306.7,-95.3 -145.3,-3.6 -299.2,38.1 -399.5,36.4 -2.3,-33.2 -4.4,-67.1 2.3,-100.4 18.9,-94.5 153.5,-78.7 304,-42" style="fill:#233862;fill-opacity:1;fill-rule:nonzero;stroke:none" id="path156" transform="matrix(0.133333, 0, 0, -0.133333, 0, 2666.666748)"/>
  <path d="m 18514.2,5763.3 -274.5,-738.7 -358.4,-964.6 c 0,0 -97.3,-9.4 -190.4,17.4 -85.8,24.8 -184.2,89.6 -184.2,89.6 0,0 99.5,1035.7 285.2,1630.2 47.6,152.6 100.9,276.1 159.7,345.5 287.8,340.2 562.6,-379.4 562.6,-379.4" style="fill:#233862;fill-opacity:1;fill-rule:nonzero;stroke:none" id="path158" transform="matrix(0.133333, 0, 0, -0.133333, 0, 2666.666748)"/>
  <path d="m 18235.1,6936.5 c -179.8,58 -692.8,-16.5 -1208.1,-117.3 l -107.9,177.9 -1113,86.9 c 0,0 -367.3,-814.4 -166.3,-1333.4 29.6,-76.3 88.3,-125.2 188.4,-126.8 0.1,-0.1 16.2,0 16.3,0 0,0 662.4,0.4 877.5,0.4 553.6,0 1171.5,380.5 1251.4,396.4 130.9,26.2 183.2,-235.5 314,-510.2 130.9,-274.8 1229.9,-1216.8 1229.9,-1216.8 0,0 168.9,-1.7 238.7,24.5 75.1,28.1 102.5,64.6 102.5,64.6 0,0 -1217.8,2423 -1623.4,2553.8" style="fill:#2b478b;fill-opacity:1;fill-rule:nonzero;stroke:none" id="path160" transform="matrix(0.133333, 0, 0, -0.133333, 0, 2666.666748)"/>
  <path d="m 16875.3,10238.1 c -142.6,74.8 -359.5,85 -394.8,89.7 -421.7,56.7 -675.6,-556.2 -690.5,-741.9 -27.5,-342.3 -208.6,-394.5 -463.5,-608.8 -511,-429.9 -361.2,-929.3 -81.7,-1114.9 167.6,-111.4 463.2,0 463.2,0 4.1,-2.9 808.2,449.5 1204.5,667.7 594.2,84.5 326.1,1517.4 -37.2,1708.2" style="fill:#233862;fill-opacity:1;fill-rule:nonzero;stroke:none" id="path162" transform="matrix(0.133333, 0, 0, -0.133333, 0, 2666.666748)"/>
  <path d="m 16580.3,8715.7 c 1.8,-1.1 -195,-68.3 -326.5,-10.1 -123.8,54.7 -217.6,258.4 -215.7,258.5 56.3,2.6 118.1,51.8 165.7,374.8 l 24,-8.6 403.1,-145.1 c 0,0 -29.2,-129.3 -48.1,-252.5 -15.9,-103.3 -24.5,-202.4 -2.5,-217" style="fill:#ffb27d;fill-opacity:1;fill-rule:nonzero;stroke:none" id="path164" transform="matrix(0.133333, 0, 0, -0.133333, 0, 2666.666748)"/>
  <path d="m 16630.9,9185.2 c 0,0 -29.2,-129.3 -48.1,-252.5 -231.6,41.7 -322.4,272.4 -355,397.6 l 403.1,-145.1" style="fill:#ed975d;fill-opacity:1;fill-rule:nonzero;stroke:none" id="path166" transform="matrix(0.133333, 0, 0, -0.133333, 0, 2666.666748)"/>
  <path d="m 16690.9,9056.9 c 0,0 -551.5,74 -500.1,416.7 51.4,342.8 14.8,583.2 369.1,550.4 354.3,-32.8 402.9,-173.8 413.6,-292.4 10.7,-118.5 -137.8,-685.2 -282.6,-674.7" style="fill:#ffb27d;fill-opacity:1;fill-rule:nonzero;stroke:none" id="path168" transform="matrix(0.133333, 0, 0, -0.133333, 0, 2666.666748)"/>
  <path d="m 16953.4,9919.5 c 0,0 -353,-304.2 -593.2,-328.8 -240.1,-24.5 -331.1,52.6 -331.1,52.6 0,0 141.6,117.5 226.8,307.2 25.1,55.9 78.1,94.3 139.2,99.5 171.5,14.8 496.5,21.6 558.3,-130.5" style="fill:#233862;fill-opacity:1;fill-rule:nonzero;stroke:none" id="path170" transform="matrix(0.133333, 0, 0, -0.133333, 0, 2666.666748)"/>
  <path d="m 16732.7,9946.8 c 0,0 118.1,-114.2 155.3,-198.9 35.9,-81.8 46.7,-277.3 18.1,-354.9 0,0 184,357.8 79.8,531.7 -110.4,184.3 -253.2,22.1 -253.2,22.1" style="fill:#233862;fill-opacity:1;fill-rule:nonzero;stroke:none" id="path172" transform="matrix(0.133333, 0, 0, -0.133333, 0, 2666.666748)"/>
  <path d="m 17044.7,7903.2 c -16.6,-1116.4 -4.5,-883.1 -126.6,-989 -29.5,-25.5 -112.2,-40.7 -221.1,-47.9 -342.3,-22.7 -944.1,33.7 -967,96.9 -78.9,218.9 -23.2,286.9 -89.1,622.1 -6.8,35.6 -15.3,74.2 -25.3,116.2 -54.9,230.2 -108.4,308.5 86.5,678.3 176.7,335 360.3,606.8 376.8,597 466.2,-276.8 503.9,-44.1 503.9,-44.1 0,0 470.1,-484.9 461.9,-1029.5" style="fill:#ffffff;fill-opacity:1;fill-rule:nonzero;stroke:none" id="path174" transform="matrix(0.133333, 0, 0, -0.133333, 0, 2666.666748)"/>
  <path d="M 18239.7,5024.6 17881.3,4060 c 0,0 -97.3,-9.4 -190.4,17.4 -85.8,24.8 -184.2,89.6 -184.2,89.6 0,0 99.5,1035.7 285.2,1630.2 l 447.8,-772.6" style="fill:#2b478b;fill-opacity:1;fill-rule:nonzero;stroke:none" id="path176" transform="matrix(0.133333, 0, 0, -0.133333, 0, 2666.666748)"/>
  <path d="m 16582.8,8932.7 c 0,0 479.7,-81.3 536.1,-287.9 56.3,-206.5 387.8,-1420.8 387.8,-1420.8 0,0 -243.9,-43.8 -356.5,68.8 -112.7,112.7 -392.1,1045.3 -392.1,1045.3 l -175.3,594.6" style="fill:#ffffff;fill-opacity:1;fill-rule:nonzero;stroke:none" id="path178" transform="matrix(0.133333, 0, 0, -0.133333, 0, 2666.666748)"/>
  <path d="m 16697,6866.3 c -342.3,-22.7 -944.1,33.7 -967,96.9 -78.9,218.9 -23.2,286.9 -89.1,622.1 l 165.2,464.9 c 0,0 -27.3,-517.7 125.3,-653.9 152.6,-136.2 625.2,-262.9 699.4,-376.7 35.8,-54.6 59.4,-109.3 66.2,-153.3" style="fill:#ebf3ff;fill-opacity:1;fill-rule:nonzero;stroke:none" id="path180" transform="matrix(0.133333, 0, 0, -0.133333, 0, 2666.666748)"/>
  <path d="m 16304.8,7084 c 0,0 337.7,75.2 392.2,45.3 54.5,-30 187.7,-139.1 204.4,-177.1 16.7,-38 -121.4,28.8 -166.2,40.8 -29.1,7.8 -105.6,-18.8 -143.5,-31.4 -159.4,-53.1 -257.1,-25.8 -257.1,-25.8 l -29.8,148.2" style="fill:#ffb27d;fill-opacity:1;fill-rule:nonzero;stroke:none" id="path182" transform="matrix(0.133333, 0, 0, -0.133333, 0, 2666.666748)"/>
  <path d="m 16078.6,8977.1 c 0,0 -453.5,-28 -610.4,-246.9 -221,-308.2 -659.4,-1621.8 -408.2,-1797 283,-197.2 1287.7,-51.6 1287.7,-51.6 0,0 33.5,156.3 -13.1,231.9 -46.5,75.6 -802.5,197.7 -837.4,232.6 -34.9,34.9 436.2,680.4 436.2,785.1 0,104.7 145.2,845.9 145.2,845.9" style="fill:#ffffff;fill-opacity:1;fill-rule:nonzero;stroke:none" id="path184" transform="matrix(0.133333, 0, 0, -0.133333, 0, 2666.666748)"/>
  <path d="m 16713.4,7035.3 c 0,0 70.7,-91.3 93.9,-102.2 23.2,-10.9 38.2,-8.2 38.2,-8.2 l -47.7,85.8 -84.4,24.6" style="fill:#ffb27d;fill-opacity:1;fill-rule:nonzero;stroke:none" id="path186" transform="matrix(0.133333, 0, 0, -0.133333, 0, 2666.666748)"/>
  <path d="m 16697,7129.3 205.8,-99.9 c 0,0 -8.8,-14.4 -34.1,-13.2 -25.4,1.1 -89.3,24.5 -89.3,24.5 l -82.4,88.6" style="fill:#ffb27d;fill-opacity:1;fill-rule:nonzero;stroke:none" id="path188" transform="matrix(0.133333, 0, 0, -0.133333, 0, 2666.666748)"/>
  <path d="m 16807.3,6793.3 h 1627.5 l 489.6,1217.4 h -1625 l -492.1,-1217.4" style="fill:#f99746;fill-opacity:1;fill-rule:nonzero;stroke:none" id="path190" transform="matrix(0.133333, 0, 0, -0.133333, 0, 2666.666748)"/>
  <path d="m 18453.9,6840.7 h -2149.1 v -47.4 h 2130 l 19.1,47.4" style="fill:#ed7d2b;fill-opacity:1;fill-rule:nonzero;stroke:none" id="path192" transform="matrix(0.133333, 0, 0, -0.133333, 0, 2666.666748)"/>
  <path d="m 18024,7402 c 12.3,42.8 -12.5,77.5 -55.3,77.5 -42.8,0 -87.4,-34.7 -99.7,-77.5 -12.3,-42.8 12.5,-77.5 55.3,-77.5 42.8,0 87.4,34.7 99.7,77.5" style="fill:#ffffff;fill-opacity:1;fill-rule:nonzero;stroke:none" id="path194" transform="matrix(0.133333, 0, 0, -0.133333, 0, 2666.666748)"/>
  <path d="m 9280.64,5414.6 h -5.2 c -60.48,0 -109.52,49.1 -109.52,109.6 v 2311.9 c 0,60.5 49.04,109.6 109.52,109.6 h 5.2 c 60.49,0 109.53,-49.1 109.53,-109.6 V 5524.2 c 0,-60.5 -49.04,-109.6 -109.53,-109.6" style="fill:#b0d4ff;fill-opacity:1;fill-rule:nonzero;stroke:none" id="path196" transform="matrix(0.133333, 0, 0, -0.133333, 0, 2666.666748)"/>
  <path d="m 9277.08,2963.9 h -3.58 c -21.08,0 -38.04,17.4 -37.55,38.4 l 56.95,2468.4 167.75,19.6 -143.05,-2488.1 c -1.23,-21.5 -19.01,-38.3 -40.52,-38.3" style="fill:#95c0f4;fill-opacity:1;fill-rule:nonzero;stroke:none" id="path198" transform="matrix(0.133333, 0, 0, -0.133333, 0, 2666.666748)"/>
  <path d="m 11974.6,2963.9 h 3.6 c 21.1,0 38,17.4 37.6,38.4 l -57,2468.4 -167.8,19.6 143.1,-2488.1 c 1.2,-21.5 19,-38.3 40.5,-38.3" style="fill:#b0d4ff;fill-opacity:1;fill-rule:nonzero;stroke:none" id="path200" transform="matrix(0.133333, 0, 0, -0.133333, 0, 2666.666748)"/>
  <path d="M 11962.6,5623.8 H 9165.92 v -105.3 c 0,-89.3 72.45,-161.8 161.81,-161.8 h 854.77 1498.2 281.9 c 66.1,0 119.7,53.6 119.7,119.7 v 27.7 c 0,66.1 -53.6,119.7 -119.7,119.7" style="fill:#b0d4ff;fill-opacity:1;fill-rule:nonzero;stroke:none" id="path202" transform="matrix(0.133333, 0, 0, -0.133333, 0, 2666.666748)"/>
  <path d="m 13362.7,3491.6 c 0,0 -41.2,-511.8 50.5,-518.6 12.2,-0.9 464.8,-0.9 464.8,-0.9 l 577.8,3.3 c 0,0 -3.8,139.3 -172.7,168.7 -168.9,29.4 -503.1,171.5 -605.5,394.8 -107.6,234.8 -314.9,-47.3 -314.9,-47.3" style="fill:#163560;fill-opacity:1;fill-rule:nonzero;stroke:none" id="path204" transform="matrix(0.133333, 0, 0, -0.133333, 0, 2666.666748)"/>
  <path d="m 9886.69,6295.4 c 0,0 19.24,-503 107.9,-671.6 h 2043.51 c 0,0 491,-50.8 535.8,-84 56.5,-41.7 -196.7,-456.2 752.3,-2075.8 l 464.8,11.8 c 0,0 -486,2626.8 -572.4,2693.2 -129.2,99.5 -1641,445.6 -1899.8,453.2 -258.8,7.5 -1432.11,-326.8 -1432.11,-326.8" style="fill:#1c468a;fill-opacity:1;fill-rule:nonzero;stroke:none" id="path206" transform="matrix(0.133333, 0, 0, -0.133333, 0, 2666.666748)"/>
  <path d="m 11032.4,9275.7 c 157.7,-97.7 166.5,-292.3 166.5,-292.3 -384.6,-99.4 -944.2,327.6 -944.2,327.6 0,0 247.6,166.3 339.3,531.8 4.6,18.5 8.9,37.4 12.6,56.7 12,61.6 19.5,128.3 20.8,200.2 l 176.7,-158.3 293.8,-263.2 c 0,0 -6.7,-109.2 -43.4,-297.1 -6.4,-32.8 -13.7,-68 -22.1,-105.4" style="fill:#ffb27d;fill-opacity:1;fill-rule:nonzero;stroke:none" id="path208" transform="matrix(0.133333, 0, 0, -0.133333, 0, 2666.666748)"/>
  <path d="m 11249.7,7256.5 c -13.2,-85.8 13.4,-154.8 26.2,-218.7 5,-24.3 7.9,-48 5.8,-71.5 -21,-237.4 63.6,-267.5 37.1,-344.1 0,0 -90.4,-52.9 -255.9,-115.7 -72,-27.1 -158.3,-56.3 -257.6,-83.8 -5.2,-1.4 -10.4,-2.8 -15.8,-4.2 -384.4,-104 -788.6,-126.2 -902.81,-123.1 -218.14,5.8 -262.15,558.7 -181.23,1255.2 126.06,1084.9 296.54,1610.9 745.74,1990.9 28.3,24 9.2,-57.5 160.2,-130.3 139.5,-67.1 307.8,-82.8 438.4,-53.9 l 102.7,-105.3 c 204,-322.3 225.4,-704.8 208.1,-1023.7 -22,-403.1 -73,-724.8 -110.9,-971.8" style="fill:#b0d4ff;fill-opacity:1;fill-rule:nonzero;stroke:none" id="path210" transform="matrix(0.133333, 0, 0, -0.133333, 0, 2666.666748)"/>
  <path d="m 11097.9,9678.2 c 0,0 15.6,16.4 -21.1,-171.4 -325.5,94.1 -431.5,259.9 -474.9,369.8 -12.4,31.1 121,47.6 202.2,64.8 l 293.8,-263.2" style="fill:#ed975d;fill-opacity:1;fill-rule:nonzero;stroke:none" id="path212" transform="matrix(0.133333, 0, 0, -0.133333, 0, 2666.666748)"/>
  <path d="m 11249.2,9677.3 c 0,0 -627.9,-90 -677.9,301.9 -50,391.9 -164.7,644.2 234.1,718.2 398.8,74 495.9,-65.6 544.4,-192.3 48.5,-126.8 61.4,-794.3 -100.6,-827.8" style="fill:#ffb27d;fill-opacity:1;fill-rule:nonzero;stroke:none" id="path214" transform="matrix(0.133333, 0, 0, -0.133333, 0, 2666.666748)"/>
  <path d="m 13612.3,6772.8 48,-15.1 393.4,1257.5 -48,15 -393.4,-1257.4" style="fill:#1c468a;fill-opacity:1;fill-rule:nonzero;stroke:none" id="path216" transform="matrix(0.133333, 0, 0, -0.133333, 0, 2666.666748)"/>
  <path d="m 12278.7,6854.8 1382.5,-14.4 -0.9,-82.7 -1382.5,14.4 0.9,82.7" style="fill:#1c468a;fill-opacity:1;fill-rule:nonzero;stroke:none" id="path218" transform="matrix(0.133333, 0, 0, -0.133333, 0, 2666.666748)"/>
  <path d="m 10371.1,10689.5 c -5.1,5.9 -16.8,10.7 -42.9,12.3 0,0 21,12.9 48.9,13.4 5.7,36.2 25.6,100.3 88.1,115.4 0,0 -33.7,-17.6 -38.4,-56.2 72.9,73.7 228.3,126.6 657.2,89.3 565.2,-49.1 376,-409.7 302.4,-452.3 -73.5,-42.6 -256.9,77.2 -393.4,67.5 -136.5,-9.8 -164,-206.7 -210.5,-233.4 -46.5,-26.7 -27.9,21 -90.3,49.8 -62.4,28.8 -69.2,-74.9 -51.6,-142.5 17.5,-67.6 -69.2,-155.9 -69.2,-155.9 0,0 0,0 -86.2,94.3 -86.2,94.3 -165,491.5 -124.8,575.8 3.5,7.4 7,14.9 10.7,22.5" style="fill:#2c3a64;fill-opacity:1;fill-rule:nonzero;stroke:none" id="path220" transform="matrix(0.133333, 0, 0, -0.133333, 0, 2666.666748)"/>
  <path d="m 11318.8,6622.2 c 0,0 -90.4,-52.9 -255.9,-115.7 -716.4,522.7 -712.5,1760 -716.4,1781.2 l 899.7,-792.4 29.7,-457.5 c 5,-24.3 7.9,-48 5.8,-71.5 -21,-237.4 63.6,-267.5 37.1,-344.1" style="fill:#91b8ef;fill-opacity:1;fill-rule:nonzero;stroke:none" id="path222" transform="matrix(0.133333, 0, 0, -0.133333, 0, 2666.666748)"/>
  <path d="m 12615.8,7204.2 c 0,0 57.6,-9.4 118.4,19.2 60.8,28.5 270.5,118.6 309.9,106.3 39.4,-12.3 168,-84.9 198.3,-98.7 30.3,-13.8 83.8,-84.6 83.8,-84.6 -22.2,-22.4 -100.4,29 -135.2,28 -34.9,-0.9 -292.7,-141.7 -369.3,-144.8 -76.6,-3.1 -196,12.6 -196,12.6 l -9.9,162" style="fill:#ffb27d;fill-opacity:1;fill-rule:nonzero;stroke:none" id="path224" transform="matrix(0.133333, 0, 0, -0.133333, 0, 2666.666748)"/>
  <path d="m 13083,7193 c 0.7,-4.2 94.2,-108.5 165.5,-75.4 l -78.1,77.2 -87.4,-1.8" style="fill:#ffb27d;fill-opacity:1;fill-rule:nonzero;stroke:none" id="path226" transform="matrix(0.133333, 0, 0, -0.133333, 0, 2666.666748)"/>
  <path d="m 12734.2,7223.4 c 0,0 83.9,77.7 111.7,115 0,0 16.8,-7.6 17.5,-21.8 1.1,-23.6 -22,-67 -22,-67 l -107.2,-26.2" style="fill:#ffb27d;fill-opacity:1;fill-rule:nonzero;stroke:none" id="path228" transform="matrix(0.133333, 0, 0, -0.133333, 0, 2666.666748)"/>
  <path d="m 11083.8,9069.5 c -461.1,280.8 -1005.4,-209.8 -776.6,-698.9 265.4,-567.1 707.1,-1258.7 1058.1,-1299.6 250.2,-29.1 965.2,-120.8 1268.1,-64.3 0,0 146.7,-7.2 67.1,229 0,0 -978.4,272.7 -1141,484.3 -87.1,113.3 -235.5,342.8 -465,1342.9 -0.9,4.1 -7.1,4.4 -10.7,6.6" style="fill:#b0d4ff;fill-opacity:1;fill-rule:nonzero;stroke:none" id="path230" transform="matrix(0.133333, 0, 0, -0.133333, 0, 2666.666748)"/>
  <path d="m 23483.3,2963.9 h 4.9 c 29.1,0 52.6,24 51.9,53.1 l -78.7,3409.9 -231.7,27.1 197.6,-3437.2 c 1.7,-29.7 26.2,-52.9 56,-52.9" style="fill:#739af0;fill-opacity:1;fill-rule:nonzero;stroke:none" id="path232" transform="matrix(0.133333, 0, 0, -0.133333, 0, 2666.666748)"/>
  <path d="m 12089.1,2963.9 h -4.9 c -29.1,0 -52.6,24 -51.9,53.1 l 78.7,3409.9 231.7,27.1 -197.6,-3437.2 c -1.7,-29.7 -26.2,-52.9 -56,-52.9" style="fill:#739af0;fill-opacity:1;fill-rule:nonzero;stroke:none" id="path234" transform="matrix(0.133333, 0, 0, -0.133333, 0, 2666.666748)"/>
  <path d="M 23685.2,6364.2 H 11857.7 c -86,0 -155.8,69.8 -155.8,155.8 v 99.8 c 0,86.1 69.8,155.9 155.8,155.9 h 11827.5 c 86,0 155.8,-69.8 155.8,-155.9 V 6520 c 0,-86 -69.8,-155.8 -155.8,-155.8" style="fill:#739af0;fill-opacity:1;fill-rule:nonzero;stroke:none" id="path236" transform="matrix(0.133333, 0, 0, -0.133333, 0, 2666.666748)"/>
  <path d="M 22186.7 15082.5 C 22186.7 14796.9 22287.8 14534.9 22456.2 14330.5 C 22601.9 14153.7 22682.8 13932.4 22682.8 13703.4 L 22682.8 13373.1 C 22682.8 13163.1 22854.6 12991.3 23064.6 12991.3 L 23675.6 12991.3 C 23885.6 12991.3 24057.4 13163.1 24057.4 13373.1 L 24057.4 13704 C 24057.4 13933.5 24139.5 14154.5 24285.1 14331.9 C 24454.2 14537.9 24555.2 14801.9 24553.5 15089.6 C 24549.7 15742.3 24022.8 16265.9 23370.1 16265.9 C 23297.6 16265.9 23226.6 16259.4 23157.7 16246.8 C 23142.4 16244.1 23127.2 16241 23112.2 16237.7 C 22582.6 16120 22186.7 15647.5 22186.7 15082.5" style="fill:#f9ddbf;fill-opacity:1;fill-rule:nonzero;stroke:none" id="path238" transform="matrix(0.133333, 0, 0, -0.133333, 0, 2666.666748)"/>
  <path d="M 23673.4 12991.3 L 23672.1 12981.1 L 23655.3 12852.5 L 23650.9 12818.6 L 23650.9 12818.3 L 23646.4 12784.2 L 23629.7 12655.5 L 23625.3 12621.6 L 23625.2 12621.3 L 23620.8 12587.2 L 23618.3 12568.3 C 23609.8 12503.1 23535.2 12453.2 23446 12453.2 L 23244.9 12453.2 C 23223.6 12453.2 23203.3 12456 23184.4 12461.2 L 23184.3 12461.2 C 23167.3 12465.8 23151.6 12472.4 23137.5 12480.6 L 23136.4 12481.3 C 23125 12488 23114.8 12495.8 23106 12504.5 C 23087.9 12522.2 23076.1 12543.6 23072.7 12567.1 L 23065.5 12617 L 23061 12648.4 L 23060.9 12649.1 L 23060.9 12649.2 L 23056.5 12679.9 L 23039.5 12799.2 L 23035 12830.5 L 23034.9 12831.2 L 23030.4 12862.1 L 23011.9 12991.3 L 23673.4 12991.3" style="fill:#95c0f4;fill-opacity:1;fill-rule:nonzero;stroke:none" id="path240" transform="matrix(0.133333, 0, 0, -0.133333, 0, 2666.666748)"/>
  <path d="M 23593.6 12991.3 L 23480 12991.3 C 23296.6 12938.3 23114.7 12885.9 23030.4 12862.1 L 23034.9 12831.2 L 23035 12830.5 L 23039.5 12799.2 C 23107.7 12818.1 23271.6 12865 23672.1 12981.1 L 23673.4 12991.3 L 23593.6 12991.3" style="fill:#739af0;fill-opacity:1;fill-rule:nonzero;stroke:none" id="path242" transform="matrix(0.133333, 0, 0, -0.133333, 0, 2666.666748)"/>
  <path d="M 23060.9 12649.2 L 23060.9 12649.1 L 23061 12648.4 L 23065.5 12617 C 23144.5 12639.2 23307.3 12685.9 23646.4 12784.2 L 23650.9 12818.3 L 23650.9 12818.6 L 23655.3 12852.5 C 23441 12790.4 23181.7 12715.5 23056.5 12679.9 L 23060.9 12649.2" style="fill:#739af0;fill-opacity:1;fill-rule:nonzero;stroke:none" id="path244" transform="matrix(0.133333, 0, 0, -0.133333, 0, 2666.666748)"/>
  <path d="M 23136.4 12481.3 L 23137.5 12480.6 C 23151.6 12472.4 23167.3 12465.8 23184.3 12461.2 L 23184.4 12461.2 C 23277.4 12487.8 23415.5 12527.7 23620.8 12587.2 L 23625.2 12621.3 L 23625.3 12621.6 L 23629.7 12655.5 C 23446.3 12602.4 23235.9 12541.7 23106 12504.5 C 23114.8 12495.8 23125 12488 23136.4 12481.3" style="fill:#739af0;fill-opacity:1;fill-rule:nonzero;stroke:none" id="path246" transform="matrix(0.133333, 0, 0, -0.133333, 0, 2666.666748)"/>
  <path d="M 23131.5 12986.8 L 22875 14500.9 L 22927.8 14509.8 L 23184.3 12995.8 L 23131.5 12986.8" style="fill:#ffffff;fill-opacity:1;fill-rule:nonzero;stroke:none" id="path248" transform="matrix(0.133333, 0, 0, -0.133333, 0, 2666.666748)"/>
  <path d="M 23584.8 12986.5 L 23532.1 12996.1 L 23804.9 14486.3 L 23857.5 14476.7 L 23584.8 12986.5" style="fill:#ffffff;fill-opacity:1;fill-rule:nonzero;stroke:none" id="path250" transform="matrix(0.133333, 0, 0, -0.133333, 0, 2666.666748)"/>
  <path d="M 23688.4 14435.3 C 23660.3 14408.3 23641.2 14373.6 23642.6 14346.9 C 23643.7 14327.6 23655.3 14313.7 23677.1 14305.7 C 23689 14301.3 23697.2 14304.6 23702.9 14315.8 C 23715.4 14340.7 23710 14393.9 23688.4 14435.3 Z M 23090.6 14445.7 C 23062.3 14420.4 23046.4 14384.8 23042.9 14352.3 C 23039.9 14324.6 23046.7 14302.2 23059.4 14297.7 C 23080 14290.4 23095.1 14295 23104.2 14311.6 C 23120.6 14341.6 23114.6 14399.4 23090.6 14445.7 Z M 23293.2 14394.3 C 23278.3 14375.8 23266.7 14356.4 23260.5 14338.1 C 23248.2 14301.8 23258.2 14277.3 23290.4 14265.2 C 23303.3 14260.3 23320.5 14256.5 23328.7 14265.8 C 23341.5 14280.3 23334 14321.2 23310.6 14365.4 C 23305.4 14375.2 23299.5 14384.9 23293.2 14394.3 Z M 23527.4 14393.2 C 23495.3 14346.4 23472.8 14293.5 23477.9 14265.1 C 23479.6 14256.1 23484 14251.1 23491.8 14249.3 C 23523.5 14242.1 23543 14251.4 23549.8 14276.9 C 23557.6 14306.3 23547.4 14352.3 23527.4 14393.2 Z M 23511.3 14230.7 C 23504.5 14230.7 23496.8 14231.6 23488.2 14233.5 C 23473.9 14236.8 23464.8 14246.7 23462 14262.2 C 23455.9 14295.7 23482.1 14357 23519 14409 C 23499.7 14442.7 23474.1 14470.4 23447.2 14478.5 C 23407.4 14490.6 23346.5 14453.9 23304 14407 C 23311.8 14396 23318.8 14384.6 23324.9 14373 C 23346.6 14331.9 23362.3 14279.4 23340.9 14255.1 C 23333 14246.1 23316.8 14237.9 23284.7 14250.1 C 23244.6 14265.2 23230.1 14299.2 23245.1 14343.3 C 23252.5 14364.9 23266 14387.4 23283.1 14408.2 C 23250.2 14451.1 23206.3 14483.7 23163 14478.3 C 23139.8 14475.3 23120 14467.2 23103.5 14455.8 C 23131.2 14404.3 23137.6 14338.9 23118.4 14303.8 C 23105.3 14279.9 23082.4 14272.3 23054 14282.4 C 23033.5 14289.7 23022.9 14317.8 23026.8 14354 C 23030.8 14391.1 23049.3 14431.8 23082.3 14460 C 23073.7 14473.4 23063.4 14485.3 23051.6 14494.5 C 22976.9 14552.4 22915.2 14490.3 22912.7 14487.6 L 22901 14498.8 C 22901.8 14499.6 22975.6 14574 23061.5 14507.3 C 23074.5 14497.2 23085.8 14484.3 23095.2 14469.8 C 23113.5 14482.3 23135.4 14491.1 23161 14494.3 C 23209.5 14500.4 23258 14466.2 23293.9 14420.6 C 23340.1 14470.8 23405.9 14507.9 23451.9 14494 C 23480.9 14485.3 23508.2 14457.3 23529.2 14422.8 C 23548.6 14448 23570.3 14470.1 23591.4 14484 C 23625.2 14506.4 23647.3 14501.3 23659.8 14493.1 C 23672.6 14484.6 23683.6 14473.3 23692.6 14460.2 C 23702.8 14468.3 23713.4 14475.2 23724 14480.5 C 23763.2 14500 23799.2 14498.5 23825.3 14476.4 L 23814.8 14464.1 C 23786.7 14487.9 23750.4 14475.5 23731.3 14466 C 23720.7 14460.7 23710.6 14454.1 23701.1 14446.5 C 23727.2 14399.5 23732.3 14338.2 23717.3 14308.5 C 23707.9 14289.8 23691.1 14283.3 23671.5 14290.5 C 23636.1 14303.5 23627.5 14327.9 23626.5 14346 C 23624.5 14380.8 23648.6 14420.3 23680.1 14449.5 C 23672 14461.6 23662.2 14472.1 23650.9 14479.5 C 23635.6 14489.6 23615 14480.2 23600.4 14470.5 C 23579.3 14456.6 23557.3 14433.6 23537.7 14407.6 C 23562 14361.4 23574.6 14307.5 23565.4 14272.7 C 23561 14255.9 23548.1 14230.7 23511.3 14230.7" style="fill:#ffffff;fill-opacity:1;fill-rule:nonzero;stroke:none" id="path252" transform="matrix(0.133333, 0, 0, -0.133333, 0, 2666.666748)"/>
  <path d="M 21928.5,6775.7 H 20301 l -489.6,1217.4 h 1625 l 492.1,-1217.4" style="fill:#2b478b;fill-opacity:1;fill-rule:nonzero;stroke:none" id="path278" transform="matrix(0.133333, 0, 0, -0.133333, 0, 2666.666748)"/>
  <path d="M 20281.9,6823.1 H 22431 v -47.4 h -2130 l -19.1,47.4" style="fill:#2b478b;fill-opacity:1;fill-rule:nonzero;stroke:none" id="path280" transform="matrix(0.133333, 0, 0, -0.133333, 0, 2666.666748)"/>
  <path d="m 20711.8,7384.4 c -12.2,42.8 12.5,77.5 55.3,77.5 42.8,0 87.4,-34.7 99.7,-77.5 12.3,-42.8 -12.5,-77.5 -55.3,-77.5 -42.8,0 -87.4,34.7 -99.7,77.5" style="fill:#ffffff;fill-opacity:1;fill-rule:nonzero;stroke:none" id="path282" transform="matrix(0.133333, 0, 0, -0.133333, 0, 2666.666748)"/>
  <path d="M 30649.905 2978.715 L 30649.905 2963.045 C 30649.905 2937.862 30637.394 2917.1 30622.273 2917.1 L 6244.507 2917.1 C 6229.326 2917.1 6216.82 2937.862 6216.82 2963.045 L 6216.82 2978.715 C 6216.82 3004.033 6229.326 3024.66 6244.507 3024.66 L 30622.273 3024.66 C 30637.394 3024.66 30649.905 3004.033 30649.905 2978.715" style="fill: rgb(46, 53, 82); fill-opacity: 1; fill-rule: nonzero; stroke: none;" id="path284" transform="matrix(0.133333, 0, 0, -0.133333, 0, 2666.666748)"/>
</svg>