<?xml version="1.0" encoding="utf-8"?>
<svg viewBox="79.966 70.191 849.268 505.49" xmlns="http://www.w3.org/2000/svg">
  <defs>
    <clipPath clipPathUnits="userSpaceOnUse" id="clipPath20">
      <path d="M 0,500 H 750 V 0 H 0 Z" id="path18"/>
    </clipPath>
  </defs>
  <g id="g10" transform="matrix(1.333333, 0, 0, -1.333333, 0, 666.666687)">
    <g id="g14">
      <g id="g16" clip-path="url(#clipPath20)">
        <g id="g22" transform="translate(329.2183,372.2988)">
          <path d="m 0,0 c -0.44,-1.625 -0.464,-3.418 0.207,-4.896 0.588,-1.293 1.722,-1.664 2.528,-1.457 0.739,0.188 1.49,0.942 1.379,2.494 C 3.931,-1.856 2.06,-0.561 0,0 m -9.218,-3.886 c -1.222,-1.914 -1.6,-4.128 -1.035,-6.201 0.456,-1.521 2.105,-3.104 3.287,-3.047 0.648,0.009 1.11,0.517 1.375,1.509 0.457,2.292 -1.172,5.424 -2.94,7.192 -0.217,0.193 -0.447,0.376 -0.687,0.547 m 2.231,-10.249 c -1.775,0 -3.69,1.982 -4.227,3.773 -0.643,2.358 -0.223,4.856 1.148,7.007 -2.008,1.095 -4.472,1.361 -6.269,-0.112 -1.314,-1.076 -1.646,-2.569 -1.079,-4.84 0.068,-0.267 -0.095,-0.539 -0.363,-0.606 -0.267,-0.065 -0.54,0.096 -0.606,0.364 -0.419,1.673 -0.728,4.1 1.414,5.856 2.179,1.786 5.127,1.472 7.482,0.153 0.018,0.023 0.037,0.047 0.055,0.07 1.988,2.484 4.951,3.883 7.929,3.751 C -1.229,1.256 -0.955,1.22 -0.68,1.173 -0.285,2.235 0.268,3.19 0.911,3.924 2.815,6.374 5.524,6.645 8.145,6.907 8.428,6.924 8.665,6.733 8.692,6.459 8.719,6.184 8.519,5.939 8.244,5.912 5.723,5.66 3.341,5.421 1.682,3.288 1.139,2.667 0.664,1.856 0.313,0.954 2.751,0.288 4.883,-1.282 5.11,-3.778 5.266,-5.958 4.061,-7.048 2.981,-7.322 1.52,-7.695 0.005,-6.866 -0.703,-5.31 c -0.772,1.698 -0.765,3.705 -0.283,5.521 -0.196,0.031 -0.392,0.055 -0.586,0.072 -2.627,0.119 -5.276,-1.136 -7.065,-3.36 0.277,-0.196 0.542,-0.406 0.791,-0.628 2.023,-2.021 3.766,-5.455 3.228,-8.147 -0.523,-1.967 -1.685,-2.273 -2.332,-2.282 -0.012,0 -0.025,-10e-4 -0.037,-10e-4" style="fill:#99d5cb;fill-opacity:1;fill-rule:nonzero;stroke:none" id="path24"/>
        </g>
        <g id="g26" transform="translate(650.7344,247.8018)">
          <path d="m 0,0 c -2.467,-1.547 -3.939,-3.821 -4.044,-6.253 0,-1.016 0.484,-1.776 1.33,-2.066 1.06,-0.362 2.352,0.094 3.147,1.115 C 2.438,-4.909 1.07,-1.815 0.39,-0.591 0.265,-0.39 0.135,-0.192 0,0 m 11.281,-2.79 c -1.31,-1.137 -3.216,-2.926 -3.24,-4.516 -0.009,-0.598 0.251,-1.131 0.796,-1.626 0.416,-0.308 0.926,-0.255 1.19,-0.193 0.483,0.114 0.903,0.427 1.097,0.814 0.563,0.763 0.518,1.796 0.479,2.708 -0.01,0.231 -0.02,0.451 -0.02,0.651 -0.068,0.744 -0.152,1.475 -0.302,2.162 m -1.637,-7.38 c -0.528,0 -1.032,0.16 -1.443,0.468 -0.796,0.721 -1.174,1.522 -1.16,2.412 0.034,2.186 2.441,4.28 3.939,5.56 C 10.538,-0.526 9.767,0.45 8.33,0.973 6.145,1.955 3.366,1.757 0.873,0.494 1.003,0.306 1.129,0.113 1.251,-0.083 2.92,-3.085 2.897,-5.904 1.203,-7.84 0.17,-9.169 -1.582,-9.764 -3.038,-9.266 -4.294,-8.834 -5.044,-7.7 -5.044,-6.231 -4.925,-3.468 -3.309,-0.92 -0.6,0.804 -1.734,2.217 -3.089,3.353 -4.514,4.065 -5.918,4.768 -6.3,4.781 -8.056,4.529 -8.322,4.494 -8.581,4.681 -8.621,4.954 -8.66,5.227 -8.47,5.48 -8.196,5.52 c 1.898,0.271 2.507,0.251 4.13,-0.56 1.588,-0.794 3.09,-2.064 4.339,-3.65 2.797,1.464 5.963,1.701 8.433,0.588 1.667,-0.605 2.587,-1.709 3.121,-3.038 0.099,0.062 0.193,0.12 0.285,0.179 0.968,0.607 1.881,1.18 3.137,1.599 0.427,0.141 0.904,0.21 1.367,0.276 0.438,0.063 0.851,0.121 1.192,0.235 C 18.069,1.236 18.353,1.095 18.44,0.833 18.527,0.571 18.386,0.288 18.124,0.2 17.697,0.059 17.22,-0.01 16.757,-0.076 c -0.438,-0.063 -0.851,-0.121 -1.192,-0.236 -1.142,-0.379 -2.006,-0.921 -2.92,-1.496 -0.165,-0.102 -0.33,-0.206 -0.499,-0.31 0.234,-0.889 0.349,-1.84 0.435,-2.789 0.002,-0.233 0.011,-0.437 0.021,-0.653 0.044,-1.025 0.099,-2.301 -0.63,-3.274 -0.282,-0.58 -0.94,-1.081 -1.714,-1.264 -0.206,-0.048 -0.412,-0.072 -0.614,-0.072" style="fill:#dcd8f0;fill-opacity:1;fill-rule:nonzero;stroke:none" id="path28"/>
        </g>
        <g id="g30" transform="translate(212.3765,348.9492)">
          <path d="M 0,0 C -6.231,3.832 -5.805,9.267 0.95,12.078 L 69.842,40.74 c 6.755,2.811 9.476,-0.177 6.048,-6.64 L 49.816,-15.048 c -3.428,-6.463 -11.333,-8.616 -17.565,-4.783 z" style="fill:#dcd8f0;fill-opacity:1;fill-rule:nonzero;stroke:none" id="path32"/>
        </g>
        <g id="g34" transform="translate(571.2627,369.4185)">
          <path d="m 0,0 c -3.43,0 -6.645,-1.326 -9.053,-3.733 l -13.986,-13.988 c -2.408,-2.407 -3.733,-5.622 -3.733,-9.052 0,-3.431 1.325,-6.645 3.733,-9.053 l 13.988,-13.988 c 2.407,-2.407 5.622,-3.733 9.052,-3.733 3.43,0 6.645,1.326 9.052,3.733 l 13.988,13.988 c 2.408,2.408 3.733,5.622 3.733,9.053 0,3.43 -1.325,6.645 -3.733,9.052 L 9.053,-3.733 C 6.645,-1.326 3.43,0 0,0 m 0.001,-54.547 c -3.697,0 -7.163,1.43 -9.759,4.026 l -13.988,13.988 c -2.597,2.596 -4.026,6.062 -4.026,9.76 0,3.697 1.429,7.163 4.026,9.759 L -9.76,-3.026 C -7.163,-0.43 -3.697,1 0,1 3.697,1 7.163,-0.43 9.76,-3.026 l 13.988,-13.988 c 2.597,-2.596 4.026,-6.062 4.026,-9.759 0,-3.698 -1.429,-7.164 -4.026,-9.76 L 9.76,-50.521 c -2.596,-2.596 -6.062,-4.026 -9.759,-4.026" style="fill:#f1e0d9;fill-opacity:1;fill-rule:nonzero;stroke:none" id="path36"/>
        </g>
        <g id="g38" transform="translate(157.9829,338.751)">
          <path d="m 0,0 c 2.126,-2.125 2.126,-5.604 0,-7.729 l -5.745,-5.745 c -2.125,-2.126 -5.602,-2.126 -7.728,0 l -5.745,5.745 c -2.126,2.125 -2.126,5.604 0,7.729 l 5.745,5.746 c 2.124,2.124 5.602,2.124 7.728,0 z" style="fill:#aad5ce;fill-opacity:1;fill-rule:nonzero;stroke:none" id="path40"/>
        </g>
        <g id="g42" transform="translate(690.9502,144.9736)">
          <path d="m 0,0 c 0,-2.261 -1.834,-4.095 -4.094,-4.095 -2.261,0 -4.094,1.834 -4.094,4.095 0,2.261 1.833,4.093 4.094,4.093 C -1.834,4.093 0,2.261 0,0" style="fill:#dcd8f0;fill-opacity:1;fill-rule:nonzero;stroke:none" id="path44"/>
        </g>
        <g id="g46" transform="translate(684.8428,135.0693)">
          <path d="m 0,0 c 0,-2.261 -1.834,-4.093 -4.094,-4.093 -2.261,0 -4.094,1.832 -4.094,4.093 0,2.262 1.833,4.094 4.094,4.094 C -1.834,4.094 0,2.262 0,0" style="fill:#dcd8f0;fill-opacity:1;fill-rule:nonzero;stroke:none" id="path48"/>
        </g>
        <g id="g50" transform="translate(688.7373,135.0693)">
          <path d="m 0,0 c 0,-2.261 1.832,-4.093 4.094,-4.093 2.26,0 4.094,1.832 4.094,4.093 0,2.262 -1.834,4.094 -4.094,4.094 C 1.832,4.094 0,2.262 0,0" style="fill:#dcd8f0;fill-opacity:1;fill-rule:nonzero;stroke:none" id="path52"/>
        </g>
        <g id="g54" transform="translate(507.9678,415.4346)">
          <path d="m 0,0 c 0,-2.262 -1.832,-4.095 -4.094,-4.095 -2.26,0 -4.094,1.833 -4.094,4.095 0,2.26 1.834,4.093 4.094,4.093 C -1.832,4.093 0,2.26 0,0" style="fill:#aad5ce;fill-opacity:1;fill-rule:nonzero;stroke:none" id="path56"/>
        </g>
        <g id="g58" transform="translate(501.8604,405.5293)">
          <path d="m 0,0 c 0,-2.26 -1.832,-4.093 -4.094,-4.093 -2.26,0 -4.094,1.833 -4.094,4.093 0,2.262 1.834,4.095 4.094,4.095 C -1.832,4.095 0,2.262 0,0" style="fill:#aad5ce;fill-opacity:1;fill-rule:nonzero;stroke:none" id="path60"/>
        </g>
        <g id="g62" transform="translate(505.7549,405.5293)">
          <path d="m 0,0 c 0,-2.26 1.832,-4.093 4.094,-4.093 2.261,0 4.094,1.833 4.094,4.093 0,2.262 -1.833,4.095 -4.094,4.095 C 1.832,4.095 0,2.262 0,0" style="fill:#aad5ce;fill-opacity:1;fill-rule:nonzero;stroke:none" id="path64"/>
        </g>
        <g id="g66" transform="translate(231.7427,391.2295)">
          <path d="m 0,0 c -8.188,0 -14.849,-6.661 -14.849,-14.849 0,-8.187 6.661,-14.847 14.849,-14.847 8.187,0 14.848,6.66 14.848,14.847 C 14.848,-6.661 8.187,0 0,0 m 0,-30.696 c -8.739,0 -15.849,7.109 -15.849,15.847 C -15.849,-6.11 -8.739,1 0,1 8.738,1 15.848,-6.11 15.848,-14.849 15.848,-23.587 8.738,-30.696 0,-30.696" style="fill:#f1e0d9;fill-opacity:1;fill-rule:nonzero;stroke:none" id="path68"/>
        </g>
        <g id="g70" transform="translate(79.0415,144.9531)">
          <path d="m 0,0 c -9.962,0 -18.067,-8.105 -18.067,-18.067 0,-9.962 8.105,-18.068 18.067,-18.068 9.962,0 18.066,8.106 18.066,18.068 C 18.066,-8.105 9.962,0 0,0 m 0,-37.135 c -10.514,0 -19.067,8.554 -19.067,19.068 C -19.067,-7.554 -10.514,1 0,1 10.513,1 19.066,-7.554 19.066,-18.067 19.066,-28.581 10.513,-37.135 0,-37.135" style="fill:#f1e0d9;fill-opacity:1;fill-rule:nonzero;stroke:none" id="path72"/>
        </g>
        <g id="g74" transform="translate(322.5073,283.6084)">
          <path d="m 0,0 c 6.651,-10.488 19.186,-37.348 35.046,-41.185 15.859,-3.837 25.836,0 32.998,15.604 7.163,15.604 11.512,23.279 12.28,22.512 0.767,-0.768 9.465,-28.139 11.256,-32.744 1.789,-4.604 71.369,-20.464 82.369,-14.581 11,5.883 16.627,10.233 22.256,41.697 5.627,31.464 9.209,43.999 4.859,54.999 -4.348,10.999 -6.906,14.836 -18.674,21.999 C 170.623,75.464 151.699,86.36 136.449,86.86 126.72,87.18 90.812,76.742 75.974,59.348 61.138,41.952 39.906,-5.116 38.371,-6.14 28.139,4.86 26.348,7.419 26.348,7.419 26.348,7.419 -2.047,3.581 0,0" style="fill:#aad5ce;fill-opacity:1;fill-rule:nonzero;stroke:none" id="path76"/>
        </g>
        <g id="g78" transform="translate(432.9307,356.9385)">
          <path d="M 0,0 C 2.729,-5.286 7.334,-10.231 16.543,-8.696 25.752,-7.161 34.17,4.472 30.525,11.53 26.922,18.511 18.76,32.573 18.76,32.573 25.922,34.62 26.092,48.092 13.984,49.798 8.697,65.487 -3.922,87.657 -31.379,74.526 -58.836,61.395 -57.114,57.159 -55.407,47.779 -53.699,38.399 -47.92,33.938 -41.611,22.512 -35.303,11.085 -24.387,-9.892 0,0" style="fill:#ff7e7d;fill-opacity:1;fill-rule:nonzero;stroke:none" id="path80"/>
        </g>
        <g id="g82" transform="translate(354.2114,284.7549)">
          <path d="m 0,0 c -4.398,4.912 -7.274,8.958 -7.274,8.958 0,0 -29.163,-0.128 -27.116,-3.709 1.383,-2.181 5.709,-11.47 7.578,-14.711 C -22.37,-11.68 -8.092,-13.25 0,0" style="fill:#ff7e7d;fill-opacity:1;fill-rule:nonzero;stroke:none" id="path84"/>
        </g>
        <g id="g86" transform="translate(458.8525,296.1426)">
          <path d="m 0,0 c 0,-2.26 -1.832,-4.092 -4.094,-4.092 h -164.739 c -2.26,0 -4.092,1.832 -4.092,4.092 v 24.047 c 0,2.26 1.832,4.093 4.092,4.093 H -4.094 C -1.832,28.14 0,26.307 0,24.047 Z" style="fill:#f1e0d9;fill-opacity:1;fill-rule:nonzero;stroke:none" id="path88"/>
        </g>
        <g id="g90" transform="translate(427.0459,318.1426)">
          <path d="m 0,0 v -19.953 h 20.744 c 3.084,0 4.924,0.868 4.924,4.279 V -4.17 C 25.668,-0.757 23.576,0 21.66,0 Z" style="fill:#151748;fill-opacity:1;fill-rule:nonzero;stroke:none" id="path92"/>
        </g>
        <g id="g94" transform="translate(371.8735,318.1426)">
          <path d="m 0,0 v -19.953 h -74.571 c -3.084,0 -4.924,0.868 -4.924,4.279 V -4.17 c 0,3.413 2.091,4.17 4.007,4.17 z" style="fill:#7967cc;fill-opacity:1;fill-rule:nonzero;stroke:none" id="path96"/>
        </g>
        <path d="m 371.196,298.189 h 56.016 v 19.953 h -56.016 z" style="fill:#5fb0a2;fill-opacity:1;fill-rule:nonzero;stroke:none" id="path98"/>
        <g id="g100" transform="translate(427.3877,272.8652)">
          <path d="m 0,0 c -1.535,3.325 -1.918,7.29 -3.836,8.824 -1.92,1.535 -3.07,2.943 -5.5,1.663 -2.43,-1.278 -5.5,0.256 -7.035,2.815 -2.815,-1.28 -4.094,-0.128 -4.094,-0.128 -2.812,-1.535 -6.139,-2.175 -9.08,2.941 -2.941,5.116 1.024,14.837 5.244,5.884 0.256,5.287 3.326,8.526 5.373,7.503 2.047,-1.023 1.918,-3.282 1.918,-3.282 0.725,3.965 5.584,5.5 6.266,-0.64 2.047,2.815 3.07,2.047 5.5,-1.662 2.431,-3.71 1.492,-4.179 6.098,-3.795 2.13,1.364 11.212,3.197 13.898,1.023 2.685,-2.173 5.842,-7.078 9.039,-10.275 C 19.568,1.604 6.311,-3.582 0,0" style="fill:#ff7e7d;fill-opacity:1;fill-rule:nonzero;stroke:none" id="path102"/>
        </g>
        <g id="g104" transform="translate(312.5054,297.1006)">
          <path d="m 0,0 c -1.855,3.866 -6.648,5.569 -7.423,0.62 -0.772,-4.949 4.485,-15.772 11.907,-12.989 7.479,-1.604 9.683,-3.228 12.002,-2.764 2.321,0.464 14.285,-1.721 16.294,6.783 -5.412,-0.154 -7.112,0.62 -7.112,0.62 C 22.729,-3.864 19.019,0.31 17.473,0 15.926,-0.309 16.235,-2.473 16.235,-2.473 14.534,2.938 12.834,4.794 10.978,4.794 9.123,4.794 7.886,1.702 7.886,1.702 6.339,6.649 1.546,10.051 0,0" style="fill:#ff7e7d;fill-opacity:1;fill-rule:nonzero;stroke:none" id="path106"/>
        </g>
        <g id="g108" transform="translate(329.1636,281.6807)">
          <path d="M 0,0 C -1.167,0 -2.174,0.241 -3.168,0.478 -3.44,0.542 -3.712,0.607 -3.989,0.667 -4.728,0.829 -5.53,0.916 -6.38,1.008 c -2.12,0.231 -4.523,0.493 -6.457,2.06 -3.741,3.031 -4.162,9.78 -4.32,12.321 -0.017,0.276 0.192,0.513 0.468,0.53 0.283,0.021 0.513,-0.192 0.53,-0.468 0.151,-2.421 0.552,-8.851 3.951,-11.605 1.706,-1.383 3.856,-1.617 5.937,-1.844 C -5.395,1.907 -4.567,1.817 -3.776,1.645 -3.494,1.583 -3.214,1.517 -2.936,1.45 -0.637,0.902 1.535,0.382 5.771,2.975 6.007,3.119 6.314,3.044 6.459,2.809 6.603,2.573 6.529,2.266 6.293,2.121 3.608,0.479 1.646,0 0,0" style="fill:#000000;fill-opacity:1;fill-rule:nonzero;stroke:none" id="path110"/>
        </g>
        <g id="g112" transform="translate(327.5034,284.2314)">
          <path d="m 0,0 c -0.057,0 -0.114,0.01 -0.171,0.03 -8.573,3.116 -7.803,10.908 -7.474,14.235 l 0.035,0.354 c 0.026,0.275 0.265,0.48 0.545,0.45 0.275,-0.026 0.477,-0.27 0.45,-0.545 L -6.649,14.167 C -6.981,10.809 -7.672,3.821 0.171,0.97 0.43,0.875 0.564,0.589 0.47,0.329 0.396,0.126 0.204,0 0,0" style="fill:#000000;fill-opacity:1;fill-rule:nonzero;stroke:none" id="path114"/>
        </g>
        <g id="g116" transform="translate(339.4028,288.9902)">
          <path d="m 0,0 c -0.464,0 -0.958,0.083 -1.576,0.417 -1.073,0.576 -2.025,1.565 -2.612,2.711 -0.126,0.247 -0.029,0.548 0.217,0.673 0.246,0.127 0.546,0.03 0.673,-0.217 0.489,-0.956 1.31,-1.811 2.196,-2.287 0.653,-0.354 1.06,-0.317 1.675,-0.262 0.26,0.023 0.54,0.047 0.862,0.047 0.276,0 0.5,-0.224 0.5,-0.5 0,-0.276 -0.224,-0.5 -0.5,-0.5 C 1.146,0.082 0.895,0.06 0.661,0.039 0.44,0.019 0.224,0 0,0" style="fill:#000000;fill-opacity:1;fill-rule:nonzero;stroke:none" id="path118"/>
        </g>
        <g id="g120" transform="translate(338.0957,283.2729)">
          <path d="m 0,0 c -0.589,0 -1.147,0.07 -1.669,0.211 -3.103,0.704 -5.233,3.281 -6.471,5.319 -0.7,1.132 -0.932,2.345 -1.156,3.518 -0.122,0.639 -0.238,1.243 -0.425,1.838 -0.082,0.263 0.064,0.544 0.327,0.627 0.264,0.083 0.545,-0.064 0.627,-0.327 0.204,-0.651 0.331,-1.311 0.453,-1.951 C -8.097,8.102 -7.893,7.031 -7.287,6.053 -6.148,4.177 -4.209,1.812 -1.429,1.182 -0.277,0.871 1.075,0.961 2.606,1.442 2.872,1.525 3.151,1.378 3.233,1.115 3.316,0.852 3.169,0.571 2.906,0.488 1.869,0.163 0.897,0 0,0" style="fill:#000000;fill-opacity:1;fill-rule:nonzero;stroke:none" id="path122"/>
        </g>
        <g id="g124" transform="translate(431.2793,285.6372)">
          <path d="M 0,0 C -1.308,0 -2.239,0.33 -2.9,0.764 -4.252,1.652 -4.903,3.311 -4.643,5.203 -4.105,9.096 0.846,9.329 5.635,9.554 L 6.571,9.599 C 6.874,9.615 7.083,9.399 7.096,9.124 7.109,8.848 6.897,8.614 6.622,8.6 L 5.682,8.555 C 1.1,8.339 -3.229,8.136 -3.652,5.066 -3.752,4.346 -3.823,2.566 -2.352,1.6 -1.103,0.78 2.12,0.088 9.663,4.666 9.898,4.809 10.207,4.735 10.351,4.498 10.493,4.262 10.418,3.955 10.183,3.812 5.419,0.921 2.186,0 0,0" style="fill:#000000;fill-opacity:1;fill-rule:nonzero;stroke:none" id="path126"/>
        </g>
        <g id="g128" transform="translate(422.4736,283.6558)">
          <path d="m 0,0 c -0.366,0 -0.72,0.045 -1.063,0.134 -1.951,0.506 -3.453,2.386 -4.726,5.917 -0.881,2.445 -1.429,7.911 0.617,10.103 0.19,0.201 0.506,0.212 0.706,0.025 0.202,-0.189 0.213,-0.505 0.025,-0.707 C -6.037,13.762 -5.743,8.873 -4.848,6.39 -3.713,3.241 -2.393,1.511 -0.812,1.102 0.816,0.679 2.85,1.56 5.409,3.794 5.616,3.976 5.934,3.955 6.115,3.746 6.297,3.538 6.275,3.222 6.067,3.041 3.731,1.003 1.734,0 0,0" style="fill:#000000;fill-opacity:1;fill-rule:nonzero;stroke:none" id="path130"/>
        </g>
        <g id="g132" transform="translate(415.3096,282.7466)">
          <path d="m 0,0 c -0.917,0 -1.752,0.277 -2.503,0.832 -3.909,2.888 -3.965,12.938 -2.773,16.313 0.091,0.26 0.381,0.393 0.637,0.305 0.261,-0.093 0.398,-0.378 0.306,-0.638 C -5.39,13.819 -5.344,4.174 -1.908,1.636 -0.392,0.513 1.678,0.904 4.235,2.799 4.457,2.962 4.771,2.917 4.935,2.694 5.1,2.473 5.053,2.16 4.831,1.995 3.036,0.666 1.421,0 0,0" style="fill:#000000;fill-opacity:1;fill-rule:nonzero;stroke:none" id="path134"/>
        </g>
        <g id="g136" transform="translate(408.3037,285.3437)">
          <path d="m 0,0 c -0.722,0 -1.401,0.184 -2.035,0.552 -2.975,1.727 -3.938,7.133 -3.938,9.48 0,0.277 0.224,0.5 0.5,0.5 0.277,0 0.5,-0.223 0.5,-0.5 0,-2.074 0.867,-7.121 3.44,-8.615 C -0.417,0.77 0.928,0.889 2.465,1.768 2.702,1.905 3.009,1.823 3.147,1.582 3.284,1.342 3.201,1.037 2.961,0.9 1.911,0.3 0.922,0 0,0" style="fill:#000000;fill-opacity:1;fill-rule:nonzero;stroke:none" id="path138"/>
        </g>
        <g id="g140" transform="translate(478.6357,265.6377)">
          <path d="m 0,0 c -0.099,0 -0.198,0.029 -0.285,0.089 -0.377,0.262 -1.427,0.816 -2.755,1.517 -3.399,1.796 -9.089,4.801 -13.831,8.267 -2.656,1.94 -4.6,3.572 -6.161,4.883 -2.194,1.842 -3.518,2.954 -4.562,2.971 -0.276,0.004 -0.496,0.231 -0.492,0.507 0.005,0.277 0.226,0.464 0.508,0.493 1.399,-0.023 2.746,-1.153 5.189,-3.205 1.55,-1.301 3.479,-2.921 6.108,-4.842 C -11.598,7.257 -5.948,4.273 -2.573,2.491 -1.109,1.718 -0.143,1.207 0.285,0.911 0.512,0.753 0.568,0.442 0.411,0.215 0.313,0.075 0.158,0 0,0" style="fill:#000000;fill-opacity:1;fill-rule:nonzero;stroke:none" id="path142"/>
        </g>
        <g id="g144" transform="translate(475.8652,267.377)">
          <path d="m 0,0 c -0.032,0 -0.065,0.003 -0.098,0.009 -0.271,0.054 -0.447,0.317 -0.393,0.588 1.554,7.882 9.071,31.737 12.281,41.924 0.787,2.5 1.346,4.272 1.542,4.934 0.078,0.264 0.359,0.416 0.621,0.337 0.266,-0.079 0.416,-0.357 0.338,-0.622 C 14.094,46.506 13.534,44.729 12.743,42.22 9.539,32.049 2.034,8.231 0.489,0.403 0.442,0.165 0.233,0 0,0" style="fill:#000000;fill-opacity:1;fill-rule:nonzero;stroke:none" id="path146"/>
        </g>
        <g id="g148" transform="translate(377.1895,421.3848)">
          <path d="m 0,0 c -2.749,-6.693 -2.291,-16.618 -0.832,-17.5 4.86,-2.942 10.868,-1.752 21.954,2.17 11.084,3.922 22.51,16.2 22.51,16.2 0.683,-9.55 4.265,-12.791 6.31,-16.03 2.047,-3.24 5.118,-0.342 7.846,-2.559 2.729,-2.216 6.041,-8.547 7.406,-9.058 1.366,-0.512 3.336,3.599 2.313,9.228 3.242,2.219 7.324,0.866 8.689,0.014 C 77.901,-6.62 73.476,8.716 64.95,15.707 56.423,22.699 40.052,29.18 25.897,24.234 11.741,19.289 3.923,9.55 0,0" style="fill:#151748;fill-opacity:1;fill-rule:nonzero;stroke:none" id="path150"/>
        </g>
        <g id="g152" transform="translate(409.5156,371.793)">
          <path d="m 0,0 c -1.469,0 -2.472,0.29 -3.163,0.882 -1.287,1.103 -1.26,3.006 -1.221,5.639 0.007,0.468 0.014,0.961 0.014,1.477 0,4.803 -1.492,7.489 -4.562,8.21 -0.268,0.064 -0.435,0.333 -0.372,0.602 0.063,0.267 0.328,0.434 0.601,0.372 C -5.164,16.351 -3.37,13.26 -3.37,7.998 -3.37,7.477 -3.377,6.979 -3.385,6.506 -3.419,4.146 -3.443,2.439 -2.513,1.642 -1.658,0.91 0.161,0.811 3.208,1.329 3.476,1.372 3.738,1.192 3.785,0.92 3.831,0.647 3.648,0.389 3.376,0.343 2.039,0.116 0.927,0 0,0" style="fill:#000000;fill-opacity:1;fill-rule:nonzero;stroke:none" id="path154"/>
        </g>
        <g id="g156" transform="translate(415.3223,367.0322)">
          <path d="m 0,0 c -1.396,0 -2.563,0.312 -3.185,0.519 -0.261,0.087 -0.403,0.37 -0.316,0.632 0.088,0.262 0.372,0.402 0.633,0.316 C -1.854,1.13 0.776,0.48 3.281,1.755 5.199,2.731 6.617,4.635 7.497,7.411 7.58,7.674 7.859,7.821 8.125,7.736 8.388,7.653 8.534,7.372 8.45,7.109 7.486,4.068 5.9,1.967 3.735,0.864 2.452,0.211 1.149,0 0,0" style="fill:#000000;fill-opacity:1;fill-rule:nonzero;stroke:none" id="path158"/>
        </g>
        <g id="g160" transform="translate(432.9307,356.4385)">
          <path d="M 0,0 C -0.159,0 -0.316,0.077 -0.413,0.219 -0.568,0.447 -0.51,0.758 -0.281,0.914 L 0.4,1.374 c 5.392,3.63 14.417,9.707 12.49,27.297 -0.031,0.275 0.168,0.521 0.442,0.552 0.268,0.028 0.522,-0.168 0.552,-0.443 C 15.878,10.588 6.173,4.055 0.958,0.544 L 0.281,0.086 C 0.195,0.028 0.098,0 0,0" style="fill:#000000;fill-opacity:1;fill-rule:nonzero;stroke:none" id="path162"/>
        </g>
        <g id="g164" transform="translate(418.2021,389.623)">
          <path d="M 0,0 C -1.402,-1.309 1.408,-5.756 3.838,-4.477 6.268,-3.197 1.918,1.791 0,0" style="fill:#000000;fill-opacity:1;fill-rule:nonzero;stroke:none" id="path166"/>
        </g>
        <g id="g168" transform="translate(397.1904,384.5273)">
          <path d="M 0,0 C -1.402,-1.309 1.408,-5.756 3.838,-4.477 6.268,-3.197 1.92,1.791 0,0" style="fill:#000000;fill-opacity:1;fill-rule:nonzero;stroke:none" id="path170"/>
        </g>
        <g id="g172" transform="translate(408.1904,393.7187)">
          <path d="M 0,0 C -5.805,3.769 1.639,7.234 8.418,6.083 15.197,4.932 15.893,1.3 13.078,1.556 10.266,1.812 5.789,2.067 3.998,1.044 2.207,0.021 1.291,-0.838 0,0" style="fill:#151748;fill-opacity:1;fill-rule:nonzero;stroke:none" id="path174"/>
        </g>
        <g id="g176" transform="translate(388.6904,384.8857)">
          <path d="M 0,0 C 1.197,1.287 4.07,5.543 7.75,4.583 10.689,3.815 6.727,9.258 2.529,8.746 0.547,8.505 -1.477,6.46 -2.166,3.333 -2.547,1.612 -0.332,-0.358 0,0" style="fill:#151748;fill-opacity:1;fill-rule:nonzero;stroke:none" id="path178"/>
        </g>
        <g id="g180" transform="translate(447.6602,341.1226)">
          <path d="m 0,0 c -6.559,0 -13.094,2.47 -16.615,8.751 -0.135,0.241 -0.049,0.546 0.192,0.681 0.239,0.134 0.545,0.049 0.681,-0.192 4.907,-8.753 16.101,-9.649 24.427,-6.776 7.796,2.69 16.285,9.813 14.548,21.036 -0.042,0.273 0.145,0.529 0.418,0.571 0.268,0.041 0.529,-0.146 0.571,-0.418 C 26.052,11.821 17.172,4.334 9.011,1.519 6.214,0.554 3.104,0 0,0" style="fill:#000000;fill-opacity:1;fill-rule:nonzero;stroke:none" id="path182"/>
        </g>
        <g id="g184" transform="translate(368.6372,269.6357)">
          <path d="M 0,0 C -0.118,0 -0.235,0.041 -0.331,0.125 -0.625,0.384 -7.55,6.494 -8.931,8.392 -9.093,8.615 -9.044,8.927 -8.82,9.09 -8.598,9.252 -8.284,9.203 -8.122,8.979 -6.806,7.17 0.259,0.938 0.331,0.875 0.538,0.692 0.558,0.376 0.375,0.169 0.276,0.057 0.138,0 0,0" style="fill:#000000;fill-opacity:1;fill-rule:nonzero;stroke:none" id="path186"/>
        </g>
        <g id="g188" transform="translate(441.9697,249.9814)">
          <path d="m 0,0 c -0.112,0 -0.226,0.038 -0.318,0.115 -2.94,2.428 -13.15,17.713 -14.74,22.614 -0.085,0.263 0.059,0.545 0.322,0.63 0.262,0.084 0.545,-0.059 0.63,-0.321 C -12.595,18.377 -2.475,3.194 0.318,0.885 0.531,0.709 0.562,0.395 0.386,0.182 0.286,0.062 0.144,0 0,0" style="fill:#000000;fill-opacity:1;fill-rule:nonzero;stroke:none" id="path190"/>
        </g>
        <g id="g192" transform="translate(505.8916,68.8857)">
          <path d="m 0,0 v 170.456 c 0,12.433 -10.078,22.511 -22.51,22.511 h -219.994 c -12.433,0 -22.512,-10.078 -22.512,-22.511 l 0,-170.456 z" style="fill:#f1e0d9;fill-opacity:1;fill-rule:nonzero;stroke:none" id="path194"/>
        </g>
        <g id="g196" transform="translate(452.0068,119.877)">
          <path d="m 0,0 c 0,-13.866 -11.24,-25.107 -25.107,-25.107 -13.868,0 -25.108,11.241 -25.108,25.107 0,13.866 11.24,25.106 25.108,25.106 C -11.24,25.106 0,13.866 0,0" style="fill:#54478d;fill-opacity:1;fill-rule:nonzero;stroke:none" id="path198"/>
        </g>
        <g id="g200" transform="translate(441.4326,119.877)">
          <path d="m 0,0 c 0,-8.026 -6.506,-14.533 -14.533,-14.533 -8.028,0 -14.535,6.507 -14.535,14.533 0,8.026 6.507,14.532 14.535,14.532 C -6.506,14.532 0,8.026 0,0" style="fill:#7967cc;fill-opacity:1;fill-rule:nonzero;stroke:none" id="path202"/>
        </g>
        <g id="g204" transform="translate(381.9795,102.3457)">
          <path d="m 0,0 c 0,-5.086 -4.122,-9.209 -9.209,-9.209 h -85 c -5.086,0 -9.209,4.123 -9.209,9.209 v 34.162 c 0,5.087 4.123,9.209 9.209,9.209 h 85 C -4.122,43.371 0,39.249 0,34.162 Z" style="fill:#aad5ce;fill-opacity:1;fill-rule:nonzero;stroke:none" id="path206"/>
        </g>
        <g id="g208" transform="translate(297.2163,134.6416)">
          <path d="m 0,0 c 0,-2.522 -2.045,-4.566 -4.567,-4.566 -2.523,0 -4.567,2.044 -4.567,4.566 0,2.523 2.044,4.567 4.567,4.567 C -2.045,4.567 0,2.523 0,0" style="fill:#f1efef;fill-opacity:1;fill-rule:nonzero;stroke:none" id="path210"/>
        </g>
        <g id="g212" transform="translate(345.729,133.1445)">
          <path d="m 0,0 c 0,-1.695 -1.374,-3.069 -3.07,-3.069 h -35.502 c -1.696,0 -3.07,1.374 -3.07,3.069 v 2.995 c 0,1.695 1.374,3.069 3.07,3.069 H -3.07 C -1.374,6.064 0,4.69 0,2.995 Z" style="fill:#f1efef;fill-opacity:1;fill-rule:nonzero;stroke:none" id="path214"/>
        </g>
        <g id="g216" transform="translate(297.2163,118.9766)">
          <path d="m 0,0 c 0,-2.522 -2.045,-4.566 -4.567,-4.566 -2.523,0 -4.567,2.044 -4.567,4.566 0,2.523 2.044,4.567 4.567,4.567 C -2.045,4.567 0,2.523 0,0" style="fill:#54478d;fill-opacity:1;fill-rule:nonzero;stroke:none" id="path218"/>
        </g>
        <g id="g220" transform="translate(354.4175,117.4795)">
          <path d="m 0,0 c 0,-1.695 -1.374,-3.069 -3.07,-3.069 h -44.191 c -1.695,0 -3.069,1.374 -3.069,3.069 v 2.995 c 0,1.695 1.374,3.069 3.069,3.069 H -3.07 C -1.374,6.064 0,4.69 0,2.995 Z" style="fill:#54478d;fill-opacity:1;fill-rule:nonzero;stroke:none" id="path222"/>
        </g>
        <g id="g224" transform="translate(297.2163,103.3115)">
          <path d="m 0,0 c 0,-2.522 -2.045,-4.567 -4.567,-4.567 -2.523,0 -4.567,2.045 -4.567,4.567 0,2.522 2.044,4.567 4.567,4.567 C -2.045,4.567 0,2.522 0,0" style="fill:#151748;fill-opacity:1;fill-rule:nonzero;stroke:none" id="path226"/>
        </g>
        <g id="g228" transform="translate(369.4331,101.8145)">
          <path d="m 0,0 c 0,-1.695 -1.374,-3.07 -3.07,-3.07 h -59.206 c -1.696,0 -3.07,1.375 -3.07,3.07 v 2.994 c 0,1.696 1.374,3.07 3.07,3.07 H -3.07 C -1.374,6.064 0,4.69 0,2.994 Z" style="fill:#151748;fill-opacity:1;fill-rule:nonzero;stroke:none" id="path230"/>
        </g>
        <g id="g232" transform="translate(396.1416,186.751)">
          <path d="m 0,0 h -58.246 l -5.635,-9.761 c -4.19,-7.255 -0.763,-13.192 7.617,-13.192 h 54.282 c 8.38,0 11.806,5.937 7.617,13.192 z" style="fill:#151748;fill-opacity:1;fill-rule:nonzero;stroke:none" id="path234"/>
        </g>
        <g id="g236" transform="translate(337.1724,185.498)">
          <path d="M 0,0 H 59.694 L 51.428,14.316 H 8.266 Z" style="fill:#54478d;fill-opacity:1;fill-rule:nonzero;stroke:none" id="path238"/>
        </g>
        <g id="g240" transform="translate(344.394,198.0059)">
          <path d="M 0,0 H 45.25 L 34.832,18.045 H 10.418 Z" style="fill:#aad5ce;fill-opacity:1;fill-rule:nonzero;stroke:none" id="path242"/>
        </g>
        <g id="g244" transform="translate(381.0264,212.9316)">
          <path d="m 0,0 -6.39,11.069 c -4.19,7.257 -11.045,7.257 -15.235,0 L -28.015,0 Z" style="fill:#f1efef;fill-opacity:1;fill-rule:nonzero;stroke:none" id="path246"/>
        </g>
        <g id="g248" transform="translate(529.7119,258.5391)">
          <path d="m 0,0 c -2.303,8.697 -1.107,18.93 18.334,27.969 19.441,9.038 56.959,5.115 64.121,-24.729 7.162,-29.844 -0.682,-45.021 13.815,-63.781 14.496,-18.76 41.269,-40.588 18.076,-66.34 -39.907,-28.139 -104.539,4.264 -110.338,19.953 -5.799,15.689 3.41,40.758 16.713,61.735 C 34.023,-24.217 2.471,-13.472 0,0" style="fill:#151748;fill-opacity:1;fill-rule:nonzero;stroke:none" id="path250"/>
        </g>
        <g id="g252" transform="translate(563.7334,191.7734)">
          <path d="m 0,0 c -0.256,3.326 -1.023,12.023 -1.023,12.023 -18.93,-4.604 -31.465,10.489 -30.954,26.092 0.512,15.605 0.512,16.628 -2.044,28.651 C -36.58,78.789 -13.813,93.37 8.441,91.323 30.697,89.277 27.713,77.937 24.389,56.193 23.877,50.31 27.201,41.271 27.201,41.271 27.971,28.394 27.627,0.256 27.627,0.256 27.627,0.256 12.535,-8.441 0,0" style="fill:#ff7e7d;fill-opacity:1;fill-rule:nonzero;stroke:none" id="path254"/>
        </g>
        <g id="g256" transform="translate(553.0752,183.2471)">
          <path d="m 0,0 c 5.031,0.597 11,1.535 11,1.535 0,0 -0.768,7.248 -0.937,8.442 -0.172,1.193 0.597,1.364 2.3,0.852 1.705,-0.512 13.131,-2.812 23.961,1.705 2.815,0.938 2.817,0.767 3.242,-2.643 0.426,-3.411 1.106,-6.481 1.106,-6.481 0,0 3.24,-1.705 12.023,-2.473 C 41.951,-11.853 10.061,-21.487 0,0" style="fill:#dcd8f0;fill-opacity:1;fill-rule:nonzero;stroke:none" id="path258"/>
        </g>
        <g id="g260" transform="translate(591.3623,238.4141)">
          <path d="M 0,0 C 3.58,3.753 11.938,6.141 14.836,-1.704 17.734,-9.549 5.797,-20.462 -2.389,-12.106 -0.502,-6.443 0,0 0,0" style="fill:#ff7e7d;fill-opacity:1;fill-rule:nonzero;stroke:none" id="path262"/>
        </g>
        <g id="g264" transform="translate(530.1396,256.834)">
          <path d="m 0,0 c 3.238,6.82 21.656,16.882 30.865,18.076 3.924,-23.363 9.807,-37.177 22.598,-34.278 2.898,-12.449 3.838,-12.277 5.713,-11.597 1.875,0.682 2.898,7.418 3.41,10.829 5.799,4.265 8.867,10.83 8.185,20.551 C 70.09,13.302 61.904,34.108 34.789,29.162 7.674,24.216 -3.922,14.496 0,0" style="fill:#151748;fill-opacity:1;fill-rule:nonzero;stroke:none" id="path266"/>
        </g>
        <g id="g268" transform="translate(549.665,225.8926)">
          <path d="m 0,0 c -0.009,0 -0.018,0 -0.027,0.001 -3.384,0.185 -5.28,0.857 -6.148,2.184 -0.688,1.05 -0.69,2.454 -0.007,4.289 0.286,0.766 0.572,1.443 0.836,2.071 1.216,2.882 1.95,4.621 0.187,9.434 -2.305,6.293 -7.933,6.7 -10.249,6.579 -0.317,-0.018 -0.511,0.199 -0.525,0.474 -0.014,0.276 0.198,0.511 0.474,0.525 2.537,0.13 8.705,-0.318 11.239,-7.235 C -2.322,13.141 -3.158,11.157 -4.424,8.156 -4.684,7.54 -4.964,6.876 -5.244,6.124 -5.81,4.608 -5.84,3.498 -5.339,2.732 -4.671,1.713 -2.966,1.162 0.027,0.999 0.303,0.984 0.515,0.748 0.499,0.473 0.484,0.206 0.264,0 0,0" style="fill:#000000;fill-opacity:1;fill-rule:nonzero;stroke:none" id="path270"/>
        </g>
        <g id="g272" transform="translate(565.6514,245.7607)">
          <path d="m 0,0 c -0.099,0 -0.197,0.028 -0.284,0.089 -7.203,4.976 -9.713,3.69 -11.096,2.013 -0.176,-0.214 -0.491,-0.245 -0.703,-0.069 -0.214,0.175 -0.244,0.49 -0.068,0.703 C -9.696,5.722 -5.86,5.157 0.284,0.911 0.512,0.754 0.568,0.443 0.411,0.216 0.314,0.075 0.158,0 0,0" style="fill:#000000;fill-opacity:1;fill-rule:nonzero;stroke:none" id="path274"/>
        </g>
        <g id="g276" transform="translate(550.7568,220.3057)">
          <path d="m 0,0 c -1.359,0 -2.717,0.462 -4.253,1.203 -0.248,0.12 -0.352,0.419 -0.232,0.668 0.12,0.249 0.419,0.353 0.668,0.233 C -0.554,0.526 1.961,-0.091 6.979,5.442 7.166,5.646 7.482,5.661 7.686,5.477 7.89,5.291 7.905,4.975 7.72,4.771 4.576,1.304 2.286,0 0,0" style="fill:#000000;fill-opacity:1;fill-rule:nonzero;stroke:none" id="path278"/>
        </g>
        <g id="g280" transform="translate(562.71,203.2969)">
          <path d="m 0,0 c -0.209,0 -0.404,0.133 -0.475,0.342 -0.087,0.262 0.055,0.545 0.317,0.633 1.944,0.647 19.141,6.692 24.123,19.278 0.101,0.257 0.395,0.384 0.648,0.281 0.257,-0.101 0.383,-0.391 0.282,-0.648 C 19.747,6.878 2.147,0.688 0.158,0.025 0.105,0.008 0.053,0 0,0" style="fill:#000000;fill-opacity:1;fill-rule:nonzero;stroke:none" id="path282"/>
        </g>
        <g id="g284" transform="translate(561.8154,238.3945)">
          <path d="M 0,0 C -1.646,-0.199 -0.512,-4.988 1.854,-4.541 4.221,-4.093 2.109,0.256 0,0" style="fill:#000000;fill-opacity:1;fill-rule:nonzero;stroke:none" id="path286"/>
        </g>
        <g id="g288" transform="translate(561.3672,237.4346)">
          <path d="m 0,0 c 0,0 -1.288,1.545 -1.931,2.382 -0.168,0.219 -0.127,0.533 0.092,0.701 0.218,0.168 0.531,0.128 0.701,-0.092 0.635,-0.825 1.906,-2.35 1.906,-2.35 z" style="fill:#000000;fill-opacity:1;fill-rule:nonzero;stroke:none" id="path290"/>
        </g>
        <g id="g292" transform="translate(538.7275,241.6562)">
          <path d="M 0,0 C -1.646,-0.2 -0.51,-4.988 1.855,-4.541 4.223,-4.093 2.111,0.256 0,0" style="fill:#000000;fill-opacity:1;fill-rule:nonzero;stroke:none" id="path294"/>
        </g>
        <g id="g296" transform="translate(538.2812,240.6963)">
          <path d="M 0,0 C 0,0 -1.287,1.545 -1.933,2.381 -2.101,2.6 -2.061,2.914 -1.842,3.083 -1.622,3.251 -1.309,3.21 -1.14,2.992 -0.504,2.166 0.768,0.641 0.768,0.641 Z" style="fill:#000000;fill-opacity:1;fill-rule:nonzero;stroke:none" id="path298"/>
        </g>
        <g id="g300" transform="translate(455.9541,148.2861)">
          <path d="m 0,0 c -0.598,2.218 -1.621,5.713 -1.621,5.713 -2.303,-1.278 -4.52,-0.768 -5.627,0.171 -4.178,-1.195 -7.248,-0.597 -10.147,3.326 -4.435,-2.644 -11.427,0.937 -12.109,4.092 -0.682,3.155 5.799,1.108 9.635,-0.511 -1.277,6.48 0.172,8.015 1.279,7.759 1.11,-0.256 3.24,-0.342 6.055,-6.651 -0.768,7.333 2.131,6.652 3.922,4.69 1.791,-1.961 3.922,-6.992 3.922,-6.992 l 2.218,0.597 c -1.195,3.666 -1.621,7.161 0,7.844 1.619,0.683 3.836,0.426 6.735,-6.906 5.373,1.109 11.086,3.667 13.218,0.937 2.131,-2.728 4.348,-9.38 4.348,-9.38 0,0 -3.24,-12.875 -21.828,-4.689" style="fill:#ff7e7d;fill-opacity:1;fill-rule:nonzero;stroke:none" id="path302"/>
        </g>
        <g id="g304" transform="translate(554.3545,183.502)">
          <path d="m 0,0 c -5.969,-1.194 -14.836,0.852 -21.828,-1.877 -6.992,-2.727 -12.791,-10.742 -20.977,-30.354 -8.185,-19.613 -15.689,-33.426 -15.689,-33.426 -4.604,10.403 -15.86,32.914 -17.055,35.301 -1.193,2.387 -2.047,-1.875 -8.355,-3.922 -6.311,-2.046 -13.815,-1.195 -15.178,-0.171 -1.363,1.023 0,-4.434 3.752,-14.325 3.752,-9.892 12.447,-37.007 18.418,-47.069 5.969,-10.061 23.877,-19.954 36.836,-2.218 12.961,17.738 20.635,39.225 20.635,39.225 l 10.914,-55.083 h 77.084 l 0.681,45.532 c 0,0 18.76,-36.664 13.985,-45.532 11.425,0 31.379,-0.341 31.379,-0.341 0,0 2.416,8.918 -1.512,19.721 -4.6,12.646 -10.42,28.343 -14.006,36.896 -6.652,15.862 -15.008,37.349 -19.953,43.489 C 74.184,-8.015 71.092,-3.179 51.162,1.023 49.541,1.365 49.199,0.003 43.316,-2.982 37.434,-5.969 16.107,-11.299 4.178,-3.495 2.135,-2.158 1.023,0.085 0,0" style="fill:#5fb0a2;fill-opacity:1;fill-rule:nonzero;stroke:none" id="path306"/>
        </g>
        <g id="g308" transform="translate(575.501,180.9883)">
          <path d="m 0,0 c 0,-1.154 -0.727,-2.09 -1.621,-2.09 -0.895,0 -1.619,0.936 -1.619,2.09 0,1.152 0.724,2.088 1.619,2.088 C -0.727,2.088 0,1.152 0,0" style="fill:#151748;fill-opacity:1;fill-rule:nonzero;stroke:none" id="path310"/>
        </g>
        <g id="g312" transform="translate(567.3818,180.9658)">
          <path d="m 0,0 c -1.228,0 -2.454,1.173 -3.747,3.58 -0.131,0.243 -0.039,0.546 0.204,0.677 0.241,0.129 0.546,0.04 0.677,-0.204 1.451,-2.7 2.456,-3.049 2.906,-3.052 0.785,0.035 1.424,1.147 1.82,2.074 1.264,2.946 3.199,7.668 3.218,7.715 0.106,0.256 0.401,0.377 0.652,0.273 C 5.986,10.959 6.108,10.667 6.004,10.411 5.984,10.363 4.046,5.635 2.78,2.681 2.038,0.949 1.131,0.048 0.084,0.002 0.057,0.001 0.028,0 0,0" style="fill:#000000;fill-opacity:1;fill-rule:nonzero;stroke:none" id="path314"/>
        </g>
        <g id="g316" transform="translate(582.042,179.9971)">
          <path d="m 0,0 c -0.204,0 -0.407,0.008 -0.61,0.023 -3.994,0.307 -5.268,4.795 -6.392,8.755 -0.231,0.816 -0.456,1.607 -0.697,2.328 -0.087,0.262 0.054,0.545 0.316,0.633 0.263,0.087 0.545,-0.053 0.633,-0.316 0.245,-0.735 0.474,-1.541 0.71,-2.372 1.034,-3.646 2.208,-7.778 5.506,-8.031 4.449,-0.336 9.236,3.645 11.353,6.055 0.184,0.207 0.5,0.228 0.706,0.046 C 11.732,6.938 11.753,6.622 11.571,6.415 9.424,3.972 4.663,0 0,0" style="fill:#000000;fill-opacity:1;fill-rule:nonzero;stroke:none" id="path318"/>
        </g>
        <g id="g320" transform="translate(535.4678,121.9502)">
          <path d="m 0,0 c -0.23,0 -0.437,0.16 -0.488,0.394 -0.646,2.967 -1.306,5.82 -1.912,8.439 -1.224,5.285 -2.19,9.46 -2.447,11.952 -0.028,0.276 0.171,0.521 0.446,0.549 0.27,0.032 0.52,-0.171 0.548,-0.445 0.251,-2.431 1.259,-6.786 2.426,-11.83 C -0.819,6.436 -0.158,3.579 0.488,0.606 0.547,0.337 0.376,0.07 0.106,0.012 0.07,0.004 0.035,0 0,0" style="fill:#000000;fill-opacity:1;fill-rule:nonzero;stroke:none" id="path322"/>
        </g>
        <g id="g324" transform="translate(624.999,111.2061)">
          <path d="m 0,0 c -0.203,0 -0.395,0.125 -0.469,0.327 -2.203,5.98 -6.937,14.782 -10.071,20.607 -0.65,1.21 -1.221,2.27 -1.67,3.123 -0.129,0.245 -0.035,0.547 0.209,0.675 0.246,0.127 0.547,0.037 0.676,-0.21 0.448,-0.849 1.017,-1.908 1.666,-3.115 C -6.513,15.559 -1.758,6.719 0.469,0.673 0.564,0.414 0.432,0.126 0.173,0.031 0.116,0.01 0.058,0 0,0" style="fill:#000000;fill-opacity:1;fill-rule:nonzero;stroke:none" id="path326"/>
        </g>
        <g id="g328" transform="translate(440.7744,154.3525)">
          <path d="m 0,0 c -0.121,0 -0.242,0.044 -0.338,0.132 -2.174,1.994 -4.499,6.316 -5.005,8.257 -0.07,0.266 0.09,0.54 0.358,0.609 0.268,0.075 0.54,-0.09 0.609,-0.357 C -3.91,6.857 -1.677,2.717 0.338,0.868 0.541,0.682 0.555,0.365 0.368,0.162 0.27,0.055 0.135,0 0,0" style="fill:#000000;fill-opacity:1;fill-rule:nonzero;stroke:none" id="path330"/>
        </g>
        <g id="g332" transform="translate(449.3018,153.3291)">
          <path d="m 0,0 c -0.078,0 -0.157,0.019 -0.23,0.057 -4.24,2.205 -5.733,7.13 -6.451,9.498 l -0.105,0.348 c -0.081,0.264 0.066,0.543 0.331,0.624 0.262,0.082 0.544,-0.066 0.624,-0.331 L -5.724,9.845 C -5.046,7.608 -3.635,2.954 0.23,0.943 0.476,0.816 0.571,0.515 0.443,0.27 0.354,0.098 0.18,0 0,0" style="fill:#000000;fill-opacity:1;fill-rule:nonzero;stroke:none" id="path334"/>
        </g>
        <g id="g336" transform="translate(460.2656,154.1348)">
          <path d="m 0,0 c -1.003,0 -1.931,0.204 -2.779,0.611 -2.028,0.974 -3.493,2.996 -4.483,6.183 -0.082,0.264 0.066,0.544 0.329,0.626 0.268,0.083 0.545,-0.066 0.626,-0.329 0.903,-2.906 2.198,-4.732 3.96,-5.578 C -0.811,0.775 1.076,0.835 3.266,1.695 3.521,1.796 3.813,1.669 3.914,1.412 4.015,1.155 3.888,0.865 3.631,0.764 2.334,0.255 1.121,0 0,0" style="fill:#000000;fill-opacity:1;fill-rule:nonzero;stroke:none" id="path338"/>
        </g>
        <g id="g340" transform="translate(461.3252,158.5303)">
          <path d="M 0,0 C -0.183,0 -0.359,0.102 -0.447,0.276 -0.486,0.354 -1.405,2.199 -2.091,4.081 -2.186,4.34 -2.052,4.627 -1.792,4.722 -1.53,4.816 -1.246,4.683 -1.151,4.423 -0.485,2.595 0.438,0.742 0.447,0.724 0.57,0.477 0.471,0.176 0.224,0.053 0.151,0.017 0.075,0 0,0" style="fill:#000000;fill-opacity:1;fill-rule:nonzero;stroke:none" id="path342"/>
        </g>
        <g id="g344" transform="translate(453.3086,153.1582)">
          <path d="M 0,0 C -0.233,0 -0.441,0.164 -0.489,0.402 -0.544,0.673 -0.368,0.937 -0.097,0.99 0.85,1.18 2.525,2.454 3.092,2.93 3.303,3.108 3.618,3.08 3.796,2.868 3.974,2.657 3.946,2.342 3.734,2.164 3.506,1.973 1.465,0.283 0.099,0.01 0.066,0.003 0.033,0 0,0" style="fill:#000000;fill-opacity:1;fill-rule:nonzero;stroke:none" id="path346"/>
        </g>
        <g id="g348" transform="translate(326.8579,236.3701)">
          <path d="m 0,0 c 0,-18.838 -15.271,-34.108 -34.108,-34.108 -18.838,0 -34.109,15.27 -34.109,34.108 0,18.837 15.271,34.108 34.109,34.108 C -15.271,34.108 0,18.837 0,0" style="fill:#aad5ce;fill-opacity:1;fill-rule:nonzero;stroke:none" id="path350"/>
        </g>
        <g id="g352" transform="translate(321.7427,254.332)">
          <path d="m 0,0 c -6.016,9.69 -16.749,16.146 -28.993,16.146 v -34.108 c 0,0 19.34,10.454 28.993,17.962" style="fill:#5fb0a2;fill-opacity:1;fill-rule:nonzero;stroke:none" id="path354"/>
        </g>
        <g id="g356" transform="translate(292.7495,236.3701)">
          <path d="m 0,0 33.695,-5.305 c 0.271,1.729 0.413,3.5 0.413,5.305 0,7.128 -2.189,13.743 -5.928,19.216 C 18.381,12.481 0,0 0,0" style="fill:#151748;fill-opacity:1;fill-rule:nonzero;stroke:none" id="path358"/>
        </g>
        <g id="g360" transform="translate(165.0347,282.3369)">
          <path d="M 0,0 C -2.94,7.232 -14.702,20.827 -32.668,13.017 -50.634,5.206 -51.45,-9.69 -57.658,-28.78 c -6.206,-19.09 -16.335,-39.049 -19.438,-48.883 -3.102,-9.834 -1.468,-25.743 14.048,-22.85 -0.653,-12.728 18.491,-14.972 26.706,-10.124 13.965,8.242 11,23.15 11,23.15 6.698,-2.749 25.6,3.79 19.2,23.243 -9.248,28.108 -12.342,58.612 2.134,58.612 C 5.547,1.527 0,0 0,0" style="fill:#151748;fill-opacity:1;fill-rule:nonzero;stroke:none" id="path362"/>
        </g>
        <g id="g364" transform="translate(169.75,281.4238)">
          <path d="M 0,0 C -2.499,2.721 -6.247,4.812 -9.372,0.146 -12.088,-3.91 -13.276,-8.895 -7.964,-9.963 -4.48,-10.664 1.25,-4.859 0,0" style="fill:#5fb0a2;fill-opacity:1;fill-rule:nonzero;stroke:none" id="path366"/>
        </g>
        <g id="g368" transform="translate(173.6909,197.4687)">
          <path d="m 0,0 c 0.682,3.069 2.921,18.947 2.921,18.947 l 8.528,12.621 c -9.338,9.805 4.604,25.41 12.108,12.62 3.41,0.852 2.728,27.457 8.014,31.378 5.287,3.922 21.148,2.729 21.148,2.729 C 56.982,73.179 58.347,65.846 57.323,57.66 56.3,49.475 54.765,47.086 58.688,43.164 62.61,39.242 66.021,36.342 59.881,31.908 56.129,29.351 55.959,28.328 55.277,23.553 54.595,18.777 54.083,13.319 46.067,11.273 38.053,9.227 31.571,9.739 29.696,10.08 28.502,10.25 26.627,1.211 25.774,-3.563 24.921,-8.338 0,0 0,0" style="fill:#ff7e7d;fill-opacity:1;fill-rule:nonzero;stroke:none" id="path370"/>
        </g>
        <g id="g372" transform="translate(268.1909,177.7041)">
          <path d="m 0,0 c 4.945,5.457 8.187,11.597 15.178,12.62 6.992,1.024 11.767,1.364 15.348,2.388 3.581,1.023 4.264,2.388 6.311,0 1.022,6.992 4.434,9.891 5.628,5.116 2.557,4.945 6.138,4.433 5.285,0.17 3.924,3.752 6.993,2.896 5.799,-1.024 C 52.354,15.349 49.455,8.017 44.169,5.799 38.883,3.581 27.115,6.312 22.17,0.854 17.225,-4.604 11.938,-12.107 11.938,-12.107 Z" style="fill:#ff7e7d;fill-opacity:1;fill-rule:nonzero;stroke:none" id="path374"/>
        </g>
        <g id="g376" transform="translate(293.8564,184.4951)">
          <path d="m 0,0 c -0.252,0 -0.469,0.19 -0.497,0.446 -0.029,0.276 0.17,0.522 0.444,0.551 3.836,0.411 9.551,2.254 10.505,3.738 1.041,1.619 0.997,2.855 -0.129,3.674 -0.224,0.162 -0.273,0.475 -0.111,0.698 0.162,0.224 0.474,0.274 0.699,0.111 C 11.83,8.549 13.103,7.008 11.293,4.194 9.939,2.088 3.256,0.346 0.054,0.003 0.036,0.001 0.018,0 0,0" style="fill:#000000;fill-opacity:1;fill-rule:nonzero;stroke:none" id="path378"/>
        </g>
        <g id="g380" transform="translate(304.686,188.1191)">
          <path d="m 0,0 c -0.276,0 -0.5,0.224 -0.5,0.5 0,0.276 0.224,0.5 0.5,0.5 2.038,0 4.217,0.369 6.345,3.05 0.964,1.214 1.742,2.302 2.429,3.261 0.953,1.331 1.706,2.381 2.481,3.105 0.203,0.188 0.518,0.178 0.707,-0.024 C 12.15,10.19 12.14,9.874 11.938,9.686 11.235,9.029 10.508,8.014 9.587,6.729 8.894,5.76 8.107,4.661 7.128,3.429 4.729,0.407 2.179,0 0,0" style="fill:#000000;fill-opacity:1;fill-rule:nonzero;stroke:none" id="path382"/>
        </g>
        <g id="g384" transform="translate(307.1582,188.8008)">
          <path d="m 0,0 c -0.098,0 -0.196,0.028 -0.283,0.088 -0.227,0.156 -0.285,0.468 -0.129,0.695 0.315,0.458 0.753,1.68 1.216,2.973 0.853,2.381 1.914,5.343 3.262,6.804 0.187,0.204 0.505,0.215 0.707,0.028 C 4.976,10.401 4.989,10.085 4.802,9.882 3.591,8.569 2.568,5.714 1.746,3.419 1.218,1.945 0.801,0.782 0.413,0.217 0.315,0.076 0.159,0 0,0" style="fill:#000000;fill-opacity:1;fill-rule:nonzero;stroke:none" id="path386"/>
        </g>
        <g id="g388" transform="translate(255.4858,176.1699)">
          <path d="m 0,0 c 2.686,3.069 5.5,7.674 8.953,4.732 3.453,-2.942 13.43,-9.593 15.733,-11.383 2.301,-1.791 5.116,-2.814 2.301,-6.78 -2.813,-3.965 -29.29,-38.499 -40.928,-49.882 -11.64,-11.383 -21.872,-13.558 -38.244,4.989 -3.198,-6.907 -13.813,-11 -15.604,-18.291 -1.791,-7.29 -1.363,-29.972 -1.363,-29.972 l -62.759,0.342 c 0,0 11.994,47.352 17.366,61.294 5.372,13.941 7.75,27 19.5,46.75 4.936,8.296 9.192,11.134 11.75,21.75 0.384,2.302 0.553,4.395 3.75,3.5 3.197,-0.896 22.116,-6.201 24.035,-7.225 1.918,-1.022 -0.639,-5.627 -3.326,-15.731 8.315,-6.652 18.29,-20.593 23.278,-27.116 4.989,-6.523 9.721,-10.616 14.07,-5.756 C -17.139,-23.918 0,0 0,0" style="fill:#7967cc;fill-opacity:1;fill-rule:nonzero;stroke:none" id="path390"/>
        </g>
        <g id="g392" transform="translate(203.9409,116.834)">
          <path d="m 0,0 c -0.13,0 -0.26,0.05 -0.357,0.15 -5.483,5.609 -24.052,25.968 -26.77,29.461 -0.169,0.218 -0.13,0.532 0.087,0.701 0.22,0.171 0.533,0.13 0.702,-0.087 C -23.632,26.747 -5.113,6.446 0.357,0.85 0.551,0.652 0.547,0.336 0.35,0.143 0.252,0.048 0.126,0 0,0" style="fill:#000000;fill-opacity:1;fill-rule:nonzero;stroke:none" id="path394"/>
        </g>
        <g id="g396" transform="translate(197.8013,178.7393)">
          <path d="m 0,0 c -0.117,0 -0.234,0.04 -0.329,0.123 -3.978,3.465 -9.536,4.865 -11.183,4.865 -0.276,0 -0.5,0.224 -0.5,0.5 0,0.277 0.224,0.5 0.5,0.5 2.017,0 7.744,-1.543 11.841,-5.111 C 0.537,0.695 0.559,0.38 0.377,0.172 0.278,0.059 0.139,0 0,0" style="fill:#000000;fill-opacity:1;fill-rule:nonzero;stroke:none" id="path398"/>
        </g>
        <g id="g400" transform="translate(176.8247,216.0752)">
          <path d="m 0,0 c 2.389,0.17 4.733,2.9 8.315,12.962 -3.412,5.285 -2.388,11.767 2.216,15.348 4.605,3.582 7.845,-0.172 10.233,-4.435 2.387,-4.263 3.923,-4.775 5.969,-3.581 2.046,1.194 7.955,9.852 1.133,28.1 -1.109,3.241 1.253,6.349 6.711,5.837 5.458,-0.511 11.427,-0.512 16.031,3.922 C 51.972,60.2 48.991,65.769 38.366,70.519 30.22,74.16 4.172,78.207 -10.614,62.758 -20.824,52.091 -22.473,42.208 -22.158,35.424 -21.658,24.674 -13.3,7.702 0,0" style="fill:#151748;fill-opacity:1;fill-rule:nonzero;stroke:none" id="path402"/>
        </g>
        <g id="g404" transform="translate(190.5083,226.1836)">
          <path d="M 0,0 C -3.043,0 -5.533,1.549 -7.011,4.505 -7.134,4.752 -7.034,5.052 -6.787,5.176 -6.54,5.3 -6.24,5.199 -6.116,4.952 -4.237,1.194 -0.458,0.041 3.991,1.866 4.245,1.97 4.539,1.849 4.644,1.593 4.748,1.337 4.626,1.045 4.37,0.94 2.83,0.31 1.359,0 0,0" style="fill:#000000;fill-opacity:1;fill-rule:nonzero;stroke:none" id="path406"/>
        </g>
        <g id="g408" transform="translate(228.9687,220.5215)">
          <path d="M 0,0 C -0.021,0 -0.043,0.001 -0.065,0.004 -2.734,0.355 -5.125,3.649 -6.31,6.76 -6.408,7.018 -6.278,7.307 -6.021,7.404 -5.763,7.505 -5.474,7.375 -5.375,7.115 -4.331,4.375 -2.183,1.291 0.064,0.996 0.338,0.96 0.531,0.709 0.495,0.435 0.462,0.184 0.247,0 0,0" style="fill:#000000;fill-opacity:1;fill-rule:nonzero;stroke:none" id="path410"/>
        </g>
        <g id="g412" transform="translate(204.4531,206.75)">
          <path d="m 0,0 c -0.019,0 -0.038,0.001 -0.058,0.003 -3.562,0.411 -8.477,3.076 -10.228,4.452 -0.217,0.171 -0.255,0.485 -0.084,0.702 0.171,0.218 0.484,0.254 0.702,0.085 C -8.043,3.965 -3.271,1.381 0.057,0.997 0.331,0.965 0.528,0.717 0.496,0.442 0.467,0.187 0.25,0 0,0" style="fill:#000000;fill-opacity:1;fill-rule:nonzero;stroke:none" id="path414"/>
        </g>
        <g id="g416" transform="translate(217.8823,253.9463)">
          <path d="M 0,0 C -0.141,0 -0.281,0.059 -0.379,0.174 -0.559,0.384 -0.535,0.7 -0.326,0.879 0.65,1.716 4.233,4.409 9.255,3.94 9.53,3.915 9.732,3.671 9.707,3.396 9.681,3.121 9.433,2.922 9.163,2.944 4.524,3.379 1.226,0.893 0.326,0.121 0.231,0.04 0.115,0 0,0" style="fill:#000000;fill-opacity:1;fill-rule:nonzero;stroke:none" id="path418"/>
        </g>
        <g id="g420" transform="translate(222.1035,244.4814)">
          <path d="m 0,0 c -0.144,0 -0.286,0.062 -0.385,0.18 -0.177,0.212 -0.148,0.527 0.064,0.704 0.593,0.494 1.805,2.046 2.222,2.602 0.166,0.221 0.48,0.266 0.7,0.101 0.221,-0.166 0.266,-0.48 0.1,-0.7 C 2.637,2.801 1.123,0.785 0.32,0.116 0.226,0.038 0.113,0 0,0" style="fill:#000000;fill-opacity:1;fill-rule:nonzero;stroke:none" id="path422"/>
        </g>
        <g id="g424" transform="translate(222.4878,245.6631)">
          <path d="M 0,0 C -1.37,0.125 -3.496,-5.287 -1.45,-5.628 0.597,-5.969 1.877,-0.171 0,0" style="fill:#000000;fill-opacity:1;fill-rule:nonzero;stroke:none" id="path426"/>
        </g>
        <g id="g428" transform="translate(483.958,184.7695)">
          <path d="m 0,0 c 0,-6.781 -5.498,-12.278 -12.279,-12.278 h -49.455 c -6.782,0 -12.28,5.497 -12.28,12.278 v 50.139 c 0,6.78 5.498,12.278 12.28,12.278 h 49.455 C -5.498,62.417 0,56.919 0,50.139 Z" style="fill:#f1efef;fill-opacity:1;fill-rule:nonzero;stroke:none" id="path430"/>
        </g>
        <g id="g432" transform="translate(435.0479,189.7324)">
          <path d="m 0,0 c 0,-3.306 -2.68,-5.986 -5.986,-5.986 -3.305,0 -5.987,2.68 -5.987,5.986 v 25.59 c 0,3.306 2.682,5.986 5.987,5.986 C -2.68,31.576 0,28.896 0,25.59 Z" style="fill:#aad5ce;fill-opacity:1;fill-rule:nonzero;stroke:none" id="path434"/>
        </g>
        <g id="g436" transform="translate(451.7803,189.7324)">
          <path d="m 0,0 c 0,-3.306 -2.682,-5.986 -5.988,-5.986 -3.305,0 -5.987,2.68 -5.987,5.986 v 35.184 c 0,3.306 2.682,5.986 5.987,5.986 C -2.682,41.17 0,38.49 0,35.184 Z" style="fill:#54478d;fill-opacity:1;fill-rule:nonzero;stroke:none" id="path438"/>
        </g>
        <g id="g440" transform="translate(468.5107,189.7324)">
          <path d="m 0,0 c 0,-3.306 -2.682,-5.986 -5.986,-5.986 -3.307,0 -5.987,2.68 -5.987,5.986 v 43.879 c 0,3.305 2.68,5.986 5.987,5.986 3.304,0 5.986,-2.681 5.986,-5.986 z" style="fill:#151748;fill-opacity:1;fill-rule:nonzero;stroke:none" id="path442"/>
        </g>
        <g id="g444" transform="translate(687.1807,68.2393)">
          <path d="m 0,0 h -592.24 c -0.552,0 -1,0.447 -1,1 0,0.553 0.448,1 1,1 H 0 C 0.553,2 1,1.553 1,1 1,0.447 0.553,0 0,0" style="fill:#151748;fill-opacity:1;fill-rule:nonzero;stroke:none" id="path446"/>
        </g>
      </g>
    </g>
  </g>
</svg>