<?xml version="1.0" encoding="utf-8"?>
<svg viewBox="197.852 250.834 2886.721 2138.206" xmlns="http://www.w3.org/2000/svg">
  <g id="g10" transform="matrix(1.333333, 0, 0, -1.333333, 0, 2666.666748)">
    <g id="g12" transform="scale(0.1)">
      <path d="m 21954.9,2111.8 c 771.7,2668.2 1102.9,6604 1.7,9154 -742.4,1719.3 -1888.2,2241.8 -3140.6,2738.1 -1064,421.7 -1637.7,1711.4 -2485.9,2620.1 -1203.5,1289.2 -2784.9,1491.6 -4227.5,1494.7 -1749.1,3.8 -3768.51,-241.6 -5220.59,-1833.4 C 6056.99,15380.9 5375,14056.2 5415.94,12476.5 5451.86,11090.3 5899.44,9885.5 4958.42,8948.4 4176.24,8169.5 3470.1,7530 3161.91,6118.5 2871.79,4789.7 2996.94,3074.5 3755.27,2122.1 l 18199.63,-10.3" style="fill:#ebf3fa;fill-opacity:1;fill-rule:nonzero;stroke:none" id="path16"/>
      <path d="m 3902.4,4376.5 c 0,0 359.58,419.5 22.17,686 0,0 -246.46,149.2 -447.42,137 0,0 284.76,-477.4 192.63,-524.9 -92.12,-47.5 -278.93,554.9 -278.93,554.9 0,0 -560.86,54.4 -741.28,-32.4 0,0 479.46,-392.3 378.48,-415.7 -100.97,-23.3 -618.86,361.8 -618.86,361.8 0,0 -521.99,-88.9 -494.16,-407.3 27.83,-318.4 207.7,-416.7 286.75,-408.3 79.05,8.5 541.49,185 551.57,120.2 10.06,-64.7 -268.3,-276.4 -463.22,-286.3 0,0 368.02,-405.9 612.6,-288.8 244.59,117.2 265.47,302.9 417.93,372.5 152.47,69.6 282.62,69.5 219.68,-1.6 -62.95,-71 -338.88,-140 -426.08,-294.2 -87.19,-154.3 -165.41,-258.3 87.64,-220.2 253.06,38.1 664.39,223.2 682.44,435.3 18.06,212 18.06,212 18.06,212" style="fill:#c8dbf4;fill-opacity:1;fill-rule:nonzero;stroke:none" id="path18"/>
      <path d="m 2171.52,4727.3 c 0,0 1417.78,54.7 1730.88,-350.8 0,0 69.25,-207.4 282.32,-396.2 l 33.22,-90.6 c 0,0 -245.68,259.1 -333.6,274.8 0,0 137.48,502.3 -1712.82,562.8" style="fill:#c8dbf4;fill-opacity:1;fill-rule:nonzero;stroke:none" id="path20"/>
      <path d="m 4184.72,3980.3 c 0,0 304.32,-225.1 325.46,-627.2 l -55.24,-5 c 0,0 -97.19,415.8 -272.86,578.4 -175.67,162.6 2.64,53.8 2.64,53.8" style="fill:#c8dbf4;fill-opacity:1;fill-rule:nonzero;stroke:none" id="path22"/>
      <path d="m 5159.62,4904.1 c 0,0 -572,320.3 -305.06,755 0,0 213.55,266.9 442.34,335.6 0,0 -122.02,-648.3 0,-663.5 122.03,-15.3 83.9,732.1 83.9,732.1 0,0 602.51,289.8 838.94,267 0,0 -373.71,-633.1 -251.68,-617.8 122.02,15.2 541.5,655.9 541.5,655.9 0,0 617.76,114.4 716.91,-251.7 99.14,-366.1 -61.02,-549.1 -152.53,-572 -91.53,-22.9 -678.78,-15.3 -663.53,-91.5 15.25,-76.3 411.84,-198.3 633.02,-129.7 0,0 -244.05,-602.5 -564.38,-572 -320.33,30.5 -419.47,228.8 -617.77,244.1 -198.29,15.2 -343.19,-38.2 -244.05,-91.5 99.15,-53.4 434.72,-17.5 594.88,-153.7 160.17,-136.2 289.82,-220 -7.63,-281.1 -297.43,-61 -831.31,-22.9 -938.08,206 -106.78,228.8 -106.78,228.8 -106.78,228.8" style="fill:#c8dbf4;fill-opacity:1;fill-rule:nonzero;stroke:none" id="path24"/>
      <path d="m 6944.28,6002.3 c 0,0 -1601.61,-518.6 -1784.66,-1098.2 0,0 7.63,-259.3 -152.53,-556.8 v -114.4 c 0,0 167.79,389 259.31,442.4 0,0 -358.46,503.3 1677.88,1327" style="fill:#c8dbf4;fill-opacity:1;fill-rule:nonzero;stroke:none" id="path26"/>
      <path d="m 5007.09,4347.3 c 0,0 -246.99,-375.1 -106.18,-831.6 l 63.54,17 c 0,0 -61.68,502.9 67.54,755.8 129.23,253 -24.9,58.8 -24.9,58.8" style="fill:#c8dbf4;fill-opacity:1;fill-rule:nonzero;stroke:none" id="path28"/>
      <path d="m 4249.61,5345.8 c 0,0 754.01,422.3 402.14,995.3 0,0 -281.5,351.9 -583.1,442.4 0,0 160.86,-854.6 0,-874.7 -160.85,-20.1 -110.59,965.1 -110.59,965.1 0,0 -794.22,382.1 -1105.88,351.9 0,0 492.62,-834.4 331.76,-814.3 -160.84,20.1 -713.79,864.6 -713.79,864.6 0,0 -814.33,150.8 -945.02,-331.8 -130.7,-482.5 80.43,-723.8 201.07,-754 120.64,-30.2 894.76,-20.1 874.65,-120.6 -20.1,-100.6 -542.89,-261.4 -834.43,-170.9 0,0 321.71,-794.3 743.95,-754 422.24,40.2 552.93,301.6 814.32,321.7 261.39,20.1 452.42,-50.3 321.72,-120.7 -130.69,-70.4 -573.05,-23 -784.18,-202.5 -211.11,-179.5 -382.02,-290.1 10.06,-370.5 392.08,-80.4 1095.83,-30.2 1236.58,271.4 140.74,301.6 140.74,301.6 140.74,301.6" style="fill:#d4e4f8;fill-opacity:1;fill-rule:nonzero;stroke:none" id="path30"/>
      <path d="m 1897.11,6793.5 c 0,0 2111.22,-683.6 2352.5,-1447.7 0,0 -10.05,-341.8 201.07,-733.9 v -150.8 c 0,0 -221.17,512.7 -341.81,583.1 0,0 472.5,663.5 -2211.76,1749.3" style="fill:#d4e4f8;fill-opacity:1;fill-rule:nonzero;stroke:none" id="path32"/>
      <path d="m 4450.68,4611.9 c 0,0 325.59,-494.4 139.97,-1096.2 l -83.76,22.5 c 0,0 81.3,662.9 -89.04,996.3 -170.33,333.4 32.83,77.4 32.83,77.4" style="fill:#d4e4f8;fill-opacity:1;fill-rule:nonzero;stroke:none" id="path34"/>
      <path d="m 4275.02,2210.5 c -815.72,0 -1476.99,661.3 -1476.99,1477 H 5752 c 0,-815.7 -661.27,-1477 -1476.98,-1477" style="fill:#d4e4f8;fill-opacity:1;fill-rule:nonzero;stroke:none" id="path36"/>
      <path d="M 2777.65,2135.4 H 5772.4 v 0 c 0,100.6 -81.59,182.2 -182.23,182.2 H 2959.85 c -100.63,0 -182.2,-81.6 -182.2,-182.2 v 0" style="fill:#d4e4f8;fill-opacity:1;fill-rule:nonzero;stroke:none" id="path38"/>
      <path d="m 2764.45,3642.2 h 3036.12 v 45.3 H 2764.45 v -45.3" style="fill:#9fc1f4;fill-opacity:1;fill-rule:nonzero;stroke:none" id="path40"/>
      <path d="m 9036.35,6902.3 c -29.66,678.8 -93.6,1269.3 -170.13,1681.1 -122,656.4 -231.83,1034.1 -233.1,1038.1 -16.07,57.7 -248.22,291.3 -764.38,284.1 -516.15,-7.2 -467.2,-313.5 -467.2,-313.5 v 0 c -0.05,-10.4 1.42,-20 3.69,-27.2 4.99,-15.8 478.78,-1614.5 458.27,-3678.5 -0.29,-29 -3.78,-79.1 -1.58,-112.4 0.01,-0.2 1196.13,-28.7 1196.42,0 41.72,180.4 21.37,680.2 -21.99,1128.3" style="fill:#b7d3f3;fill-opacity:1;fill-rule:nonzero;stroke:none" id="path42"/>
      <path d="m 9186.74,5896.6 c -0.35,-28.8 -16.67,-51.8 -36.57,-51.8 h -0.47 c -19.89,0.4 -35.73,23.5 -35.97,51.8 H 8088.65 c -0.36,-28.8 -16.67,-51.8 -36.57,-51.8 h -0.48 c -20.24,0.4 -36.32,24.2 -36.09,53.3 5.96,590.9 -30.25,1142.6 -85.05,1629.5 -136.26,1214.4 -388.18,2026 -391.75,2037.2 -2.26,7.3 -3.69,16.9 -3.69,27.3 0,0 -48.95,306.3 467.15,313.5 516.23,7.3 748.38,-226.4 764.47,-284.1 0.95,-3.1 63.13,-216.9 145.79,-601.4 27.39,-127.3 56.94,-273.4 87.31,-436.6 76.47,-411.8 140.43,-1002.4 170.08,-1681.1 43.36,-448.2 58.61,-825.5 16.92,-1005.8" style="fill:#d2e3fc;fill-opacity:1;fill-rule:nonzero;stroke:none" id="path44"/>
      <path d="m 7939.76,5844.8 h 4018.84 c 0,0 -93.6,352.4 -2421.05,299.9 -1647.08,-37.1 -1597.79,-299.9 -1597.79,-299.9" style="fill:#c5dcf8;fill-opacity:1;fill-rule:nonzero;stroke:none" id="path46"/>
      <path d="m 7612.64,2163.7 c 465.98,2195.1 346.16,3542 345.57,3559 -1.18,33.8 65.77,64.5 101.77,65.6 36.46,0.6 197.29,9.9 215.9,-19 24.38,-37.9 118.22,-1697.4 -576.25,-3605.6 h -86.99" style="fill:#b7d3f3;fill-opacity:1;fill-rule:nonzero;stroke:none" id="path48"/>
      <path d="m 11365,2163.7 c -466,2195.1 -346.2,3542 -345.6,3559 1.2,33.8 -65.7,64.5 -101.7,65.6 -36.5,0.6 -197.3,9.9 -215.9,-19 -24.4,-37.9 -118.3,-1697.4 576.2,-3605.6 h 87" style="fill:#b7d3f3;fill-opacity:1;fill-rule:nonzero;stroke:none" id="path50"/>
      <path d="m 12108.6,2163.7 c -465.9,2195.1 -346.1,3542 -345.5,3559 1.1,33.8 -65.8,64.5 -101.8,65.6 -36.5,0.6 -197.3,9.9 -215.9,-19 -24.4,-37.9 -118.2,-1697.4 576.2,-3605.6 h 87" style="fill:#b7d3f3;fill-opacity:1;fill-rule:nonzero;stroke:none" id="path52"/>
      <path d="m 8361.28,2163.7 c 465.98,2195.1 346.15,3542 345.57,3559 -1.18,33.8 65.76,64.5 101.76,65.6 36.46,0.6 197.29,9.9 215.91,-19 24.38,-37.9 118.21,-1697.4 -576.25,-3605.6 h -86.99" style="fill:#b7d3f3;fill-opacity:1;fill-rule:nonzero;stroke:none" id="path54"/>
      <path d="M 11963.9,5732.3 H 7939.22 c -43.67,0 -79.41,35.7 -79.41,79.4 v 44.7 c 0,43.7 35.74,79.5 79.41,79.5 h 4024.68 c 43.7,0 79.4,-35.8 79.4,-79.5 v -44.7 c 0,-43.7 -35.7,-79.4 -79.4,-79.4" style="fill:#b7d3f3;fill-opacity:1;fill-rule:nonzero;stroke:none" id="path56"/>
      <path d="m 8887.92,12957 c -11.65,27.4 -147.78,318.6 -609.91,159.7 0,0 234.54,59.1 311.04,-24.7 0,0 -199.37,63.4 -308.75,-23.4 -109.38,-86.8 -99.02,-332.7 -72.33,-404.6 26.71,-71.9 184.24,-276.6 270.7,-266 32.75,4 66.43,19.2 95.66,36.5 -8.46,-40.8 -15.19,-84.9 -19.41,-132.8 -39,-443.3 288.47,-736.6 427.12,-637.3 88.92,63.7 181.42,-94.2 181.42,-94.2 l 662.61,1144.7 c 0,0 -631.95,594.8 -938.15,242.1" style="fill:#2c3a64;fill-opacity:1;fill-rule:nonzero;stroke:none" id="path58"/>
      <path d="m 10130.9,10260.8 c -627.57,-280.5 -1099.37,709.5 -1058.39,719.6 62.74,71 127.44,323.9 81.47,687.9 l 32.54,-2.3 545.77,-40.4 c 0,0 8.49,-169.3 27.32,-327.2 12.46,-103.8 29.54,-202.8 51.67,-246 6.55,-12.7 124.79,-29.8 125.08,-30.1 9.19,-10 361.94,-686.8 194.54,-761.5" style="fill:#d17b34;fill-opacity:1;fill-rule:nonzero;stroke:none" id="path60"/>
      <path d="m 14137,2154.2 h -1099.8 c 0,0 -26.4,167.6 31.1,294.8 55,122 90.1,155.5 30.3,296.6 69.9,-72 274.1,-124 433.1,-102.6 19.4,-31.6 125.7,-200.6 190.8,-247.4 71.9,-51.6 392.3,-33.2 414.5,-241.4" style="fill:#233862;fill-opacity:1;fill-rule:nonzero;stroke:none" id="path62"/>
      <path d="m 12200.4,2163.7 h -1099.8 c 0,0 -26.4,167.6 31.1,294.8 55,122 162.3,203.6 193.8,344.4 69.9,-72 110.6,-171.8 269.6,-150.4 19.5,-31.6 125.8,-200.6 190.8,-247.4 71.9,-51.6 392.4,-33.2 414.5,-241.4" style="fill:#233862;fill-opacity:1;fill-rule:nonzero;stroke:none" id="path64"/>
      <path d="m 13411.5,8775.5 -0.5,-219.3 c 0,0 -73.7,-6.2 -191,-15.8 -35.2,-2.6 -55.6,-3 -55.6,-3 -94.1,-6.8 -207.3,-11.8 -330.8,-17.8 l -1.6,-0.4 c -212.3,-6.3 -451.1,-9.4 -656.7,3.4 -18.5,1.4 -36.7,2.8 -54.4,4.3 -122.4,10.9 -230.4,28 -310.3,52.7 -9.3,2.6 -16.9,5.6 -26.7,9.8 -1004.2,579.9 -1582.5,1552.6 -1587.7,1578.5 -122.3,463.4 279.1,532.4 1361.6,-670.3 315,-349.9 502.6,-336.7 619,-380.5 30.8,-11.7 63.7,-23.5 98.1,-35.5 191,-65.8 429.5,-132.2 639.9,-185.6 103.1,-26.8 200.2,-50.2 280.8,-69.4 130.1,-31.5 215.9,-51.1 215.9,-51.1" style="fill:#d17b34;fill-opacity:1;fill-rule:nonzero;stroke:none" id="path66"/>
      <path d="m 8399.12,7328.7 c 0,0 -246.77,-769.2 303.88,-1134 737.81,-488.8 2783.5,-72.2 3017,-321.8 59.1,-63.3 -119.7,-95.3 -220.5,-999.2 -145.1,-1299.9 -262.6,-2027 -262.6,-2027 0,0 25.2,-148.7 180.1,-225.4 101.6,-50.3 230.5,-19.2 230.5,-19.2 0,0 1502.5,3299 1352.9,3756.6 -259.2,792.7 -1694.3,715 -3357.63,1183.3 -1015.73,286 -1243.65,-213.3 -1243.65,-213.3" style="fill:#93312c;fill-opacity:1;fill-rule:nonzero;stroke:none" id="path68"/>
      <path d="m 9177.73,7345.4 c 730.45,67.5 2723.67,101.9 3154.77,-194.3 530.5,-364.5 1251.5,-4532.7 1251.5,-4532.7 0,0 -55.4,-44.1 -176,-55.9 -112.2,-11 -355.8,60.8 -355.8,60.8 0,0 -1185.2,1877.3 -1256.5,2347 -71.3,469.7 -34.6,887.4 -235.1,901.4 -200.5,14.1 -2955.12,-303.4 -3190.29,450.5 -183.69,589 36.47,1158.7 36.47,1158.7 0,0 97.09,-197.8 770.95,-135.5" style="fill:#b5453c;fill-opacity:1;fill-rule:nonzero;stroke:none" id="path70"/>
      <path d="M 10877.4,9264.3 C 11005.6,8485 10955,7478.4 10955,7478.4 10208.9,6326.7 8132.12,6673 8132.12,6673 c -45.77,436.6 129.56,1407.7 236.02,2271.7 26.1,211.7 48.06,416.9 61.69,606.3 11.91,165.1 31.27,311.7 56.24,442.2 177.05,923.4 632.43,1024.8 632.43,1024.8 212.92,-413.5 884.8,-524.8 884.8,-524.8 8.3,232.7 -67,529.1 -67,529.1 85.1,-10.2 367.4,-55.9 449.5,-82.8 261.5,-85.5 988.1,-1064.1 988.1,-1064.1 0,0 -148.5,-404.6 -496.5,-611.1" style="fill:#abddda;fill-opacity:1;fill-rule:nonzero;stroke:none" id="path72"/>
      <path d="m 9732.33,11625.5 c 0,0 8.38,-169.2 27.33,-327.2 -299.23,-28 -490.11,224.7 -573.13,367.6 l 545.8,-40.4" style="fill:#b56321;fill-opacity:1;fill-rule:nonzero;stroke:none" id="path74"/>
      <path d="m 9850.21,11488.1 c 0,0 -704.13,-97.9 -758.33,341.6 -54.2,439.4 -181.59,722.7 265.68,803.8 447.27,81.1 555.47,-75.8 609.24,-218.1 53.8,-142.3 65.2,-890.5 -116.59,-927.3" style="fill:#d17b34;fill-opacity:1;fill-rule:nonzero;stroke:none" id="path76"/>
      <path d="m 9915.95,12657.2 c -125.22,118.8 -204.09,79.8 -245.41,34.4 -411.56,164.8 -621.74,-179 -621.74,-179 -8.65,-321.1 -213.97,-529.5 -213.97,-529.5 0,0 138.31,-63.7 425.46,48.7 87.71,34.4 160.7,108.6 219.88,195.1 -95.4,-215.8 -240.99,-380.6 -240.99,-380.6 334.12,206.9 416.11,716.8 423.91,770.6 47.8,-33.4 142.98,-107 178.92,-186.2 48.85,-107.6 92.84,-336.1 158.99,-320 0,0 102.7,368.2 -85.05,546.5" style="fill:#2c3a64;fill-opacity:1;fill-rule:nonzero;stroke:none" id="path78"/>
      <path d="m 13411.5,8775.5 c 0,0 81.6,8 142.2,30.6 60.6,22.5 103.8,57.7 186.4,55.5 82.5,-2.2 215,52.4 211.1,28.7 -3.9,-23.7 -119.5,-103.9 -125,-117.6 -5.5,-13.8 124.4,-158.5 194.6,-183.9 70.1,-25.5 249,-84.1 225.1,-111.1 -23.9,-26.9 -295.7,-78.2 -366.1,-71.5 -70.4,6.7 -212.3,122.7 -285.1,144.4 -72.9,21.8 -183.7,5.6 -183.7,5.6 l 0.5,219.3" style="fill:#d17b34;fill-opacity:1;fill-rule:nonzero;stroke:none" id="path80"/>
      <path d="m 13898.7,8646.4 c 0,0 239.4,12.7 294,-50.5 l -185.6,-28 -108.4,78.5" style="fill:#d17b34;fill-opacity:1;fill-rule:nonzero;stroke:none" id="path82"/>
      <path d="m 13937.8,8423.2 339.4,-12.4 c 0,0 -30.6,46.5 -88.6,64.2 -58.1,17.6 -250.8,-51.8 -250.8,-51.8" style="fill:#d17b34;fill-opacity:1;fill-rule:nonzero;stroke:none" id="path84"/>
      <path d="m 9987.73,7466.8 c -12.05,6.7 -1443.12,-149.6 -1619.59,1477.9 26.1,211.7 48.06,416.9 61.69,606.3 11.91,165.1 31.27,311.7 56.24,442.2 128.83,19.9 283.36,-118.7 352.66,-324.4 142.61,-423.6 1145.27,-2184.4 1149,-2202" style="fill:#91cecf;fill-opacity:1;fill-rule:nonzero;stroke:none" id="path86"/>
      <path d="m 10881.3,7403.1 -79.3,-204.5 c 0,0 -71,20.7 -183.9,53.9 -33.8,10.2 -53,17.1 -53,17.1 -90.2,27.5 -197.7,63.5 -315,102.3 l -1.8,0.2 c -200.3,70.4 -424.32,153.3 -611.52,239.1 -16.76,7.9 -33.24,15.8 -49.29,23.6 -110.32,54.1 -204.89,108.8 -270.62,160.6 -7.76,5.8 -13.77,11.4 -21.36,18.8 -177.84,159.5 -363.97,594 -496.15,1052.9 -18.38,63.3 -35.15,126.5 -51.96,188 -59.5,228.7 -102.95,452.6 -123.06,644.1 -13.12,114.3 -19,217.9 -13.69,302.1 1.45,29.7 2.6,57.9 7.04,83.9 52.34,476.4 394.49,490.9 433.27,432.1 48.86,-73.1 96.67,-189.3 143.83,-328.8 71.8,-221.6 142.09,-506.4 206.01,-788.7 35.61,-154.9 69.48,-309.6 104.55,-452.7 19.34,-86.7 39.19,-168.4 57.97,-243.5 36.79,-143.4 71.23,-259.9 104.98,-334.8 21.63,-48.8 90.56,-120.7 183.43,-203.3 24.54,-22.1 51.05,-44.9 78.81,-68.4 154.66,-130.1 353.36,-277.7 530.46,-403.1 86.6,-62.1 168.8,-118.8 237.1,-165.7 110.1,-76.1 183.2,-125.2 183.2,-125.2" style="fill:#d17b34;fill-opacity:1;fill-rule:nonzero;stroke:none" id="path88"/>
      <path d="m 10862.6,7396.3 c 0,0 356.8,101 441.8,77.4 85,-23.6 376.3,-216.5 335.3,-268.8 -40.9,-52.4 -297.5,31.3 -415.5,15.5 -118.1,-15.9 -209.4,-74.1 -294.4,-61.5 -85,12.6 -173.9,46 -173.9,46 l 106.7,191.4" style="fill:#d17b34;fill-opacity:1;fill-rule:nonzero;stroke:none" id="path90"/>
      <path d="m 10862.6,7396.3 c 0,0 174.6,89.7 224.3,140.8 6.2,6.4 16.8,5.1 21.6,-2.5 13.3,-21 25.8,-61.5 -35.4,-101.8 -88.2,-58 -210.5,-36.5 -210.5,-36.5" style="fill:#d17b34;fill-opacity:1;fill-rule:nonzero;stroke:none" id="path92"/>
      <path d="m 9008.17,10670.1 c 0,0 -332.74,-161.6 -448.88,-382.9 -116.14,-221.2 -130.4,-927.5 49.42,-1845.7 0,0 542.2,35.6 896.64,505.6 0,0 -131.63,1855.7 -497.18,1723" style="fill:#abddda;fill-opacity:1;fill-rule:nonzero;stroke:none" id="path94"/>
      <path d="m 9144.68,11163.2 c 0,0 -121.34,-75.5 -121.59,-187.5 0,0 143.33,-391.6 980.21,-482.5 0,0 -770.26,378.8 -858.62,670" style="fill:#91cecf;fill-opacity:1;fill-rule:nonzero;stroke:none" id="path96"/>
      <path d="m 9798.2,11070 c 0,0 211.1,-387.9 205.1,-576.8 0,0 14.3,429.4 -15.57,529.1 -29.92,99.7 -207.94,140.9 -207.94,140.9 l 18.41,-93.2" style="fill:#91cecf;fill-opacity:1;fill-rule:nonzero;stroke:none" id="path98"/>
      <path d="m 9643.01,11722.2 c 7.18,0 74.13,-59.8 162.61,-43 88.47,16.7 87.64,86 87.64,86 0,0 -60.38,9.6 -113.47,0 -53.09,-9.5 -136.78,-43 -136.78,-43" style="fill:#ffffff;fill-opacity:1;fill-rule:nonzero;stroke:none" id="path100"/>
      <path d="m 20803.6,5391.2 h -6716.2 c -93.7,0 -170.3,76.6 -170.3,170.3 v 225.2 c 0,93.7 76.6,170.3 170.3,170.3 h 6716.2 c 93.7,0 170.3,-76.6 170.3,-170.3 v -225.2 c 0,-93.7 -76.6,-170.3 -170.3,-170.3" style="fill:#b0d4ff;fill-opacity:1;fill-rule:nonzero;stroke:none" id="path102"/>
      <path d="m 20481.2,2166.1 h -72.1 l -558.5,2114.4 c 0,0.2 0,0.2 0,0.4 l -127,480.8 c -0.2,0.2 -0.2,0.2 -0.2,0.2 l -164.6,623.7 328.9,5.6 112.1,-609 83.9,-456.1 c 0.4,-2.3 0.9,-4.4 1.3,-6.5 l 396.2,-2153.5" style="fill:#d2e3fc;fill-opacity:1;fill-rule:nonzero;stroke:none" id="path104"/>
      <path d="m 19999.8,4782.2 c -60.7,-88.3 -144.4,-254.3 -149.2,-501.3 l -127,480.8 c -0.2,0.2 -0.2,0.2 -0.2,0.2 l -164.6,623.7 328.9,5.6 112.1,-609" style="fill:#b0d4ff;fill-opacity:1;fill-rule:nonzero;stroke:none" id="path106"/>
      <path d="m 14278.6,2166.1 h 72.1 l 558.5,2114.4 c 0,0.2 0,0.2 0,0.4 l 127,480.8 c 0.2,0.2 0.2,0.2 0.2,0.2 l 164.6,623.7 -328.9,5.6 -112.1,-609 -83.8,-456.1 c -0.4,-2.3 -1,-4.4 -1.4,-6.5 l -396.2,-2153.5" style="fill:#d2e3fc;fill-opacity:1;fill-rule:nonzero;stroke:none" id="path108"/>
      <path d="m 14760,4782.2 c 60.7,-88.3 144.4,-254.3 149.2,-501.3 l 127,480.8 c 0.2,0.2 0.2,0.2 0.2,0.2 l 164.6,623.7 -328.9,5.6 -112.1,-609" style="fill:#b0d4ff;fill-opacity:1;fill-rule:nonzero;stroke:none" id="path110"/>
      <path d="m 14411.6,8372.9 c 0,0 -45.8,39.9 -101.9,28.2 -56.1,-11.7 -98.5,-36.8 -170.5,-23.9 -72,12.9 -195.4,-17.3 -188.8,3 6.6,20.2 118.5,75.1 125.1,86.4 6.7,11.2 -87.8,155.3 -145.9,186.9 -58,31.6 -206.9,106.7 -182.4,127.2 24.6,20.4 269.4,29.1 330.2,13.9 60.7,-15.3 169.6,-135.7 230.4,-164.4 60.9,-28.7 167.4,-103.9 167.4,-103.9 l -63.6,-153.4" style="fill:#ffb27d;fill-opacity:1;fill-rule:nonzero;stroke:none" id="path112"/>
      <path d="m 14028.9,8586.7 c 0,0 -211.4,20.8 -250.8,83.4 l 166.2,-0.2 84.6,-83.2" style="fill:#ffb27d;fill-opacity:1;fill-rule:nonzero;stroke:none" id="path114"/>
      <path d="m 14024.2,8787.4 -295.5,56 c 0,0 20.6,-44.8 69.1,-67.9 48.5,-23.2 226.4,11.9 226.4,11.9" style="fill:#ffb27d;fill-opacity:1;fill-rule:nonzero;stroke:none" id="path116"/>
      <path d="m 17521,10098.9 c 0,0 -181,82.3 -746.1,-428.7 -565.1,-510.9 -952.2,-1045 -1254.1,-1068.2 -301.9,-23.3 -1081.4,-24.8 -1081.4,-24.8 l -86.8,-182.3 c 0,0 -14.6,-70.4 463.8,-222.6 409.1,-130.1 926.6,-171 965.1,-166.4 387,46.4 1314.8,666.3 1456,852.1 141.1,185.8 283.5,1240.9 283.5,1240.9" style="fill:#b0d0ff;fill-opacity:1;fill-rule:nonzero;stroke:none" id="path118"/>
      <path d="m 17411.3,11812.7 c 0,0 -10.4,368.3 475.2,440.5 485.7,72.3 619.9,-41.3 702.5,-165.1 82.5,-123.9 237.3,-629.6 221.9,-830.9 -15.5,-201.3 -569.5,-450.1 -560.4,-567.6 9,-117.4 -839.2,1123.1 -839.2,1123.1" style="fill:#163560;fill-opacity:1;fill-rule:nonzero;stroke:none" id="path120"/>
      <path d="m 15397.5,2383.6 c 9.7,-122.9 -161.6,-150.5 -359.6,-157.7 -198,-7.3 -138.8,-48.6 -410.6,-94.2 -271.8,-45.6 -379.6,30 -398.7,67 -17.1,32.7 109.7,81.9 244.8,137.6 17,6.9 34,14.1 51.1,21.3 152.1,64.5 250.3,173.1 327.3,327.4 52,104.1 96.2,502 96.2,502 l 472.3,65.4 c 0,0 -83.5,-309.3 -121.3,-455.4 -22.3,-85.9 39.5,-215.2 66.2,-288.9 14.4,-40.1 28.9,-81.2 32.3,-124.5" style="fill:#ffb27d;fill-opacity:1;fill-rule:nonzero;stroke:none" id="path122"/>
      <path d="m 15037.9,2225.9 c -198,-7.3 -138.8,-48.6 -410.6,-94.2 -271.8,-45.6 -379.6,30 -398.7,67 -17.1,32.7 109.7,81.9 244.8,137.6 l 2.1,-2.3 c 0,0 189.8,-67.3 410.7,-10.3 180,46.4 354.9,151.3 479,184.4 14.4,-40.1 28.9,-81.2 32.3,-124.5 9.7,-122.9 -161.6,-150.5 -359.6,-157.7" style="fill:#b24940;fill-opacity:1;fill-rule:nonzero;stroke:none" id="path124"/>
      <path d="m 18092.2,6991.3 c 0,0 -2452.8,-128.7 -2873.1,-476 -420.4,-347.3 -343.3,-3694.7 -343.3,-3694.7 39.3,-45.3 110.6,-61.9 209,-75.9 101.9,-14.5 240,-13.2 240,-13.2 0,0 480.6,1675.1 506.2,2063.6 25.7,388.5 140.8,1044.2 308.7,1075 168,30.7 2133,-284.2 2379.8,318.4 246.8,602.5 -88,1124.7 -88,1124.7 l -339.3,-321.9" style="fill:#163560;fill-opacity:1;fill-rule:nonzero;stroke:none" id="path126"/>
      <path d="m 19244.4,6382.5 c -105.5,-70.6 -378,-109.6 -694.3,-120.9 -566,-20.6 -1272.3,46.9 -1411.4,178.2 -36,33.9 -53.7,90.1 -58.6,161.4 -15.4,217.2 88.4,574.5 158,870.2 45.3,192.2 76.1,358.1 50.8,443 -76.8,258.2 -315.3,784.5 -335.9,957.4 -20.6,172.9 185.7,1099.6 471.1,1214.3 285.5,114.9 1386.8,0 1386.8,0 430.2,-87.3 448.3,-1004.7 305.4,-1785.4 -3.7,-20.2 -7.4,-40.1 -11.3,-60 -154.8,-792.8 433.5,-1661.1 139.4,-1858.2" style="fill:#b0d0ff;fill-opacity:1;fill-rule:nonzero;stroke:none" id="path128"/>
      <path d="m 17613.9,10006.3 c 7.7,-50.3 145.4,-131.9 439.8,-54.3 282.1,74.4 316,166.2 315.9,226.9 -0.1,71.8 -122.6,168.5 -121,610.4 l -33.8,-6.7 -568.8,-112.6 c 0,0 13,-179 13.4,-347.6 0.4,-141.6 -58.4,-232.3 -45.5,-316.1" style="fill:#ffb27d;fill-opacity:1;fill-rule:nonzero;stroke:none" id="path130"/>
      <path d="m 17646,10670 c 0,0 13,-179 13.4,-347.6 318.2,9 486.4,299.3 555.4,460.2 L 17646,10670" style="fill:#ed975d;fill-opacity:1;fill-rule:nonzero;stroke:none" id="path132"/>
      <path d="m 17539.8,10510.3 c 0,0 752.9,-12.4 753.4,456.6 0.6,469.1 98.1,783.3 -382.6,811.1 -480.8,27.8 -574.4,-151.1 -612.6,-307.6 -38.3,-156.5 45.9,-944.8 241.8,-960.1" style="fill:#ffb27d;fill-opacity:1;fill-rule:nonzero;stroke:none" id="path134"/>
      <path d="m 17567.6,11789.5 c 0,0 206.2,-550.3 522.6,-631.6 316.4,-81.4 453.6,3.4 453.6,3.4 0,0 -140.1,283 -190.5,619.6 0,0 -630.1,270.5 -785.7,8.6" style="fill:#163560;fill-opacity:1;fill-rule:nonzero;stroke:none" id="path136"/>
      <path d="m 17618.7,11744.8 c 0,0 -153.9,-122.8 -191.5,-242.3 -37.5,-119.4 -54.4,-365.3 -126.1,-356.9 0,0 -155.3,374 19.3,585.6 185.1,224.3 298.3,13.6 298.3,13.6" style="fill:#163560;fill-opacity:1;fill-rule:nonzero;stroke:none" id="path138"/>
      <path d="m 17707.1,10794.6 c 0,0 -14,-59.5 -162.2,-50.3 0,0 -124.5,7.6 -120.7,73.1 0,0 120.7,46.6 282.9,-22.8" style="fill:#ffffff;fill-opacity:1;fill-rule:nonzero;stroke:none" id="path140"/>
      <path d="m 16868.2,2249.5 c -4.2,-123.2 -177.5,-131.3 -375.1,-116.1 -197.6,15.2 -143.3,-32.5 -418.6,-47 -275.3,-14.6 -373.7,72.8 -388.6,111.6 -13.2,34.5 118.3,69 258.9,109.1 17.6,5 35.4,10.2 53.1,15.4 158.4,46.9 259.7,170.7 392.6,280.6 125.8,104.1 -113.8,649.3 -113.8,649.3 l 356.8,152.3 c 0,0 47.4,-383.2 116.1,-719.7 17.7,-87 82.4,-232 100.7,-308.2 9.7,-41.5 19.5,-83.9 17.9,-127.3" style="fill:#ffb27d;fill-opacity:1;fill-rule:nonzero;stroke:none" id="path142"/>
      <path d="m 19244.4,6382.5 c -105.5,-70.6 -378,-109.6 -694.3,-120.9 -522,118.8 -1116.4,257 -1470,339.6 -15.4,217.2 88.4,574.5 158,870.2 412.3,-125.9 1025.9,303 1232.1,472.5 216.8,178.1 210,771.4 210,771.4 l 436.1,-414.6 c -3.7,-20.2 -7.4,-40.1 -11.3,-60 -154.8,-792.8 433.5,-1661.1 139.4,-1858.2" style="fill:#98baf4;fill-opacity:1;fill-rule:nonzero;stroke:none" id="path144"/>
      <path d="m 16493.1,2133.4 c -197.6,15.2 -143.3,-32.5 -418.6,-47 -275.3,-14.6 -373.7,72.8 -388.6,111.6 -13.2,34.5 118.3,69 258.9,109.1 l 1.7,-2.6 c 0,0 181.1,-88.3 407,-56.7 184.1,25.7 369.8,110.2 496.8,129 9.7,-41.5 19.5,-83.9 17.9,-127.3 -4.2,-123.2 -177.5,-131.3 -375.1,-116.1" style="fill:#c65447;fill-opacity:1;fill-rule:nonzero;stroke:none" id="path146"/>
      <path d="m 18611.6,6819.1 c -618.8,47.9 -2476.6,-6.2 -2845.1,-252.1 -453.5,-302.6 639.9,-3770 639.9,-3770 h 351 c 0,0 204,2013.4 77.4,2415.3 -117,371.3 -193.4,504.4 -23.2,517.8 170.1,13.5 2267.6,-354.9 2474.5,262.5 161.7,482.2 -19.4,944.8 -19.4,944.8 0,0 -84.3,-162.4 -655.1,-118.3" style="fill:#1c468a;fill-opacity:1;fill-rule:nonzero;stroke:none" id="path148"/>
      <path d="m 18810.9,10086.1 c 0,0 430.9,-36.5 464.4,-377.2 25.5,-258.6 212.9,-2093.1 78,-2252.7 -379.9,-448.9 -1646.5,-544.1 -1833,-612.2 l -51.3,212.3 c 0,0 1352.2,681.2 1331.5,836 -20.6,154.9 -403,2255.1 10.4,2193.8" style="fill:#b0d0ff;fill-opacity:1;fill-rule:nonzero;stroke:none" id="path150"/>
      <path d="m 18354.4,12068.1 c 0,0 -30.9,196.5 241.6,247.2 272.5,50.7 277.6,-528.1 306.8,-667.7 29.2,-139.5 -43.6,-223.1 -147.5,-231.6 -104,-8.5 -400.9,652.1 -400.9,652.1" style="fill:#163560;fill-opacity:1;fill-rule:nonzero;stroke:none" id="path152"/>
      <path d="m 17454.4,7065.6 c 0,0 -385.1,109 -476.9,83.5 -91.7,-25.5 -406,-233.5 -361.8,-290.1 44.2,-56.5 321.1,33.9 448.5,16.8 127.4,-17.1 225.9,-80 317.6,-66.4 91.7,13.6 187.6,49.6 187.6,49.6 l -115,206.6" style="fill:#ffb27d;fill-opacity:1;fill-rule:nonzero;stroke:none" id="path154"/>
      <path d="m 17454.4,7065.6 c 0,0 -188.5,96.8 -242,151.9 -6.8,7 -18.2,5.5 -23.4,-2.7 -14.4,-22.6 -27.9,-66.4 38.2,-109.8 95.2,-62.6 227.2,-39.4 227.2,-39.4" style="fill:#ffb27d;fill-opacity:1;fill-rule:nonzero;stroke:none" id="path156"/>
      <path d="M 23093.6,2082.2 H 2114.82 c -22.4,0 -40.74,18.4 -40.74,40.8 v 0 c 0,22.4 18.34,40.7 40.74,40.7 H 23093.6 c 22.4,0 40.7,-18.3 40.7,-40.7 v 0 c 0,-22.4 -18.3,-40.8 -40.7,-40.8" style="fill:#2e3552;fill-opacity:1;fill-rule:nonzero;stroke:none" id="path158"/>
      <path d="m 13859.5,14824.4 c 0,-640.6 -716.9,-1159.9 -1601.1,-1159.9 -884.3,0 -1601.1,519.3 -1601.1,1159.9 0,640.5 716.8,1159.8 1601.1,1159.8 884.2,0 1601.1,-519.3 1601.1,-1159.8" style="fill:#ffddc2;fill-opacity:1;fill-rule:nonzero;stroke:none" id="path160"/>
      <path d="m 11167.8,14144.9 -388.7,-589.4 790.3,364.6 z" style="fill:#ffddc2;fill-opacity:1;fill-rule:nonzero;stroke:none" id="path162"/>
      <path d="m 13651.9,12700.9 c 0,-531.6 594.8,-962.6 1328.6,-962.6 733.8,0 1328.7,431 1328.7,962.6 0,531.6 -594.9,962.5 -1328.7,962.5 -733.8,0 -1328.6,-430.9 -1328.6,-962.5" style="fill:#d1e4ff;fill-opacity:1;fill-rule:nonzero;stroke:none" id="path164"/>
      <path d="m 15885.6,12137 322.6,-489.1 -655.9,302.6 z" style="fill:#d1e4ff;fill-opacity:1;fill-rule:nonzero;stroke:none" id="path166"/>
    </g>
  </g>
</svg>